<svg xmlns="http://www.w3.org/2000/svg">
<symbol id="arrow1" viewBox="0 0 12 12">
<path d="M2 4L6 8L10 4" stroke="#C0C0C0" stroke-width="2" stroke-linecap="round"/>
</symbol>
<symbol id="arrow2" viewBox="0 0 16 16">
  <path stroke="currentColor" stroke-linecap="round" stroke-width="2" d="m8.306 13 5.5-5.5-5.5-5.5m4.89 5.5h-11"/>
</symbol>
<symbol id="cabinet1" viewBox="0 0 24 24">
<path d="M2 15.75C2 14.3693 3.11929 13.25 4.5 13.25H8.25C9.63071 13.25 10.75 14.3693 10.75 15.75V19.5C10.75 20.8807 9.63071 22 8.25 22H4.5C3.11929 22 2 20.8807 2 19.5V15.75Z" stroke="#424242"/>
<path d="M2 4.5C2 3.11929 3.11929 2 4.5 2H8.25C9.63071 2 10.75 3.11929 10.75 4.5V8.25C10.75 9.63071 9.63071 10.75 8.25 10.75H4.5C3.11929 10.75 2 9.63071 2 8.25V4.5Z" stroke="#424242"/>
<path d="M13.25 15.75C13.25 14.3693 14.3693 13.25 15.75 13.25H19.5C20.8807 13.25 22 14.3693 22 15.75V19.5C22 20.8807 20.8807 22 19.5 22H15.75C14.3693 22 13.25 20.8807 13.25 19.5V15.75Z" stroke="#424242"/>
<path d="M13.25 4.5C13.25 3.11929 14.3693 2 15.75 2H19.5C20.8807 2 22 3.11929 22 4.5V8.25C22 9.63071 20.8807 10.75 19.5 10.75H15.75C14.3693 10.75 13.25 9.63071 13.25 8.25V4.5Z" stroke="#424242"/>
</symbol>
<symbol id="cabinet2" viewBox="0 0 24 24">
<path d="M2 15.75C2 14.3693 3.11929 13.25 4.5 13.25H8.25C9.63071 13.25 10.75 14.3693 10.75 15.75V19.5C10.75 20.8807 9.63071 22 8.25 22H4.5C3.11929 22 2 20.8807 2 19.5V15.75Z" fill="#424242"/>
<path d="M2 4.5C2 3.11929 3.11929 2 4.5 2H8.25C9.63071 2 10.75 3.11929 10.75 4.5V8.25C10.75 9.63071 9.63071 10.75 8.25 10.75H4.5C3.11929 10.75 2 9.63071 2 8.25V4.5Z" fill="#424242"/>
<path d="M13.25 15.75C13.25 14.3693 14.3693 13.25 15.75 13.25H19.5C20.8807 13.25 22 14.3693 22 15.75V19.5C22 20.8807 20.8807 22 19.5 22H15.75C14.3693 22 13.25 20.8807 13.25 19.5V15.75Z" fill="#424242"/>
<path d="M13.25 4.5C13.25 3.11929 14.3693 2 15.75 2H19.5C20.8807 2 22 3.11929 22 4.5V8.25C22 9.63071 20.8807 10.75 19.5 10.75H15.75C14.3693 10.75 13.25 9.63071 13.25 8.25V4.5Z" fill="#424242"/>
</symbol>
<symbol id="databases1" viewBox="0 0 24 24">
<path d="M21.8996 4.3C21.8996 6.12254 17.4672 7.6 11.9996 7.6C6.53199 7.6 2.09961 6.12254 2.09961 4.3M21.8996 4.3C21.8996 2.47746 17.4672 1 11.9996 1C6.53199 1 2.09961 2.47746 2.09961 4.3M21.8996 4.3V19.7C21.8996 21.526 17.4996 23 11.9996 23C6.49961 23 2.09961 21.526 2.09961 19.7V4.3M21.8996 12C21.8996 13.826 17.4996 15.3 11.9996 15.3C6.49961 15.3 2.09961 13.826 2.09961 12" stroke="#424242" stroke-linecap="round" stroke-linejoin="round"/>
</symbol>
<symbol id="databases2" viewBox="0 0 24 24">
<path d="M21.8996 4.3C21.8996 6.12254 17.4672 7.6 11.9996 7.6C6.53199 7.6 2.09961 6.12254 2.09961 4.3M21.8996 4.3C21.8996 2.47746 17.4672 1 11.9996 1C6.53199 1 2.09961 2.47746 2.09961 4.3M21.8996 4.3V19.7C21.8996 21.526 17.4996 23 11.9996 23C6.49961 23 2.09961 21.526 2.09961 19.7V4.3M21.8996 12C21.8996 13.826 17.4996 15.3 11.9996 15.3C6.49961 15.3 2.09961 13.826 2.09961 12" stroke="#424242" stroke-width="1.5" stroke-linecap="round" stroke-linejoin="round"/>
</symbol>
<symbol id="documents1" viewBox="0 0 24 24">
<path d="M13.6574 1H5.55212C4.93793 1 4.3489 1.24398 3.91461 1.67828C3.48031 2.11257 3.23633 2.7016 3.23633 3.31579V20.6842C3.23633 21.2984 3.48031 21.8874 3.91461 22.3217C4.3489 22.756 4.93793 23 5.55212 23H19.4469C20.061 23 20.6501 22.756 21.0844 22.3217C21.5187 21.8874 21.7626 21.2984 21.7626 20.6842V9.10526M13.6574 1L21.7626 9.10526M13.6574 1V9.10526H21.7626" stroke="#424242" stroke-linecap="round" stroke-linejoin="round"/>
</symbol>
<symbol id="documents2" viewBox="0 0 24 24">
<path d="M13.6584 1H5.55309C4.93891 1 4.34988 1.24398 3.91558 1.67828C3.48129 2.11257 3.2373 2.7016 3.2373 3.31579V20.6842C3.2373 21.2984 3.48129 21.8874 3.91558 22.3217C4.34988 22.756 4.93891 23 5.55309 23H19.4478C20.062 23 20.651 22.756 21.0853 22.3217C21.5196 21.8874 21.7636 21.2984 21.7636 20.6842V9.10526M13.6584 1L21.7636 9.10526M13.6584 1V9.10526H21.7636" stroke="#424242" stroke-width="1.5" stroke-linecap="round" stroke-linejoin="round"/>
</symbol>
<symbol id="download" viewBox="0 0 24 24">
<path d="M5 20.5H19V18.5H5M19 9.5H15V3.5H9V9.5H5L12 16.5L19 9.5Z" fill="#F26135"/>
</symbol>
<symbol id="facebook" viewBox="0 0 36 36">
<path d="M36 18C36 8.05887 27.9411 0 18 0C8.05887 0 0 8.05887 0 18C0 26.9842 6.5823 34.431 15.1875 35.7813V23.2031H10.6172V18H15.1875V14.0344C15.1875 9.52313 17.8748 7.03125 21.9864 7.03125C23.9551 7.03125 26.0156 7.38281 26.0156 7.38281V11.8125H23.7459C21.51 11.8125 20.8125 13.2001 20.8125 14.625V18H25.8047L25.0066 23.2031H20.8125V35.7813C29.4177 34.431 36 26.9842 36 18Z" fill="#F26135"/>
</symbol>
<symbol id="in" viewBox="0 0 37 36">
<mask id="path-1-inside-1_4601_1200" fill="white">
<path d="M33.3389 0C34.8081 0 36 1.15525 36 2.5791V33.4209C36 34.8452 34.8081 36 33.3389 36H2.66016C1.19086 36 0 34.8452 0 33.4209V2.5791C0 1.15525 1.19086 0 2.66016 0H33.3389ZM6.41504 30H11.8809V13.8066H6.41504V30ZM25.2979 13.4268C22.3964 13.4269 21.0982 14.999 20.3721 16.1025V13.8066H14.9053C14.977 15.3273 14.9053 30 14.9053 30H20.3721V20.957C20.3721 20.4731 20.4075 19.9895 20.5518 19.6436C20.9469 18.6766 21.8464 17.6748 23.3564 17.6748C25.3344 17.6748 26.126 19.16 26.126 21.3369V30H31.5918V20.7148C31.5918 15.7409 28.8943 13.4268 25.2979 13.4268ZM20.3721 16.1553H20.3359C20.3474 16.1376 20.3603 16.1205 20.3721 16.1025V16.1553ZM9.18359 6C7.314 6.00018 6.09185 7.20904 6.0918 8.79785C6.0918 10.3518 7.27786 11.5957 9.1123 11.5957H9.14746C11.0537 11.5957 12.2402 10.3518 12.2402 8.79785C12.2047 7.20893 11.0536 6 9.18359 6Z"/>
</mask>
<path d="M33.3389 0C34.8081 0 36 1.15525 36 2.5791V33.4209C36 34.8452 34.8081 36 33.3389 36H2.66016C1.19086 36 0 34.8452 0 33.4209V2.5791C0 1.15525 1.19086 0 2.66016 0H33.3389ZM6.41504 30H11.8809V13.8066H6.41504V30ZM25.2979 13.4268C22.3964 13.4269 21.0982 14.999 20.3721 16.1025V13.8066H14.9053C14.977 15.3273 14.9053 30 14.9053 30H20.3721V20.957C20.3721 20.4731 20.4075 19.9895 20.5518 19.6436C20.9469 18.6766 21.8464 17.6748 23.3564 17.6748C25.3344 17.6748 26.126 19.16 26.126 21.3369V30H31.5918V20.7148C31.5918 15.7409 28.8943 13.4268 25.2979 13.4268ZM20.3721 16.1553H20.3359C20.3474 16.1376 20.3603 16.1205 20.3721 16.1025V16.1553ZM9.18359 6C7.314 6.00018 6.09185 7.20904 6.0918 8.79785C6.0918 10.3518 7.27786 11.5957 9.1123 11.5957H9.14746C11.0537 11.5957 12.2402 10.3518 12.2402 8.79785C12.2047 7.20893 11.0536 6 9.18359 6Z" fill="#F26135"/>
<path d="M6.41504 30H5.41504V31H6.41504V30ZM11.8809 30V31H12.8809V30H11.8809ZM11.8809 13.8066H12.8809V12.8066H11.8809V13.8066ZM6.41504 13.8066V12.8066H5.41504V13.8066H6.41504ZM25.2979 13.4268V12.4268H25.2978L25.2979 13.4268ZM20.3721 13.8066H21.3721V12.8066H20.3721V13.8066ZM14.9053 13.8066V12.8066H13.857L13.9064 13.8538L14.9053 13.8066ZM14.9053 30L13.9053 29.9951L13.9004 31H14.9053V30ZM20.3721 30V31H21.3721V30H20.3721ZM20.5518 19.6436L21.4747 20.0285L21.4774 20.0218L20.5518 19.6436ZM23.3564 17.6748L23.3565 16.6748H23.3564V17.6748ZM26.126 30H25.126V31H26.126V30ZM31.5918 30V31H32.5918V30H31.5918ZM20.3721 16.1553V17.1553H21.3721V16.1553H20.3721ZM20.3359 16.1553L19.4977 15.6099L18.4923 17.1553H20.3359V16.1553ZM9.18359 6V5H9.1835L9.18359 6ZM6.0918 8.79785L5.0918 8.79782V8.79785H6.0918ZM12.2402 8.79785H13.2402V8.78666L13.24 8.77547L12.2402 8.79785ZM33.3389 0V1C34.2855 1 35 1.73679 35 2.5791H36H37C37 0.573702 35.3307 -1 33.3389 -1V0ZM36 2.5791H35V33.4209H36H37V2.5791H36ZM36 33.4209H35C35 34.2636 34.2857 35 33.3389 35V36V37C35.3306 37 37 35.4269 37 33.4209H36ZM33.3389 36V35H2.66016V36V37H33.3389V36ZM2.66016 36V35C1.7138 35 1 34.2641 1 33.4209H0H-1C-1 35.4264 0.667924 37 2.66016 37V36ZM0 33.4209H1V2.5791H0H-1V33.4209H0ZM0 2.5791H1C1 1.73631 1.71393 1 2.66016 1V0V-1C0.667801 -1 -1 0.574184 -1 2.5791H0ZM2.66016 0V1H33.3389V0V-1H2.66016V0ZM6.41504 30V31H11.8809V30V29H6.41504V30ZM11.8809 30H12.8809V13.8066H11.8809H10.8809V30H11.8809ZM11.8809 13.8066V12.8066H6.41504V13.8066V14.8066H11.8809V13.8066ZM6.41504 13.8066H5.41504V30H6.41504H7.41504V13.8066H6.41504ZM25.2979 13.4268L25.2978 12.4268C23.6517 12.4268 22.4043 12.8774 21.4555 13.5249C20.5208 14.1628 19.9294 14.956 19.5367 15.5529L20.3721 16.1025L21.2074 16.6522C21.5408 16.1456 21.9616 15.6009 22.5829 15.1769C23.1902 14.7624 24.0426 14.4268 25.2979 14.4268L25.2979 13.4268ZM20.3721 16.1025H21.3721V13.8066H20.3721H19.3721V16.1025H20.3721ZM20.3721 13.8066V12.8066H14.9053V13.8066V14.8066H20.3721V13.8066ZM14.9053 13.8066L13.9064 13.8538C13.9407 14.5817 13.9412 18.5913 13.9322 22.4712C13.9277 24.3996 13.921 26.2806 13.9154 27.6796C13.9126 28.3791 13.91 28.958 13.9082 29.3621C13.9073 29.5641 13.9066 29.7224 13.9061 29.8301C13.9058 29.884 13.9056 29.9253 13.9055 29.9531C13.9054 29.967 13.9054 29.9775 13.9053 29.9845C13.9053 29.988 13.9053 29.9907 13.9053 29.9925C13.9053 29.9933 13.9053 29.994 13.9053 29.9945C13.9053 29.9947 13.9053 29.9948 13.9053 29.9949C13.9053 29.9951 13.9053 29.9951 14.9053 30C15.9053 30.0049 15.9053 30.0048 15.9053 30.0047C15.9053 30.0046 15.9053 30.0044 15.9053 30.0042C15.9053 30.0038 15.9053 30.0031 15.9053 30.0022C15.9053 30.0004 15.9053 29.9977 15.9053 29.9942C15.9053 29.9871 15.9054 29.9766 15.9055 29.9627C15.9056 29.9348 15.9058 29.8935 15.9061 29.8396C15.9066 29.7317 15.9073 29.5732 15.9082 29.3711C15.91 28.9667 15.9125 28.3875 15.9154 27.6876C15.921 26.288 15.9277 24.4058 15.9322 22.4759C15.9411 18.6393 15.9415 14.5523 15.9042 13.7595L14.9053 13.8066ZM14.9053 30V31H20.3721V30V29H14.9053V30ZM20.3721 30H21.3721V20.957H20.3721H19.3721V30H20.3721ZM20.3721 20.957H21.3721C21.3721 20.4778 21.4143 20.1734 21.4747 20.0285L20.5518 19.6436L19.6288 19.2586C19.4007 19.8056 19.3721 20.4684 19.3721 20.957H20.3721ZM20.5518 19.6436L21.4774 20.0218C21.7735 19.2975 22.3796 18.6748 23.3564 18.6748V17.6748V16.6748C21.3131 16.6748 20.1204 18.0556 19.6261 19.2653L20.5518 19.6436ZM23.3564 17.6748L23.3564 18.6748C24.057 18.6748 24.4238 18.9162 24.6606 19.2585C24.9402 19.6626 25.126 20.3417 25.126 21.3369H26.126H27.126C27.126 20.1552 26.916 19.0032 26.3053 18.1206C25.6519 17.1761 24.6339 16.6748 23.3565 16.6748L23.3564 17.6748ZM26.126 21.3369H25.126V30H26.126H27.126V21.3369H26.126ZM26.126 30V31H31.5918V30V29H26.126V30ZM31.5918 30H32.5918V20.7148H31.5918H30.5918V30H31.5918ZM31.5918 20.7148H32.5918C32.5918 18.0518 31.8676 15.9575 30.5234 14.5221C29.1738 13.0807 27.314 12.4268 25.2979 12.4268V13.4268V14.4268C26.8781 14.4268 28.1653 14.9299 29.0635 15.8891C29.9672 16.8542 30.5918 18.404 30.5918 20.7148H31.5918ZM20.3721 16.1553V15.1553H20.3359V16.1553V17.1553H20.3721V16.1553ZM20.3359 16.1553L21.1741 16.7006C21.171 16.7054 21.169 16.7084 21.1689 16.7085C21.1688 16.7087 21.169 16.7084 21.1697 16.7074C21.1704 16.7064 21.1713 16.7051 21.1728 16.703C21.1752 16.6995 21.1804 16.6921 21.1858 16.6842C21.1915 16.676 21.199 16.665 21.2074 16.6522L20.3721 16.1025L19.5367 15.5529C19.5392 15.5491 19.5407 15.5469 19.5403 15.5475C19.5396 15.5485 19.5387 15.5497 19.535 15.555C19.5299 15.5623 19.5143 15.5845 19.4977 15.6099L20.3359 16.1553ZM20.3721 16.1025H19.3721V16.1553H20.3721H21.3721V16.1025H20.3721ZM9.18359 6L9.1835 5C8.03078 5.00011 7.00409 5.37573 6.25608 6.07047C5.5051 6.76798 5.09183 7.73656 5.0918 8.79782L6.0918 8.79785L7.0918 8.79789C7.09182 8.27034 7.28965 7.84008 7.61715 7.5359C7.94763 7.22896 8.46681 7.00007 9.18369 7L9.18359 6ZM6.0918 8.79785H5.0918C5.0918 10.9414 6.76363 12.5957 9.1123 12.5957V11.5957V10.5957C7.79209 10.5957 7.0918 9.76226 7.0918 8.79785H6.0918ZM9.1123 11.5957V12.5957H9.14746V11.5957V10.5957H9.1123V11.5957ZM9.14746 11.5957V12.5957C10.3223 12.5957 11.3517 12.2089 12.0953 11.5065C12.8393 10.8038 13.2402 9.83725 13.2402 8.79785H12.2402H11.2402C11.2402 9.31245 11.0479 9.74478 10.722 10.0525C10.3958 10.3606 9.87884 10.5957 9.14746 10.5957V11.5957ZM12.2402 8.79785L13.24 8.77547C13.2168 7.73982 12.8252 6.77949 12.0894 6.0789C11.353 5.3776 10.3393 5 9.18359 5V6V7C9.8979 7 10.3948 7.22686 10.7102 7.52726C11.0264 7.82837 11.2281 8.26696 11.2405 8.82024L12.2402 8.79785Z" fill="#F26135" mask="url(#path-1-inside-1_4601_1200)"/>
</symbol>
<symbol id="instagram" viewBox="0 0 36 36">
<path d="M19.8504 0C21.8753 0.00539987 22.9031 0.0161996 23.7904 0.041399L24.1396 0.0539986C24.5428 0.0683983 24.9406 0.0863978 25.4211 0.107997C27.3362 0.197995 28.643 0.500388 29.7895 0.944977C30.9775 1.40217 31.9782 2.02135 32.979 3.02033C33.8946 3.91982 34.6028 5.00833 35.0543 6.20985C35.4988 7.35642 35.8012 8.66319 35.8912 10.5801C35.9128 11.0589 35.9308 11.4567 35.9452 11.8617L35.956 12.2109C35.983 13.0965 35.9938 14.1243 35.9974 16.1492L35.9992 17.492V19.8499C36.0036 21.1628 35.9898 22.4757 35.9578 23.7882L35.947 24.1374C35.9326 24.5424 35.9146 24.9402 35.893 25.419C35.803 27.3359 35.497 28.6409 35.0543 29.7893C34.6028 30.9908 33.8946 32.0793 32.979 32.9788C32.0795 33.8944 30.991 34.6027 29.7895 35.0541C28.643 35.4987 27.3362 35.8011 25.4211 35.8911L24.1396 35.9451L23.7904 35.9559C22.9031 35.9811 21.8753 35.9937 19.8504 35.9973L18.5077 35.9991H16.1516C14.8381 36.0038 13.5247 35.99 12.2116 35.9577L11.8624 35.9469C11.4351 35.9307 11.008 35.9121 10.5809 35.8911C8.66579 35.8011 7.35905 35.4987 6.21071 35.0541C5.00987 34.6025 3.92202 33.8942 3.02307 32.9788C2.10682 32.0795 1.39795 30.991 0.945976 29.7893C0.501399 28.6427 0.199014 27.3359 0.109018 25.419L0.055021 24.1374L0.0460217 23.7882C0.0128422 22.4757 -0.00215862 21.1628 0.00102378 19.8499V16.1492C-0.00395818 14.8363 0.00924256 13.5234 0.0406219 12.2109L0.0532212 11.8617C0.0676205 11.4567 0.0856195 11.0589 0.107218 10.5801C0.197214 8.66319 0.499599 7.35822 0.944176 6.20985C1.3972 5.00784 2.10732 3.91929 3.02487 3.02033C3.9233 2.10514 5.01051 1.3969 6.21071 0.944977C7.35905 0.500388 8.66399 0.197995 10.5809 0.107997C11.0597 0.0863978 11.4592 0.0683983 11.8624 0.0539986L12.2116 0.0431988C13.5241 0.0112186 14.8369 -0.00258239 16.1498 0.00179983L19.8504 0ZM18.0001 8.99978C15.6133 8.99978 13.3242 9.94797 11.6365 11.6358C9.94873 13.3235 9.00057 15.6127 9.00057 17.9996C9.00057 20.3865 9.94873 22.6756 11.6365 24.3634C13.3242 26.0512 15.6133 26.9993 18.0001 26.9993C20.3869 26.9993 22.676 26.0512 24.3638 24.3634C26.0515 22.6756 26.9997 20.3865 26.9997 17.9996C26.9997 15.6127 26.0515 13.3235 24.3638 11.6358C22.676 9.94797 20.3869 8.99978 18.0001 8.99978ZM18.0001 12.5997C18.7092 12.5996 19.4114 12.7391 20.0666 13.0104C20.7217 13.2817 21.3171 13.6793 21.8186 14.1806C22.3201 14.682 22.7179 15.2772 22.9894 15.9323C23.2608 16.5874 23.4006 17.2895 23.4007 17.9987C23.4009 18.7078 23.2613 19.41 22.9901 20.0652C22.7188 20.7204 22.3212 21.3157 21.8198 21.8172C21.3185 22.3187 20.7233 22.7166 20.0682 22.988C19.4132 23.2595 18.711 23.3993 18.0019 23.3994C16.5698 23.3994 15.1964 22.8305 14.1837 21.8178C13.1711 20.8052 12.6022 19.4317 12.6022 17.9996C12.6022 16.5674 13.1711 15.194 14.1837 14.1813C15.1964 13.1686 16.5698 12.5997 18.0019 12.5997M27.4514 6.29985C26.8547 6.29985 26.2825 6.53689 25.8605 6.95884C25.4386 7.38079 25.2016 7.95307 25.2016 8.54979C25.2016 9.14651 25.4386 9.7188 25.8605 10.1407C26.2825 10.5627 26.8547 10.7997 27.4514 10.7997C28.0481 10.7997 28.6204 10.5627 29.0424 10.1407C29.4643 9.7188 29.7013 9.14651 29.7013 8.54979C29.7013 7.95307 29.4643 7.38079 29.0424 6.95884C28.6204 6.53689 28.0481 6.29985 27.4514 6.29985Z" fill="#F26135"/>
</symbol>
<symbol id="location" viewBox="0 0 20 20">
<path d="M10 9.5C9.33696 9.5 8.70107 9.23661 8.23223 8.76777C7.76339 8.29893 7.5 7.66304 7.5 7C7.5 6.33696 7.76339 5.70107 8.23223 5.23223C8.70107 4.76339 9.33696 4.5 10 4.5C10.663 4.5 11.2989 4.76339 11.7678 5.23223C12.2366 5.70107 12.5 6.33696 12.5 7C12.5 7.3283 12.4353 7.65339 12.3097 7.95671C12.1841 8.26002 11.9999 8.53562 11.7678 8.76777C11.5356 8.99991 11.26 9.18406 10.9567 9.3097C10.6534 9.43534 10.3283 9.5 10 9.5ZM10 0C8.14348 0 6.36301 0.737498 5.05025 2.05025C3.7375 3.36301 3 5.14348 3 7C3 12.25 10 20 10 20C10 20 17 12.25 17 7C17 5.14348 16.2625 3.36301 14.9497 2.05025C13.637 0.737498 11.8565 0 10 0Z" fill="#F26135"/>
</symbol>
<symbol id="logo1" viewBox="0 0 122 30">
<path fill-rule="evenodd" clip-rule="evenodd" d="M23.6694 0C29.2379 0 33.8335 4.19006 34.5093 9.60611C37.5887 10.8365 39.766 13.8601 39.766 17.395C39.766 22.0221 36.0361 25.7733 31.4355 25.7733L31.4159 25.7732H27.4611C27.4611 22.0481 27.4612 18.323 27.4612 14.598H31.3115C31.4507 14.598 31.5739 14.5464 31.6764 14.4432C31.7787 14.3404 31.83 14.2181 31.83 14.0763V10.136C31.83 9.99441 31.7781 9.87116 31.6764 9.76905C31.5748 9.6666 31.4523 9.61456 31.3115 9.61456C26.7982 9.61456 22.2855 9.61456 17.7723 9.61456C17.6315 9.61456 17.5089 9.6666 17.4072 9.76905C17.3057 9.87116 17.2536 9.99766 17.2536 10.136V14.0763C17.2536 14.2165 17.305 14.3404 17.4072 14.4432C17.5099 14.5464 17.6329 14.598 17.7723 14.598H21.5357V25.7732H15.4826C15.4826 20.5917 15.4826 15.4101 15.4826 10.2287C15.4826 10.0591 15.4213 9.91294 15.2986 9.78969C15.1763 9.6666 15.031 9.60498 14.8624 9.60498H10.1774C10.0088 9.60498 9.86341 9.6666 9.74086 9.78969C9.61814 9.91294 9.55719 10.0591 9.55719 10.2287C9.55719 15.4101 9.55719 20.5917 9.55719 25.7732H7.55931L7.54638 25.7733C3.37878 25.7733 0 22.3753 0 18.1839C0 14.9027 2.07111 12.1076 4.97051 11.0487C4.96356 10.9238 4.95984 10.7978 4.95984 10.6711C4.95984 6.9863 7.93069 3.9985 11.5952 3.9985C12.7048 3.9985 13.7503 4.27297 14.6697 4.75737C16.6404 1.88388 19.936 0 23.6694 0Z" fill="#F26135"/>
<path d="M53.6654 26C52.0614 26 50.7284 25.7735 49.6666 25.3202C48.6048 24.867 47.8105 24.2755 47.2834 23.5457C46.7564 22.8158 46.4776 22.0438 46.4471 21.2295C46.4471 21.0912 46.4928 20.976 46.5845 20.8838C46.6762 20.7916 46.7908 20.7456 46.9282 20.7456H50.5718C50.7857 20.7456 50.9537 20.78 51.076 20.8493C51.1982 20.9184 51.328 21.0143 51.4656 21.1373C51.603 21.3064 51.7634 21.4638 51.9468 21.6098C52.1301 21.7556 52.367 21.8709 52.6572 21.9555C52.9474 22.04 53.2835 22.0821 53.6654 22.0821C54.3682 22.0821 54.9105 21.9862 55.2924 21.7942C55.6744 21.6021 55.8654 21.3371 55.8654 20.9991C55.8654 20.7379 55.7622 20.5228 55.5559 20.3537C55.3498 20.1848 55.0022 20.0311 54.5133 19.8929C54.0245 19.7545 53.3598 19.6087 52.5196 19.455C51.3434 19.2552 50.3274 18.9594 49.4719 18.5677C48.6163 18.1758 47.9633 17.6457 47.5125 16.9775C47.0619 16.3092 46.8366 15.4833 46.8366 14.5001C46.8366 13.5014 47.1155 12.618 47.6729 11.8497C48.2306 11.0816 49.0097 10.4822 50.0103 10.0521C51.0111 9.62189 52.1759 9.40677 53.505 9.40677C54.6049 9.40677 55.5789 9.55279 56.4267 9.84466C57.2746 10.1365 57.9889 10.5168 58.5693 10.9855C59.1499 11.4541 59.5929 11.9572 59.8985 12.495C60.2041 13.0328 60.3644 13.5474 60.3798 14.0391C60.3798 14.1773 60.33 14.2965 60.2307 14.3963C60.1315 14.4962 60.0207 14.5461 59.8985 14.5461H56.0715C55.8882 14.5461 55.7356 14.5154 55.6133 14.4539C55.4911 14.3924 55.3689 14.2926 55.2466 14.1544C55.1702 13.9393 54.9792 13.7472 54.6738 13.5781C54.3682 13.4092 53.9786 13.3246 53.505 13.3246C52.9855 13.3246 52.5885 13.4129 52.3135 13.5897C52.0384 13.7664 51.901 14.0237 51.901 14.3617C51.901 14.5923 51.9849 14.7919 52.1531 14.9609C52.3211 15.13 52.619 15.2797 53.0467 15.4103C53.4745 15.5409 54.0703 15.683 54.8342 15.8366C56.2854 16.0518 57.4579 16.3591 58.3517 16.7586C59.2455 17.1579 59.8985 17.6804 60.3109 18.3257C60.7235 18.9709 60.9297 19.7776 60.9297 20.7456C60.9297 21.8364 60.6165 22.7735 59.9901 23.5571C59.3638 24.3407 58.5045 24.9438 57.4122 25.3663C56.3199 25.7888 55.0709 26 53.6654 26ZM63.4963 25.7696C63.3435 25.7696 63.206 25.7158 63.0837 25.6083C62.9617 25.5007 62.9005 25.3548 62.9005 25.1704V10.2365C62.9005 10.0674 62.9617 9.9253 63.0837 9.81018C63.206 9.6949 63.3435 9.63734 63.4963 9.63734H67.2314C67.3996 9.63734 67.5409 9.6949 67.6555 9.81018C67.77 9.9253 67.8274 10.0674 67.8274 10.2365V15.4449H72.5022V10.2365C72.5022 10.0674 72.5631 9.9253 72.6854 9.81018C72.8076 9.6949 72.9452 9.63734 73.098 9.63734H76.8331C77.0012 9.63734 77.1425 9.6949 77.2572 9.81018C77.3717 9.9253 77.429 10.0674 77.429 10.2365V25.1704C77.429 25.3394 77.3717 25.4815 77.2572 25.5968C77.1425 25.712 77.0012 25.7696 76.8331 25.7696H73.098C72.9452 25.7696 72.8076 25.712 72.6854 25.5968C72.5631 25.4815 72.5022 25.3394 72.5022 25.1704V19.8236H67.8274V25.1704C67.8274 25.3394 67.77 25.4815 67.6555 25.5968C67.5409 25.712 67.3996 25.7696 67.2314 25.7696H63.4963ZM80.8893 25.7696C80.7365 25.7696 80.5989 25.712 80.4767 25.5968C80.3546 25.4815 80.2935 25.3394 80.2935 25.1704V10.2365C80.2935 10.0674 80.3546 9.9253 80.4767 9.81018C80.5989 9.6949 80.7365 9.63734 80.8893 9.63734H92.118C92.2859 9.63734 92.4311 9.6949 92.5534 9.81018C92.6756 9.9253 92.7367 10.0674 92.7367 10.2365V12.9559C92.7367 13.1095 92.6756 13.2479 92.5534 13.3708C92.4311 13.4936 92.2859 13.555 92.118 13.555H85.037V15.8366H91.6138C91.7818 15.8366 91.927 15.8944 92.0492 16.0095C92.1715 16.1248 92.2326 16.2669 92.2326 16.4358V18.9249C92.2326 19.0939 92.1715 19.236 92.0492 19.3513C91.927 19.4664 91.7818 19.5241 91.6138 19.5241H85.037V21.8517H92.3013C92.4693 21.8517 92.6145 21.9132 92.7367 22.0361C92.8589 22.159 92.92 22.3051 92.92 22.474V25.1704C92.92 25.3394 92.8589 25.4815 92.7367 25.5968C92.6145 25.712 92.4693 25.7696 92.3013 25.7696H80.8893ZM95.8532 25.7696C95.7004 25.7696 95.5628 25.712 95.4406 25.5968C95.3185 25.4815 95.2574 25.3394 95.2574 25.1704V10.2365C95.2574 10.0674 95.3185 9.9253 95.4406 9.81018C95.5628 9.6949 95.7004 9.63734 95.8532 9.63734H106.898C107.066 9.63734 107.212 9.6949 107.334 9.81018C107.456 9.9253 107.517 10.0674 107.517 10.2365V13.1633C107.517 13.317 107.456 13.4552 107.334 13.5781C107.212 13.701 107.066 13.7625 106.898 13.7625H100.093V16.2976H106.44C106.608 16.2976 106.753 16.3552 106.876 16.4705C106.998 16.5857 107.059 16.7279 107.059 16.8968V19.8007C107.059 19.9696 106.998 20.1117 106.876 20.227C106.753 20.3422 106.608 20.3999 106.44 20.3999H100.093V25.1704C100.093 25.3394 100.035 25.4815 99.9207 25.5968C99.8061 25.712 99.6648 25.7696 99.4968 25.7696H95.8532ZM110.336 25.7696C110.183 25.7696 110.046 25.712 109.923 25.5968C109.801 25.4815 109.74 25.3394 109.74 25.1704V10.2365C109.74 10.0674 109.801 9.9253 109.923 9.81018C110.046 9.6949 110.183 9.63734 110.336 9.63734H121.381C121.549 9.63734 121.694 9.6949 121.817 9.81018C121.939 9.9253 122 10.0674 122 10.2365V13.1633C122 13.317 121.939 13.4552 121.817 13.5781C121.694 13.701 121.549 13.7625 121.381 13.7625H114.575V16.2976H120.923C121.091 16.2976 121.236 16.3552 121.358 16.4705C121.481 16.5857 121.542 16.7279 121.542 16.8968V19.8007C121.542 19.9696 121.481 20.1117 121.358 20.227C121.236 20.3422 121.091 20.3999 120.923 20.3999H114.575V25.1704C114.575 25.3394 114.518 25.4815 114.403 25.5968C114.289 25.712 114.148 25.7696 113.98 25.7696H110.336Z" fill="#F26135"/>
</symbol>
<symbol id="logo2" viewBox="0 0 122 26">
<path fill-rule="evenodd" clip-rule="evenodd" d="M23.6694 0C29.2379 0 33.8335 4.19006 34.5093 9.60611C37.5887 10.8365 39.766 13.8601 39.766 17.395C39.766 22.0221 36.0361 25.7733 31.4355 25.7733L31.4159 25.7732H27.4611C27.4611 22.0481 27.4612 18.323 27.4612 14.598H31.3115C31.4507 14.598 31.5739 14.5464 31.6764 14.4432C31.7787 14.3404 31.83 14.2181 31.83 14.0763V10.136C31.83 9.99441 31.7781 9.87116 31.6764 9.76905C31.5748 9.6666 31.4523 9.61456 31.3115 9.61456C26.7982 9.61456 22.2855 9.61456 17.7723 9.61456C17.6315 9.61456 17.5089 9.6666 17.4072 9.76905C17.3057 9.87116 17.2536 9.99766 17.2536 10.136V14.0763C17.2536 14.2165 17.305 14.3404 17.4072 14.4432C17.5099 14.5464 17.6329 14.598 17.7723 14.598H21.5357V25.7732H15.4826C15.4826 20.5917 15.4826 15.4101 15.4826 10.2287C15.4826 10.0591 15.4213 9.91294 15.2986 9.78969C15.1763 9.6666 15.031 9.60498 14.8624 9.60498H10.1774C10.0088 9.60498 9.86341 9.6666 9.74086 9.78969C9.61814 9.91294 9.55719 10.0591 9.55719 10.2287C9.55719 15.4101 9.55719 20.5917 9.55719 25.7732H7.55931L7.54638 25.7733C3.37878 25.7733 0 22.3753 0 18.1839C0 14.9027 2.07111 12.1076 4.97051 11.0487C4.96356 10.9238 4.95984 10.7978 4.95984 10.6711C4.95984 6.9863 7.93069 3.9985 11.5952 3.9985C12.7048 3.9985 13.7503 4.27297 14.6697 4.75737C16.6404 1.88388 19.936 0 23.6694 0Z" fill="#5C5C5C"/>
<path d="M53.6654 26C52.0614 26 50.7284 25.7735 49.6666 25.3202C48.6048 24.867 47.8105 24.2755 47.2834 23.5457C46.7564 22.8158 46.4776 22.0438 46.4471 21.2295C46.4471 21.0912 46.4928 20.976 46.5845 20.8838C46.6762 20.7916 46.7908 20.7456 46.9282 20.7456H50.5718C50.7857 20.7456 50.9537 20.78 51.076 20.8493C51.1982 20.9184 51.328 21.0143 51.4656 21.1373C51.603 21.3064 51.7634 21.4638 51.9468 21.6098C52.1301 21.7556 52.367 21.8709 52.6572 21.9555C52.9474 22.04 53.2835 22.0821 53.6654 22.0821C54.3682 22.0821 54.9105 21.9862 55.2924 21.7942C55.6744 21.6021 55.8654 21.3371 55.8654 20.9991C55.8654 20.7379 55.7622 20.5228 55.5559 20.3537C55.3498 20.1848 55.0022 20.0311 54.5133 19.8929C54.0245 19.7545 53.3598 19.6087 52.5196 19.455C51.3434 19.2552 50.3274 18.9594 49.4719 18.5677C48.6163 18.1758 47.9633 17.6457 47.5125 16.9775C47.0619 16.3092 46.8366 15.4833 46.8366 14.5001C46.8366 13.5014 47.1155 12.618 47.6729 11.8497C48.2306 11.0816 49.0097 10.4822 50.0103 10.0521C51.0111 9.62189 52.1759 9.40677 53.505 9.40677C54.6049 9.40677 55.5789 9.55279 56.4267 9.84466C57.2746 10.1365 57.9889 10.5168 58.5693 10.9855C59.1499 11.4541 59.5929 11.9572 59.8985 12.495C60.2041 13.0328 60.3644 13.5474 60.3798 14.0391C60.3798 14.1773 60.33 14.2965 60.2307 14.3963C60.1315 14.4962 60.0207 14.5461 59.8985 14.5461H56.0715C55.8882 14.5461 55.7356 14.5154 55.6133 14.4539C55.4911 14.3924 55.3689 14.2926 55.2466 14.1544C55.1702 13.9393 54.9792 13.7472 54.6738 13.5781C54.3682 13.4092 53.9786 13.3246 53.505 13.3246C52.9855 13.3246 52.5885 13.4129 52.3135 13.5897C52.0384 13.7664 51.901 14.0237 51.901 14.3617C51.901 14.5923 51.9849 14.7919 52.1531 14.9609C52.3211 15.13 52.619 15.2797 53.0467 15.4103C53.4745 15.5409 54.0703 15.683 54.8342 15.8366C56.2854 16.0518 57.4579 16.3591 58.3517 16.7586C59.2455 17.1579 59.8985 17.6804 60.3109 18.3257C60.7235 18.9709 60.9297 19.7776 60.9297 20.7456C60.9297 21.8364 60.6165 22.7735 59.9901 23.5571C59.3638 24.3407 58.5045 24.9438 57.4122 25.3663C56.3199 25.7888 55.0709 26 53.6654 26ZM63.4963 25.7696C63.3435 25.7696 63.206 25.7158 63.0837 25.6083C62.9617 25.5007 62.9005 25.3548 62.9005 25.1704V10.2365C62.9005 10.0674 62.9617 9.9253 63.0837 9.81018C63.206 9.6949 63.3435 9.63734 63.4963 9.63734H67.2314C67.3996 9.63734 67.5409 9.6949 67.6555 9.81018C67.77 9.9253 67.8274 10.0674 67.8274 10.2365V15.4449H72.5022V10.2365C72.5022 10.0674 72.5631 9.9253 72.6854 9.81018C72.8076 9.6949 72.9452 9.63734 73.098 9.63734H76.8331C77.0012 9.63734 77.1425 9.6949 77.2572 9.81018C77.3717 9.9253 77.429 10.0674 77.429 10.2365V25.1704C77.429 25.3394 77.3717 25.4815 77.2572 25.5968C77.1425 25.712 77.0012 25.7696 76.8331 25.7696H73.098C72.9452 25.7696 72.8076 25.712 72.6854 25.5968C72.5631 25.4815 72.5022 25.3394 72.5022 25.1704V19.8236H67.8274V25.1704C67.8274 25.3394 67.77 25.4815 67.6555 25.5968C67.5409 25.712 67.3996 25.7696 67.2314 25.7696H63.4963ZM80.8893 25.7696C80.7365 25.7696 80.5989 25.712 80.4767 25.5968C80.3546 25.4815 80.2935 25.3394 80.2935 25.1704V10.2365C80.2935 10.0674 80.3546 9.9253 80.4767 9.81018C80.5989 9.6949 80.7365 9.63734 80.8893 9.63734H92.118C92.2859 9.63734 92.4311 9.6949 92.5534 9.81018C92.6756 9.9253 92.7367 10.0674 92.7367 10.2365V12.9559C92.7367 13.1095 92.6756 13.2479 92.5534 13.3708C92.4311 13.4936 92.2859 13.555 92.118 13.555H85.037V15.8366H91.6138C91.7818 15.8366 91.927 15.8944 92.0492 16.0095C92.1715 16.1248 92.2326 16.2669 92.2326 16.4358V18.9249C92.2326 19.0939 92.1715 19.236 92.0492 19.3513C91.927 19.4664 91.7818 19.5241 91.6138 19.5241H85.037V21.8517H92.3013C92.4693 21.8517 92.6145 21.9132 92.7367 22.0361C92.8589 22.159 92.92 22.3051 92.92 22.474V25.1704C92.92 25.3394 92.8589 25.4815 92.7367 25.5968C92.6145 25.712 92.4693 25.7696 92.3013 25.7696H80.8893ZM95.8532 25.7696C95.7004 25.7696 95.5628 25.712 95.4406 25.5968C95.3185 25.4815 95.2574 25.3394 95.2574 25.1704V10.2365C95.2574 10.0674 95.3185 9.9253 95.4406 9.81018C95.5628 9.6949 95.7004 9.63734 95.8532 9.63734H106.898C107.066 9.63734 107.212 9.6949 107.334 9.81018C107.456 9.9253 107.517 10.0674 107.517 10.2365V13.1633C107.517 13.317 107.456 13.4552 107.334 13.5781C107.212 13.701 107.066 13.7625 106.898 13.7625H100.093V16.2976H106.44C106.608 16.2976 106.753 16.3552 106.876 16.4705C106.998 16.5857 107.059 16.7279 107.059 16.8968V19.8007C107.059 19.9696 106.998 20.1117 106.876 20.227C106.753 20.3422 106.608 20.3999 106.44 20.3999H100.093V25.1704C100.093 25.3394 100.035 25.4815 99.9207 25.5968C99.8061 25.712 99.6648 25.7696 99.4968 25.7696H95.8532ZM110.336 25.7696C110.183 25.7696 110.046 25.712 109.923 25.5968C109.801 25.4815 109.74 25.3394 109.74 25.1704V10.2365C109.74 10.0674 109.801 9.9253 109.923 9.81018C110.046 9.6949 110.183 9.63734 110.336 9.63734H121.381C121.549 9.63734 121.694 9.6949 121.817 9.81018C121.939 9.9253 122 10.0674 122 10.2365V13.1633C122 13.317 121.939 13.4552 121.817 13.5781C121.694 13.701 121.549 13.7625 121.381 13.7625H114.575V16.2976H120.923C121.091 16.2976 121.236 16.3552 121.358 16.4705C121.481 16.5857 121.542 16.7279 121.542 16.8968V19.8007C121.542 19.9696 121.481 20.1117 121.358 20.227C121.236 20.3422 121.091 20.3999 120.923 20.3999H114.575V25.1704C114.575 25.3394 114.518 25.4815 114.403 25.5968C114.289 25.712 114.148 25.7696 113.98 25.7696H110.336Z" fill="#5C5C5C"/>
</symbol>
<symbol id="mail" viewBox="0 0 20 20">
<path d="M2.00022 2H18.0002C18.236 2 18.4621 2.09365 18.6288 2.26035C18.7955 2.42705 18.8891 2.65314 18.8891 2.88889V17.1111C18.8891 17.3469 18.7955 17.573 18.6288 17.7397C18.4621 17.9064 18.236 18 18.0002 18H2.00022C1.76447 18 1.53838 17.9064 1.37168 17.7397C1.20498 17.573 1.11133 17.3469 1.11133 17.1111V2.88889C1.11133 2.65314 1.20498 2.42705 1.37168 2.26035C1.53838 2.09365 1.76447 2 2.00022 2ZM10.0536 9.71822L4.35399 4.87822L3.20288 6.23289L10.0651 12.0596L16.8038 6.22844L15.6411 4.88356L10.0536 9.71822Z" fill="#F26135"/>
</symbol>
<symbol id="minus1" viewBox="0 0 20 20">
<path d="M2 10H18" stroke="#424242" stroke-width="2" stroke-linecap="round"/>
</symbol>
<symbol id="notification" viewBox="0 0 24 24">
<path d="M13.73 21.0034C13.5542 21.3065 13.3019 21.5581 12.9982 21.733C12.6946 21.9079 12.3504 22 12 22C11.6496 22 11.3054 21.9079 11.0018 21.733C10.6982 21.5581 10.4458 21.3065 10.27 21.0034M18 8.00106C18 6.40948 17.3679 4.88309 16.2426 3.75767C15.1174 2.63225 13.5913 2 12 2C10.4087 2 8.88258 2.63225 7.75736 3.75767C6.63214 4.88309 6 6.40948 6 8.00106C6 15.0023 3 17.0027 3 17.0027H21C21 17.0027 18 15.0023 18 8.00106Z" stroke="#424242" stroke-width="2" stroke-linecap="round" stroke-linejoin="round"/>
</symbol>
<symbol id="phone1" viewBox="0 0 20 20">
<path d="M13.5568 12.5476L13.1018 13.0273C13.1018 13.0273 12.0188 14.1666 9.0638 11.0557C6.10882 7.94486 7.19181 6.80555 7.19181 6.80555L7.47781 6.50273C8.18481 5.75943 8.25181 4.56507 7.63481 3.69259L6.37482 1.91057C5.61082 0.830565 4.13584 0.687623 3.26084 1.60881L1.69085 3.26059C1.25785 3.718 0.967856 4.30883 1.00286 4.9653C1.09286 6.64567 1.81085 10.2595 5.81482 14.4757C10.0618 18.9461 14.0468 19.124 15.6758 18.9631C16.1918 18.9122 16.6398 18.6348 17.0007 18.2536L18.4207 16.7586C19.3807 15.7495 19.1107 14.0183 17.8827 13.3121L15.9728 12.212C15.1668 11.7492 14.1868 11.8848 13.5568 12.5476Z" fill="#F26135"/>
</symbol>
<symbol id="plus1" viewBox="0 0 16 16">
<path d="M8 2V14M2 8H14" stroke="#F26135" stroke-width="1.5" stroke-linecap="round"/>
</symbol>
<symbol id="plus2" viewBox="0 0 20 20">
<path d="M10 2V18M2 10H18" stroke="#424242" stroke-width="2" stroke-linecap="round"/>
</symbol>
<symbol id="service1" viewBox="0 0 24 24">
<path d="M2.09961 5.4L5.39961 1H18.5996L21.8996 5.4M2.09961 5.4V20.8C2.09961 21.3835 2.33139 21.9431 2.74397 22.3556C3.15655 22.7682 3.71613 23 4.29961 23H19.6996C20.2831 23 20.8427 22.7682 21.2552 22.3556C21.6678 21.9431 21.8996 21.3835 21.8996 20.8V5.4M2.09961 5.4H21.8996M16.3996 9.8C16.3996 10.967 15.936 12.0861 15.1109 12.9113C14.2857 13.7364 13.1666 14.2 11.9996 14.2C10.8327 14.2 9.7135 13.7364 8.88834 12.9113C8.06318 12.0861 7.59961 10.967 7.59961 9.8" stroke="#424242" stroke-linecap="round" stroke-linejoin="round"/>
</symbol>
<symbol id="support1" viewBox="0 0 24 24">
<path d="M11.6 14.1C11.5 10.9 14.8 12 14.8 9.4C14.8 7.5 13.8 6.6 12.3 6.4C11.3 6.2 8.8 6.9 8.9 9.3M11.6 16.8V17M23 12C23 18.1 18.1 23 12 23C10 23 8.1 22.5 6.5 21.5L1 23L2.7 17.9C1.6 16.2 1 14.2 1 12C1 5.9 5.9 1 12 1C18.1 1 23 5.9 23 12Z" stroke="#424242" stroke-linecap="round" stroke-linejoin="round"/>
</symbol>
<symbol id="support2" viewBox="0 0 24 24">
<path d="M11.6 14.1C11.5 10.9 14.8 12 14.8 9.4C14.8 7.5 13.8 6.6 12.3 6.4C11.3 6.2 8.8 6.9 8.9 9.3M11.6 16.8V17M23 12C23 18.1 18.1 23 12 23C10 23 8.1 22.5 6.5 21.5L1 23L2.7 17.9C1.6 16.2 1 14.2 1 12C1 5.9 5.9 1 12 1C18.1 1 23 5.9 23 12Z" stroke="#424242" stroke-width="1.5" stroke-linecap="round" stroke-linejoin="round"/>
</symbol>
<symbol id="users1" viewBox="0 0 24 24">
<path d="M21.7782 23V20.5556C21.7782 19.2589 21.2631 18.0154 20.3463 17.0986C19.4294 16.1817 18.1859 15.6667 16.8893 15.6667H7.11155C5.81493 15.6667 4.57142 16.1817 3.65458 17.0986C2.73773 18.0154 2.22266 19.2589 2.22266 20.5556V23M16.8893 5.88889C16.8893 8.58895 14.7005 10.7778 12.0004 10.7778C9.30038 10.7778 7.11155 8.58895 7.11155 5.88889C7.11155 3.18883 9.30038 1 12.0004 1C14.7005 1 16.8893 3.18883 16.8893 5.88889Z" stroke="#424242" stroke-linecap="round" stroke-linejoin="round"/>
</symbol>
<symbol id="users2" viewBox="0 0 24 24">
<path d="M21.7782 23V20.5556C21.7782 19.2589 21.2631 18.0154 20.3463 17.0986C19.4294 16.1817 18.1859 15.6667 16.8893 15.6667H7.11155C5.81493 15.6667 4.57142 16.1817 3.65458 17.0986C2.73773 18.0154 2.22266 19.2589 2.22266 20.5556V23M16.8893 5.88889C16.8893 8.58895 14.7005 10.7778 12.0004 10.7778C9.30038 10.7778 7.11155 8.58895 7.11155 5.88889C7.11155 3.18883 9.30038 1 12.0004 1C14.7005 1 16.8893 3.18883 16.8893 5.88889Z" stroke="#424242" stroke-width="1.5" stroke-linecap="round" stroke-linejoin="round"/>
</symbol>
<symbol id="youtube" viewBox="0 0 36 36">
<mask id="path-1-inside-1_4601_1206" fill="white">
<path d="M18 4.5C18 4.5 29.2498 4.50004 32.0645 5.30566C32.829 5.52753 33.5254 5.95925 34.084 6.55762C34.6425 7.15603 35.0435 7.90053 35.2471 8.71582C35.9997 11.7251 36 18 36 18C36 18.002 35.9996 24.2754 35.2471 27.2842C35.0435 28.0995 34.6425 28.844 34.084 29.4424C33.5254 30.0408 32.829 30.4725 32.0645 30.6943C29.2498 31.5 18 31.5 18 31.5C18 31.5 6.75023 31.5 3.93555 30.6943C3.17102 30.4725 2.47456 30.0408 1.91602 29.4424C1.35746 28.844 0.956461 28.0995 0.75293 27.2842C0.000387586 24.2754 1.86025e-08 18.002 0 18C0 18 0.000269737 11.7251 0.75293 8.71582C0.956461 7.90053 1.35746 7.15603 1.91602 6.55762C2.47456 5.95925 3.17102 5.52753 3.93555 5.30566C6.75023 4.50004 18 4.5 18 4.5ZM13.5 24L25.5 18L13.5 12V24Z"/>
</mask>
<path d="M18 4.5C18 4.5 29.2498 4.50004 32.0645 5.30566C32.829 5.52753 33.5254 5.95925 34.084 6.55762C34.6425 7.15603 35.0435 7.90053 35.2471 8.71582C35.9997 11.7251 36 18 36 18C36 18.002 35.9996 24.2754 35.2471 27.2842C35.0435 28.0995 34.6425 28.844 34.084 29.4424C33.5254 30.0408 32.829 30.4725 32.0645 30.6943C29.2498 31.5 18 31.5 18 31.5C18 31.5 6.75023 31.5 3.93555 30.6943C3.17102 30.4725 2.47456 30.0408 1.91602 29.4424C1.35746 28.844 0.956461 28.0995 0.75293 27.2842C0.000387586 24.2754 1.86025e-08 18.002 0 18C0 18 0.000269737 11.7251 0.75293 8.71582C0.956461 7.90053 1.35746 7.15603 1.91602 6.55762C2.47456 5.95925 3.17102 5.52753 3.93555 5.30566C6.75023 4.50004 18 4.5 18 4.5ZM13.5 24L25.5 18L13.5 12V24Z" fill="#F26135"/>
<path d="M18 4.5L18 4.00099H18L18 4.5ZM32.0645 5.30566L32.2035 4.82643L32.2018 4.82592L32.0645 5.30566ZM34.084 6.55762L34.4488 6.21712L34.4488 6.21711L34.084 6.55762ZM35.2471 8.71582L34.7629 8.83668L34.763 8.8369L35.2471 8.71582ZM36 18L36.499 18V18L36 18ZM35.2471 27.2842L34.763 27.1631L34.7629 27.1633L35.2471 27.2842ZM34.084 29.4424L34.4488 29.7829L34.4488 29.7829L34.084 29.4424ZM32.0645 30.6943L32.2018 31.1741L32.2035 31.1736L32.0645 30.6943ZM18 31.5L18 31.999H18L18 31.5ZM3.93555 30.6943L3.79647 31.1736L3.79823 31.1741L3.93555 30.6943ZM1.91602 29.4424L1.55122 29.7829L1.55123 29.7829L1.91602 29.4424ZM0.75293 27.2842L1.23708 27.1633L1.23703 27.1631L0.75293 27.2842ZM0 18L-0.499008 18V18L0 18ZM0.75293 8.71582L1.23703 8.8369L1.23708 8.83668L0.75293 8.71582ZM1.91602 6.55762L1.55123 6.21711L1.55122 6.21712L1.91602 6.55762ZM3.93555 5.30566L3.79823 4.82592L3.79647 4.82643L3.93555 5.30566ZM13.5 24H13.001V24.8074L13.7232 24.4463L13.5 24ZM25.5 18L25.7232 18.4463L26.6158 18L25.7232 17.5537L25.5 18ZM13.5 12L13.7232 11.5537L13.001 11.1926V12H13.5ZM18 4.5C18 4.99901 18 4.99901 18.0001 4.99901C18.0002 4.99901 18.0003 4.99901 18.0004 4.99901C18.0008 4.99901 18.0012 4.99901 18.0019 4.99901C18.0032 4.99901 18.0052 4.99901 18.0079 4.99901C18.0132 4.99901 18.0212 4.99902 18.0318 4.99903C18.053 4.99906 18.0845 4.99911 18.1258 4.9992C18.2085 4.9994 18.3303 4.99979 18.4864 5.00058C18.7986 5.00215 19.2479 5.00529 19.796 5.01157C20.8925 5.02414 22.3831 5.04926 23.9608 5.09948C25.5394 5.14972 27.201 5.22496 28.6406 5.3374C30.0949 5.451 31.2783 5.59968 31.9271 5.78541L32.0645 5.30566L32.2018 4.82592C31.4433 4.60883 30.1649 4.45541 28.7183 4.34241C27.2569 4.22827 25.5783 4.15244 23.9926 4.10197C22.4061 4.05147 20.9083 4.02624 19.8075 4.01362C19.2569 4.00731 18.8054 4.00415 18.4914 4.00257C18.3344 4.00178 18.2117 4.00139 18.1282 4.00119C18.0865 4.00109 18.0545 4.00104 18.0329 4.00102C18.0222 4.001 18.014 4.001 18.0084 4.001C18.0057 4.00099 18.0036 4.00099 18.0022 4.00099C18.0015 4.00099 18.001 4.00099 18.0006 4.00099C18.0004 4.00099 18.0003 4.00099 18.0002 4.00099C18.0001 4.00099 18 4.00099 18 4.5ZM32.0645 5.30566L31.9254 5.7849C32.601 5.98098 33.2202 6.36355 33.7192 6.89812L34.084 6.55762L34.4488 6.21711C33.8307 5.55494 33.0569 5.07409 32.2035 4.82643L32.0645 5.30566ZM34.084 6.55762L33.7192 6.89811C34.2183 7.43285 34.5793 8.10115 34.7629 8.83668L35.2471 8.71582L35.7312 8.59496C35.5078 7.69991 35.0668 6.87922 34.4488 6.21712L34.084 6.55762ZM35.2471 8.71582L34.763 8.8369C35.126 10.2882 35.3131 12.5639 35.4074 14.5105C35.4541 15.4768 35.4776 16.3501 35.4893 16.9818C35.4951 17.2975 35.4981 17.5527 35.4995 17.7287C35.5003 17.8166 35.5006 17.8848 35.5008 17.9308C35.5009 17.9538 35.5009 17.9712 35.501 17.9829C35.501 17.9887 35.501 17.9931 35.501 17.9959C35.501 17.9974 35.501 17.9984 35.501 17.9991C35.501 17.9995 35.501 17.9997 35.501 17.9999C35.501 17.9999 35.501 18 35.501 18C35.501 18 35.501 18 36 18C36.499 18 36.499 17.9999 36.499 17.9998C36.499 17.9998 36.499 17.9997 36.499 17.9996C36.499 17.9993 36.499 17.999 36.499 17.9986C36.499 17.9978 36.499 17.9965 36.499 17.9949C36.499 17.9918 36.499 17.9871 36.499 17.9809C36.499 17.9686 36.4989 17.9505 36.4988 17.9268C36.4986 17.8794 36.4983 17.8098 36.4975 17.7203C36.496 17.5414 36.493 17.2828 36.4871 16.9633C36.4753 16.3244 36.4516 15.4409 36.4042 14.4623C36.3101 12.5191 36.1208 10.1528 35.7312 8.59474L35.2471 8.71582ZM36 18L35.501 18C35.501 17.9971 35.5009 19.557 35.4073 21.4904C35.3131 23.4368 35.1259 25.7121 34.763 27.1631L35.2471 27.2842L35.7312 27.4053C36.1208 25.8475 36.3101 23.4816 36.4042 21.5387C36.4989 19.5826 36.499 18.0048 36.499 18L36 18ZM35.2471 27.2842L34.7629 27.1633C34.5793 27.8989 34.2183 28.5672 33.7192 29.1019L34.084 29.4424L34.4488 29.7829C35.0668 29.1208 35.5078 28.3001 35.7312 27.405L35.2471 27.2842ZM34.084 29.4424L33.7192 29.1019C33.2202 29.6364 32.601 30.019 31.9254 30.2151L32.0645 30.6943L32.2035 31.1736C33.0569 30.9259 33.8307 30.4451 34.4488 29.7829L34.084 29.4424ZM32.0645 30.6943L31.9271 30.2146C31.2783 30.4003 30.0949 30.549 28.6406 30.6626C27.201 30.775 25.5394 30.8503 23.9608 30.9005C22.3831 30.9507 20.8925 30.9759 19.796 30.9884C19.2479 30.9947 18.7986 30.9979 18.4864 30.9994C18.3303 31.0002 18.2085 31.0006 18.1258 31.0008C18.0845 31.0009 18.053 31.0009 18.0318 31.001C18.0212 31.001 18.0132 31.001 18.0079 31.001C18.0052 31.001 18.0032 31.001 18.0019 31.001C18.0012 31.001 18.0008 31.001 18.0004 31.001C18.0003 31.001 18.0002 31.001 18.0001 31.001C18 31.001 18 31.001 18 31.5C18 31.999 18.0001 31.999 18.0002 31.999C18.0003 31.999 18.0004 31.999 18.0006 31.999C18.001 31.999 18.0015 31.999 18.0022 31.999C18.0036 31.999 18.0057 31.999 18.0084 31.999C18.014 31.999 18.0222 31.999 18.0329 31.999C18.0545 31.999 18.0865 31.9989 18.1282 31.9988C18.2117 31.9986 18.3344 31.9982 18.4914 31.9974C18.8054 31.9958 19.2569 31.9927 19.8075 31.9864C20.9083 31.9738 22.4061 31.9485 23.9926 31.898C25.5783 31.8476 27.2569 31.7717 28.7183 31.6576C30.1649 31.5446 31.4433 31.3912 32.2018 31.1741L32.0645 30.6943ZM18 31.5C18 31.001 18 31.001 17.9999 31.001C17.9998 31.001 17.9997 31.001 17.9996 31.001C17.9992 31.001 17.9988 31.001 17.9981 31.001C17.9968 31.001 17.9948 31.001 17.9921 31.001C17.9868 31.001 17.9788 31.001 17.9682 31.001C17.947 31.0009 17.9155 31.0009 17.8742 31.0008C17.7915 31.0006 17.6697 31.0002 17.5136 30.9994C17.2014 30.9979 16.7521 30.9947 16.204 30.9884C15.1075 30.9759 13.6169 30.9507 12.0392 30.9005C10.4606 30.8503 8.79902 30.775 7.35942 30.6626C5.90508 30.549 4.72175 30.4003 4.07286 30.2146L3.93555 30.6943L3.79823 31.1741C4.55669 31.3912 5.83508 31.5446 7.2817 31.6576C8.74307 31.7717 10.4217 31.8476 12.0074 31.898C13.5939 31.9485 15.0917 31.9738 16.1925 31.9864C16.7431 31.9927 17.1946 31.9958 17.5086 31.9974C17.6656 31.9982 17.7883 31.9986 17.8718 31.9988C17.9135 31.9989 17.9455 31.999 17.9671 31.999C17.9778 31.999 17.986 31.999 17.9916 31.999C17.9943 31.999 17.9964 31.999 17.9978 31.999C17.9985 31.999 17.999 31.999 17.9994 31.999C17.9996 31.999 17.9997 31.999 17.9998 31.999C17.9999 31.999 18 31.999 18 31.5ZM3.93555 30.6943L4.07462 30.2151C3.39896 30.019 2.77978 29.6364 2.2808 29.1019L1.91602 29.4424L1.55123 29.7829C2.16934 30.4451 2.94308 30.9259 3.79647 31.1736L3.93555 30.6943ZM1.91602 29.4424L2.28081 29.1019C1.78169 28.5672 1.4207 27.8989 1.23708 27.1633L0.75293 27.2842L0.26878 27.405C0.492221 28.3001 0.933229 29.1208 1.55122 29.7829L1.91602 29.4424ZM0.75293 27.2842L1.23703 27.1631C0.874101 25.7121 0.686933 23.4368 0.592686 21.4904C0.499071 19.557 0.499008 17.9971 0.499008 18L0 18L-0.499008 18C-0.499008 18.0048 -0.498877 19.5826 -0.404163 21.5387C-0.310081 23.4816 -0.120784 25.8475 0.268833 27.4053L0.75293 27.2842ZM0 18C0.499008 18 0.499008 18 0.499008 18C0.499008 18 0.499008 17.9999 0.499008 17.9999C0.499008 17.9997 0.499008 17.9995 0.499009 17.9991C0.499009 17.9984 0.49901 17.9974 0.499011 17.9959C0.499014 17.9931 0.49902 17.9887 0.499031 17.9829C0.499054 17.9712 0.4991 17.9538 0.499191 17.9308C0.499374 17.8848 0.49974 17.8166 0.500472 17.7287C0.501937 17.5527 0.504867 17.2975 0.510725 16.9818C0.522444 16.3501 0.545866 15.4768 0.592642 14.5105C0.686875 12.5639 0.874044 10.2882 1.23703 8.8369L0.75293 8.71582L0.268833 8.59474C-0.120844 10.1528 -0.31014 12.5191 -0.404207 14.4623C-0.451581 15.4409 -0.475268 16.3244 -0.48712 16.9633C-0.493048 17.2828 -0.496019 17.5414 -0.497509 17.7203C-0.498254 17.8098 -0.498629 17.8794 -0.498817 17.9268C-0.498912 17.9505 -0.498959 17.9686 -0.498983 17.9809C-0.498996 17.9871 -0.499002 17.9918 -0.499005 17.9949C-0.499006 17.9965 -0.499007 17.9978 -0.499008 17.9986C-0.499008 17.999 -0.499008 17.9993 -0.499008 17.9996C-0.499008 17.9997 -0.499008 17.9998 -0.499008 17.9998C-0.499008 17.9999 -0.499008 18 0 18ZM0.75293 8.71582L1.23708 8.83668C1.4207 8.10115 1.78169 7.43285 2.28081 6.89811L1.91602 6.55762L1.55122 6.21712C0.933229 6.87922 0.492221 7.69991 0.26878 8.59496L0.75293 8.71582ZM1.91602 6.55762L2.2808 6.89812C2.77978 6.36355 3.39896 5.98098 4.07462 5.7849L3.93555 5.30566L3.79647 4.82643C2.94308 5.07409 2.16934 5.55494 1.55123 6.21711L1.91602 6.55762ZM3.93555 5.30566L4.07286 5.78541C4.72175 5.59968 5.90508 5.451 7.35942 5.3374C8.79901 5.22496 10.4606 5.14972 12.0392 5.09948C13.6169 5.04926 15.1075 5.02414 16.204 5.01157C16.7521 5.00529 17.2014 5.00215 17.5136 5.00058C17.6697 4.99979 17.7915 4.9994 17.8742 4.9992C17.9155 4.99911 17.947 4.99906 17.9682 4.99903C17.9788 4.99902 17.9868 4.99901 17.9921 4.99901C17.9948 4.99901 17.9968 4.99901 17.9981 4.99901C17.9988 4.99901 17.9992 4.99901 17.9996 4.99901C17.9997 4.99901 17.9998 4.99901 17.9999 4.99901C18 4.99901 18 4.99901 18 4.5C18 4.00099 17.9999 4.00099 17.9998 4.00099C17.9997 4.00099 17.9996 4.00099 17.9994 4.00099C17.999 4.00099 17.9985 4.00099 17.9978 4.00099C17.9964 4.00099 17.9943 4.00099 17.9916 4.001C17.986 4.001 17.9778 4.001 17.9671 4.00102C17.9455 4.00104 17.9135 4.00109 17.8718 4.00119C17.7883 4.00139 17.6656 4.00178 17.5086 4.00257C17.1946 4.00415 16.7431 4.00731 16.1925 4.01362C15.0917 4.02624 13.5939 4.05147 12.0074 4.10197C10.4217 4.15244 8.74307 4.22827 7.2817 4.34241C5.83508 4.45541 4.55669 4.60883 3.79823 4.82592L3.93555 5.30566ZM13.5 24L13.7232 24.4463L25.7232 18.4463L25.5 18L25.2768 17.5537L13.2768 23.5537L13.5 24ZM25.5 18L25.7232 17.5537L13.7232 11.5537L13.5 12L13.2768 12.4463L25.2768 18.4463L25.5 18ZM13.5 12H13.001V24H13.5H13.999V12H13.5Z" fill="#F26135" mask="url(#path-1-inside-1_4601_1206)"/>
</symbol>
</svg>