<svg xmlns="http://www.w3.org/2000/svg">
<defs>
<clipPath id="a">
      <path fill="#fff" d="M0 0h20v20H0z"/>
    </clipPath>
</defs>
<symbol id="arrow1" viewBox="0 0 7 11">
  <path d="M1.332 0 0 1.292 4.327 5.5 0 9.707 1.332 11 7 5.5 1.332 0Z"/>
</symbol>
<symbol id="arrow2" viewBox="0 0 15 13">
  <path stroke="currentColor" stroke-linecap="round" stroke-width="2" d="m7.111 12 5.5-5.5-5.5-5.5M12 6.5H1"/>
</symbol>
<symbol id="arrow3" viewBox="0 0 8 14">
<path d="M1 13L7 7L1 1" stroke="#8C8C8C" stroke-width="2" stroke-linecap="round" stroke-linejoin="round"/>
</symbol>
<symbol id="arrow4" viewBox="0 0 11 11">
  <path d="m0 11 7.792-5.5L0 0v11ZM9.167 0v11H11V0H9.167Z"/>
</symbol>
<symbol id="attention" viewBox="0 0 12 12">
<path d="M11.5386 9.4529L7.06804 1.2187C6.94968 1.00124 6.77488 0.819715 6.56204 0.693235C6.3492 0.566754 6.1062 0.5 5.85861 0.5C5.61103 0.5 5.36802 0.566754 5.15518 0.693235C4.94234 0.819715 4.76754 1.00124 4.64919 1.2187L0.17408 9.4529C0.0569491 9.66314 -0.00303112 9.90041 0.000117903 10.1411C0.00326693 10.3817 0.0694352 10.6173 0.192027 10.8244C0.314619 11.0315 0.489353 11.2029 0.698811 11.3214C0.90827 11.44 1.14514 11.5015 1.3858 11.5H10.3268C10.5655 11.5002 10.8002 11.4384 11.0078 11.3205C11.2153 11.2027 11.3887 11.033 11.5109 10.8279C11.6331 10.6229 11.6999 10.3896 11.7048 10.1509C11.7096 9.9123 11.6523 9.6765 11.5386 9.46667V9.4529ZM5.17243 3.57789C5.17243 3.39529 5.24496 3.22017 5.37408 3.09106C5.50319 2.96195 5.67831 2.88941 5.86091 2.88941C6.0435 2.88941 6.21862 2.96195 6.34773 3.09106C6.47685 3.22017 6.54938 3.39529 6.54938 3.57789V6.74029C6.54938 6.92289 6.47685 7.09801 6.34773 7.22712C6.21862 7.35624 6.0435 7.42877 5.86091 7.42877C5.67831 7.42877 5.50319 7.35624 5.37408 7.22712C5.24496 7.09801 5.17243 6.92289 5.17243 6.74029V3.57789ZM5.87927 9.77878C5.72313 9.77878 5.57049 9.73248 5.44067 9.64573C5.31084 9.55898 5.20966 9.43569 5.1499 9.29143C5.09015 9.14718 5.07452 8.98845 5.10498 8.83531C5.13544 8.68217 5.21063 8.5415 5.32104 8.43109C5.43144 8.32069 5.57211 8.2455 5.72525 8.21504C5.87839 8.18458 6.03712 8.20021 6.18138 8.25996C6.32563 8.31971 6.44893 8.4209 6.53567 8.55072C6.62242 8.68055 6.66872 8.83318 6.66872 8.98932C6.66872 9.1987 6.58555 9.3995 6.43749 9.54755C6.28944 9.6956 6.08864 9.77878 5.87927 9.77878Z" fill="white"/>
</symbol>
<symbol id="cabinet-active" viewBox="0 0 24 24">
<path d="M2 15.75C2 14.3693 3.11929 13.25 4.5 13.25H8.25C9.63071 13.25 10.75 14.3693 10.75 15.75V19.5C10.75 20.8807 9.63071 22 8.25 22H4.5C3.11929 22 2 20.8807 2 19.5V15.75Z" fill="#1A1A1A"/>
<path d="M2 4.5C2 3.11929 3.11929 2 4.5 2H8.25C9.63071 2 10.75 3.11929 10.75 4.5V8.25C10.75 9.63071 9.63071 10.75 8.25 10.75H4.5C3.11929 10.75 2 9.63071 2 8.25V4.5Z" fill="#1A1A1A"/>
<path d="M13.25 15.75C13.25 14.3693 14.3693 13.25 15.75 13.25H19.5C20.8807 13.25 22 14.3693 22 15.75V19.5C22 20.8807 20.8807 22 19.5 22H15.75C14.3693 22 13.25 20.8807 13.25 19.5V15.75Z" fill="#1A1A1A"/>
<path d="M13.25 4.5C13.25 3.11929 14.3693 2 15.75 2H19.5C20.8807 2 22 3.11929 22 4.5V8.25C22 9.63071 20.8807 10.75 19.5 10.75H15.75C14.3693 10.75 13.25 9.63071 13.25 8.25V4.5Z" fill="#1A1A1A"/>
</symbol>
<symbol id="cabinet" viewBox="0 0 24 24">
<path d="M2 15.75C2 14.3693 3.11929 13.25 4.5 13.25H8.25C9.63071 13.25 10.75 14.3693 10.75 15.75V19.5C10.75 20.8807 9.63071 22 8.25 22H4.5C3.11929 22 2 20.8807 2 19.5V15.75Z" stroke="#424242" stroke-linecap="round" stroke-linejoin="round"/>
<path d="M2 4.5C2 3.11929 3.11929 2 4.5 2H8.25C9.63071 2 10.75 3.11929 10.75 4.5V8.25C10.75 9.63071 9.63071 10.75 8.25 10.75H4.5C3.11929 10.75 2 9.63071 2 8.25V4.5Z" stroke="#424242" stroke-linecap="round" stroke-linejoin="round"/>
<path d="M13.25 15.75C13.25 14.3693 14.3693 13.25 15.75 13.25H19.5C20.8807 13.25 22 14.3693 22 15.75V19.5C22 20.8807 20.8807 22 19.5 22H15.75C14.3693 22 13.25 20.8807 13.25 19.5V15.75Z" stroke="#424242" stroke-linecap="round" stroke-linejoin="round"/>
<path d="M13.25 4.5C13.25 3.11929 14.3693 2 15.75 2H19.5C20.8807 2 22 3.11929 22 4.5V8.25C22 9.63071 20.8807 10.75 19.5 10.75H15.75C14.3693 10.75 13.25 9.63071 13.25 8.25V4.5Z" stroke="#424242" stroke-linecap="round" stroke-linejoin="round"/>
</symbol>
<symbol id="calendar" viewBox="0 0 18 20">
  <path stroke="currentColor" stroke-linecap="round" stroke-linejoin="round" stroke-width="1.5" d="M1.75 6.664h14M3.56.75v1.543M13.75.75v1.543m3 2.7V16.05c0 1.491-1.194 2.7-2.667 2.7H3.417c-1.473 0-2.667-1.209-2.667-2.7V4.993c0-1.491 1.194-2.7 2.667-2.7h10.666c1.473 0 2.667 1.209 2.667 2.7Z"/>
</symbol>
<symbol id="card1" viewBox="0 0 20 20">
  <path stroke="currentColor" stroke-linecap="round" stroke-linejoin="round" stroke-width="2" d="M1.666 8.334h16.667m-15.152-5h13.636c.837 0 1.516.746 1.516 1.667v10c0 .92-.679 1.666-1.515 1.666H3.18c-.837 0-1.515-.746-1.515-1.666V5c0-.92.678-1.667 1.515-1.667Z"/>
</symbol>
<symbol id="check1" viewBox="0 0 18 16">
  <path stroke="currentColor" stroke-linecap="round" stroke-linejoin="round" stroke-width="2" d="m17 2.4-11 12-5-5.454"/>
</symbol>
<symbol id="check2" viewBox="0 0 10 9">
  <path stroke="currentColor" stroke-linecap="round" stroke-linejoin="round" stroke-width="2" d="M1 5.2 3.54 8 9 1"/>
</symbol>
<symbol id="close1" viewBox="0 0 20 20">
  <path stroke="currentColor" stroke-linecap="round" stroke-linejoin="round" stroke-width="2" d="m1 19 9-9m0 0 9-9m-9 9L1 1m9 9 9 9"/>
</symbol>
<symbol id="close2" viewBox="0 0 16 16">
  <path stroke="currentColor" stroke-linecap="round" stroke-linejoin="round" d="M8 14.667A6.667 6.667 0 1 0 8 1.334a6.667 6.667 0 0 0 0 13.333ZM10 6l-4 4m0-4 4 4"/>
</symbol>
<symbol id="coin" viewBox="0 0 33 33">
<path d="M10.2 9.4C9.64771 9.4 9.2 9.84771 9.2 10.4C9.2 10.9523 9.64771 11.4 10.2 11.4V10.4V9.4ZM22.2 11.4C22.7523 11.4 23.2 10.9523 23.2 10.4C23.2 9.84771 22.7523 9.4 22.2 9.4V10.4V11.4ZM10.2 13.1C9.64771 13.1 9.2 13.5477 9.2 14.1C9.2 14.6523 9.64771 15.1 10.2 15.1V14.1V13.1ZM22.1 15.1C22.6523 15.1 23.1 14.6523 23.1 14.1C23.1 13.5477 22.6523 13.1 22.1 13.1V14.1V15.1ZM15.2 23.8C15.2 24.3523 15.6477 24.8 16.2 24.8C16.7523 24.8 17.2 24.3523 17.2 23.8H16.2H15.2ZM31.4 16.2H30.4C30.4 24.0424 24.0424 30.4 16.2 30.4V31.4V32.4C25.147 32.4 32.4 25.147 32.4 16.2H31.4ZM16.2 31.4V30.4C8.35756 30.4 2 24.0424 2 16.2H1H0C0 25.147 7.25299 32.4 16.2 32.4V31.4ZM1 16.2H2C2 8.35756 8.35756 2 16.2 2V1V0C7.25299 0 0 7.25299 0 16.2H1ZM16.2 1V2C24.0424 2 30.4 8.35756 30.4 16.2H31.4H32.4C32.4 7.25299 25.147 0 16.2 0V1ZM10.2 10.4V11.4H22.2V10.4V9.4H10.2V10.4ZM16.2 23.8H17.2V14.3H16.2H15.2V23.8H16.2ZM10.2 14.1V15.1H16.15V14.1V13.1H10.2V14.1ZM16.15 14.1V15.1H22.1V14.1V13.1H16.15V14.1Z" fill="#424242"/>
</symbol>
<symbol id="database-icon" viewBox="0 0 54 56">
  <path d="M43.236 22.459c-1.158.65-2.052 1.24-3.027 1.687-3.21 1.524-6.623 2.235-10.118 2.682-6.46.813-12.9.61-19.26-.752-3.128-.67-6.135-1.646-8.857-3.678-.04.366-.102.59-.122.833 0 2.134 0 4.268-.02 6.402a2.45 2.45 0 0 0 1.015 2.032c.996.711 2.052 1.443 3.17 1.93 3.86 1.687 7.943 2.398 12.128 2.724 1.443.122 2.885.122 4.328.183.731.02 1.076.304 1.076.853 0 .59-.365.955-1.137.915-2.418-.122-4.856-.143-7.253-.488-2.418-.346-4.815-.955-7.192-1.524-1.99-.488-3.82-1.382-5.506-2.56-.142-.102-.325-.184-.63-.387v2.195c0 1.605.062 3.21-.02 4.816-.06 1.2.386 2.114 1.32 2.683 1.321.833 2.703 1.666 4.166 2.174 5.384 1.89 10.99 2.398 16.659 2.317.366 0 .731-.02 1.077 0 .467.04.812.305.833.813.02.528-.305.833-.813.935-.122.02-.264.02-.386.02-5.526.122-11.011-.244-16.354-1.809-2.012-.59-4.003-1.32-5.71-2.56-.71-.508-1.38-1.138-1.848-1.87-.406-.65-.711-1.524-.711-2.296-.061-10.771-.04-21.562-.04-32.353 0-1.626.873-2.805 2.071-3.74 1.687-1.28 3.617-2.113 5.648-2.723C12.315.552 17.008.063 21.782.003c4.998-.04 9.955.345 14.79 1.707 2.275.63 4.47 1.504 6.4 2.926 1.381 1.037 2.092 2.358 2.092 4.105-.02 4.898-.02 9.775-.02 14.673 0 .305 0 .59-.02.894-.061.732-.366 1.077-.915 1.077-.528 0-.873-.386-.894-1.077 0-.569.02-1.117.02-1.85Zm-20.58-7.845c4.57-.02 9.101-.487 13.51-1.727 2.174-.61 4.327-1.341 6.074-2.906 1.26-1.118 1.32-2.48.02-3.516a14.626 14.626 0 0 0-2.986-1.849c-3.494-1.565-7.212-2.215-10.97-2.58a62.312 62.312 0 0 0-11.682 0c-3.312.304-6.583.853-9.67 2.092-1.423.57-2.804 1.3-4.023 2.215-1.483 1.118-1.382 2.5.02 3.72.203.162.406.324.63.467 1.585 1.097 3.352 1.788 5.18 2.296 4.551 1.28 9.204 1.768 13.897 1.788Zm20.478-2.865c-.284.142-.467.264-.65.346-1.361.65-2.661 1.442-4.063 1.93-3.8 1.341-7.74 1.971-11.743 2.215-4.733.285-9.447.163-14.1-.711-3.636-.63-7.211-1.483-10.32-3.638-.08-.06-.223-.04-.406-.08 0 2.113.081 4.145-.02 6.177-.082 1.463.487 2.48 1.625 3.231.67.447 1.361.955 2.113 1.24 1.828.69 3.677 1.402 5.587 1.829 5.505 1.24 11.092 1.504 16.7.975 3.23-.305 6.44-.833 9.507-1.93 1.666-.61 3.312-1.26 4.673-2.439.65-.569 1.178-1.24 1.178-2.174v-6.097c0-.264-.04-.508-.08-.874Zm-8.289 19.875c.59-.244 1.118-.467 1.727-.731.142-.732.325-1.464.467-2.216.122-.69.529-1.036 1.199-1.036 1.178-.02 2.357-.04 3.515 0 .873.04 1.097.285 1.28 1.179l.426 2.073c.57.244 1.118.487 1.747.752a50.882 50.882 0 0 1 1.544-1.057c.955-.63 1.321-.63 2.134.122a23.014 23.014 0 0 1 2.173 2.276c.712.833.67.996.02 1.95-.345.509-.67 1.037-1.035 1.586.203.528.406 1.036.63 1.626.69.142 1.422.264 2.133.406.833.163 1.097.386 1.137 1.22.061 1.24.02 2.458 0 3.698-.02.63-.325 1.016-.995 1.138-.732.122-1.443.285-2.235.447-.203.529-.427 1.057-.65 1.687.386.59.772 1.22 1.199 1.829.365.528.406 1.057-.041 1.524-.853.894-1.707 1.768-2.6 2.642-.488.467-1.016.467-1.585.061s-1.178-.793-1.829-1.22c-.568.245-1.158.488-1.767.753-.142.752-.305 1.463-.427 2.194-.122.63-.447 1.017-1.117 1.017-1.24.02-2.458.02-3.698 0-.63 0-1.036-.305-1.137-.976-.122-.732-.305-1.443-.468-2.235-.528-.244-1.097-.488-1.706-.773-.63.427-1.28.834-1.89 1.28-.528.387-1.036.387-1.503-.06-.914-.915-1.828-1.83-2.702-2.785-.386-.406-.366-.894-.04-1.361.426-.63.853-1.28 1.259-1.89-.224-.61-.427-1.118-.63-1.687-.792-.162-1.564-.325-2.356-.467-.529-.102-.874-.386-.874-.915-.02-1.361-.04-2.703 0-4.064.02-.67.488-.955 1.097-1.037.69-.101 1.381-.243 2.093-.345.243-.59.467-1.138.69-1.707-.426-.65-.833-1.3-1.28-1.93-.345-.468-.345-.935.041-1.342a86.753 86.753 0 0 1 2.702-2.784c.467-.447.996-.407 1.524-.04a45.26 45.26 0 0 1 1.828 1.198Zm-2.64 19.631c.73-.508 1.32-.894 1.889-1.3.447-.325.873-.366 1.381-.102.65.325 1.34.61 2.032.874.426.163.65.407.731.854.122.731.284 1.442.427 2.235h2.783c.122-.732.264-1.402.366-2.073.08-.528.325-.874.873-1.056a10.3 10.3 0 0 0 1.87-.813c.568-.305 1.035-.265 1.523.121.528.407 1.117.773 1.767 1.22.63-.65 1.24-1.28 1.87-1.91-.407-.63-.691-1.18-1.077-1.667-.447-.549-.508-1.077-.163-1.707a10.34 10.34 0 0 0 .711-1.707c.163-.549.468-.833 1.036-.894.691-.081 1.382-.244 2.113-.386V40.18c-.71-.122-1.34-.264-1.97-.346-.65-.08-1.057-.345-1.22-1.036-.142-.569-.406-1.097-.67-1.605-.304-.55-.304-1.037.082-1.545.406-.528.772-1.118 1.239-1.788-.67-.63-1.32-1.22-2.032-1.89-.589.406-1.178.792-1.747 1.219-.447.325-.873.366-1.381.102-.57-.305-1.158-.61-1.788-.773-.67-.182-.955-.569-1.057-1.219-.101-.67-.264-1.32-.386-1.971h-2.742c-.143.772-.325 1.463-.407 2.174-.08.59-.386.834-.914.996a10.43 10.43 0 0 0-1.706.711c-.63.346-1.158.305-1.707-.142-.508-.406-1.056-.731-1.625-1.138-.691.67-1.341 1.28-1.97 1.87.507.752.893 1.361 1.32 1.971.284.406.304.772.06 1.199a9.241 9.241 0 0 0-.751 1.788c-.183.671-.549.976-1.22 1.057-.67.081-1.32.224-1.99.325v2.805c.772.142 1.463.284 2.153.386.57.081.854.386 1.037.914.203.59.406 1.179.69 1.707.325.61.264 1.098-.122 1.626-.406.529-.751 1.118-1.097 1.626.63.732 1.199 1.382 1.788 2.052Zm7.861-16.095c3.15-.142 6.44 2.52 6.42 6.503-.02 3.638-2.925 6.382-6.582 6.32-3.535-.04-6.339-2.966-6.278-6.543.04-3.516 2.926-6.32 6.44-6.28Zm4.694 6.422c0-2.682-2.093-4.755-4.775-4.715-2.54.02-4.672 2.155-4.672 4.675 0 2.641 2.133 4.795 4.774 4.775 2.6-.02 4.672-2.093 4.672-4.735Z"/>
</symbol>
<symbol id="databases-active" viewBox="0 0 24 24">
<path d="M2.00684 6.08839C2.11964 6.14949 2.20509 6.20041 2.29397 6.24793C3.40489 6.85554 4.60468 7.22214 5.83866 7.48351C8.24509 7.99268 10.6823 8.14883 13.14 8.07075C15.0747 8.00965 16.9889 7.79241 18.8655 7.31718C19.932 7.04563 20.9711 6.69939 21.9214 6.13252C21.9351 6.12573 21.9521 6.12233 21.9966 6.10536C21.9966 6.18004 21.9966 6.24453 21.9966 6.30563C21.9966 8.15562 21.9932 10.0056 22 11.8556C22 12.1203 21.9043 12.324 21.7265 12.5039C21.3266 12.9045 20.8344 13.1658 20.3182 13.3831C19.2142 13.8515 18.052 14.1231 16.8727 14.3301C15.355 14.5949 13.8236 14.7103 12.2854 14.7171C9.9542 14.7307 7.6469 14.5406 5.38404 13.9534C4.54999 13.7361 3.73646 13.4646 2.99128 13.0267C2.72124 12.8671 2.47513 12.6567 2.23928 12.4496C2.07178 12.307 2.00342 12.1068 2.00342 11.8759C2.01025 10.0158 2.00684 8.15222 2.00684 6.29206C2.00684 6.23096 2.00684 6.17325 2.00684 6.08839ZM2.00684 14.5847C2.00684 16.4347 2.01025 18.2847 2.00342 20.1347C2.00342 20.3859 2.0752 20.6031 2.25978 20.7525C2.55375 20.9901 2.85455 21.2311 3.1827 21.4144C3.91762 21.8183 4.71407 22.0729 5.5276 22.2766C7.74261 22.8299 9.99863 23.0098 12.2752 22.9996C13.8715 22.9894 15.4575 22.8672 17.0299 22.5855C18.1784 22.3784 19.3099 22.1035 20.3866 21.635C20.8857 21.4178 21.3574 21.1598 21.7402 20.766C21.9077 20.5929 21.9966 20.396 21.9966 20.1449C21.9897 18.2881 21.9932 16.4347 21.9932 14.5779C21.9932 14.5202 21.9932 14.4591 21.9932 14.3845C21.9487 14.4048 21.9282 14.4082 21.9077 14.4218C20.9609 14.9853 19.9251 15.3281 18.8655 15.5963C16.7086 16.1462 14.5073 16.3498 12.2854 16.3668C10.5421 16.3804 8.80226 16.2718 7.07947 15.9968C5.85917 15.8033 4.65254 15.5386 3.5006 15.0803C2.9947 14.88 2.50931 14.6322 2 14.4014C2.00684 14.4625 2.00684 14.5236 2.00684 14.5847ZM7.66741 1.30559C6.47445 1.48889 5.29516 1.73669 4.16031 2.15421C3.5006 2.39521 2.86139 2.68035 2.3384 3.16236C1.91113 3.55612 1.90771 3.86162 2.32473 4.26556C2.6939 4.62198 3.13827 4.85959 3.60314 5.06326C4.69356 5.54188 5.83866 5.82023 7.00427 6.03068C8.68946 6.33618 10.3917 6.4516 12.1008 6.4516C13.7074 6.4516 15.3071 6.33618 16.8932 6.05105C18.0588 5.84399 19.2073 5.57243 20.3046 5.10739C20.8481 4.87996 21.3642 4.6084 21.771 4.17052C22.0684 3.85144 22.0752 3.5697 21.7607 3.26759C21.5385 3.05374 21.289 2.85686 21.019 2.70072C20.1268 2.18136 19.1424 1.88265 18.1374 1.64504C16.1104 1.17321 14.0492 1.00009 11.6633 1.00009C10.5285 0.996696 9.0928 1.08835 7.66741 1.30559Z" fill="#1A1A1A"/>
</symbol>
<symbol id="databases" viewBox="0 0 24 24">
<path d="M21.8996 4.3C21.8996 6.12254 17.4672 7.6 11.9996 7.6C6.53199 7.6 2.09961 6.12254 2.09961 4.3M21.8996 4.3C21.8996 2.47746 17.4672 1 11.9996 1C6.53199 1 2.09961 2.47746 2.09961 4.3M21.8996 4.3V19.7C21.8996 21.526 17.4996 23 11.9996 23C6.49961 23 2.09961 21.526 2.09961 19.7V4.3M21.8996 12C21.8996 13.826 17.4996 15.3 11.9996 15.3C6.49961 15.3 2.09961 13.826 2.09961 12" stroke="#424242" stroke-width="1.5" stroke-linecap="round" stroke-linejoin="round"/>
</symbol>
<symbol id="documents-active" viewBox="0 0 24 24">
<path d="M13.6507 1.00549V8.95745C13.6507 9.21596 13.8566 9.42553 14.1106 9.42553H21.9294V20.1302C21.9293 20.897 21.6221 21.6286 21.0814 22.1653C20.5411 22.7015 19.8117 23 19.0548 23H5.94683C5.18999 23 4.46061 22.7015 3.92026 22.1653C3.37953 21.6286 3.07236 20.897 3.07227 20.1302V3.86976C3.07236 3.10299 3.37954 2.3714 3.92026 1.83469C4.46061 1.29847 5.18999 1 5.94683 1H13.5932C13.6125 1 13.6315 1.00385 13.6507 1.00549Z" fill="#1A1A1A"/>
<path d="M21.421 8.48936H14.5705V1.69116L21.421 8.48936Z" fill="#1A1A1A"/>
</symbol>
<symbol id="documents" viewBox="0 0 16 16">
  <path stroke="currentColor" stroke-linecap="round" stroke-linejoin="round" d="M9.157.8H3.852a1.516 1.516 0 0 0-1.516 1.517v11.368a1.516 1.516 0 0 0 1.516 1.516h9.095a1.516 1.516 0 0 0 1.515-1.516V6.106M9.157.801l5.305 5.305M9.157.801v5.305h5.305"/>
</symbol>
<symbol id="download" viewBox="0 0 14 17">
  <path d="M0 17h14v-2H0m14-9h-4V0H4v6H0l7 7 7-7Z"/>
</symbol>
<symbol id="download2" viewBox="0 0 20 20">
  <path stroke="currentColor" stroke-linecap="round" stroke-linejoin="round" d="M6.731 14.669 10.002 18m0 0 3.27-3.331M10.003 18v-7.495m7.261 5.072a4.159 4.159 0 0 0 1.522-2.075 4.238 4.238 0 0 0 .024-2.59 4.162 4.162 0 0 0-1.483-2.102 4.039 4.039 0 0 0-2.418-.804h-1.03a6.707 6.707 0 0 0-1.346-2.651 6.553 6.553 0 0 0-2.347-1.787 6.439 6.439 0 0 0-5.71.21A6.578 6.578 0 0 0 2.26 5.73a6.726 6.726 0 0 0-1.155 2.743 6.781 6.781 0 0 0 .137 2.982 6.7 6.7 0 0 0 1.4 2.622"/>
</symbol>
<symbol id="download3" viewBox="0 0 24 21">
  <path stroke="currentColor" stroke-linecap="round" stroke-linejoin="round" stroke-width="2" d="m16.016 14.69-4.026-4.174m0 0L7.965 14.69m4.025-4.173V20m8.906-3.161c.854-.632 1.463-1.518 1.83-2.656.366-1.011.366-2.15 0-3.287-.366-1.012-.976-2.023-1.83-2.656-.854-.632-1.83-1.011-2.928-1.011h-1.22c-.244-1.265-.854-2.403-1.586-3.414a7.096 7.096 0 0 0-2.806-2.276c-1.22-.38-2.44-.633-3.66-.506-1.22 0-2.44.38-3.415 1.011a6.29 6.29 0 0 0-2.684 2.403c-.732 1.012-1.22 2.276-1.464 3.414-.244 1.265-.122 2.529.122 3.794.366 1.264.854 2.402 1.708 3.287"/>
</symbol>
<symbol id="esf" viewBox="0 0 57 53">
  <path d="M13.695 19.913a3.232 3.232 0 0 1-1.058 1.404c-.51.401-.985.675-1.422.82v1.533a5.66 5.66 0 0 0 2.17-1.277v6.346h1.678v-8.826h-1.368Zm8.498 5.58c-.146.639-.402 1.113-.73 1.423a1.842 1.842 0 0 1-1.222.456c-.638 0-1.148-.238-1.55-.712-.4-.474-.601-1.258-.601-2.37 0-1.04.2-1.806.601-2.28.402-.474.93-.693 1.587-.693.474 0 .875.128 1.203.401.329.256.547.62.657 1.076l1.75-.419c-.2-.711-.492-1.24-.893-1.623-.675-.638-1.55-.948-2.608-.948-1.221 0-2.224.4-2.972 1.222-.748.802-1.13 1.95-1.13 3.41 0 1.386.382 2.461 1.13 3.264.748.802 1.13 1.203 2.881 1.203.948 0 1.714-.237 2.334-.693.62-.456 1.058-1.185 1.313-2.133l-1.75-.584Zm4.996-5.726v1.824h15.883v-1.824H27.19Zm0 7.294v1.824h15.883v-1.824H27.19ZM11.634 34.32v1.824h31.438V34.32H11.634Zm0 7.294v1.824h31.438v-1.824H11.634Zm43.784 9.063H49.71V15.391h-1.824v35.285H7.276V12h10.54V1.824h4.978V0h-6.273L5.452 11.069v39.607H.912a.903.903 0 0 0-.912.912c0 .51.401.912.912.912h54.506c.51 0 .911-.401.911-.912a.915.915 0 0 0-.911-.912ZM15.993 3.118v7.076H8.916l7.075-7.076Zm15.682-2.042C30.964.383 30.107.055 29.085.055h-2.753c-.31 0-.529.09-.693.291-.146.183-.237.383-.237.584 0 .237.073.456.237.638.183.164.401.237.675.237h2.753c.53 0 .967.164 1.313.51.347.347.51.749.51 1.24v.785h-2.734c-.292 0-.511.091-.675.274a.87.87 0 0 0-.237.601c0 .237.073.456.237.62a.968.968 0 0 0 .675.256h2.735v.693c0 .51-.182.93-.529 1.258a1.85 1.85 0 0 1-1.295.492h-2.753c-.292 0-.51.091-.675.274a.87.87 0 0 0-.237.602c0 .237.073.455.237.62a.968.968 0 0 0 .675.255h2.753c1.003 0 1.879-.347 2.59-1.04.711-.693 1.076-1.513 1.076-2.48v-3.21c0-.966-.347-1.804-1.058-2.48Zm8.936 7.44h-2.572c-.219 0-.456-.036-.71-.128a2.3 2.3 0 0 1-.584-.383 1.722 1.722 0 0 1-.53-1.258V3.556c0-.237.037-.474.128-.675.091-.219.22-.401.383-.565a1.895 1.895 0 0 1 1.313-.492h2.572c.31 0 .528-.092.692-.292.146-.2.238-.383.238-.584 0-.219-.092-.42-.274-.602a.895.895 0 0 0-.657-.273h-2.57c-1.022 0-1.879.346-2.59 1.021-.711.675-1.058 1.514-1.058 2.48v3.228c0 .985.365 1.805 1.076 2.48.73.675 1.586 1.021 2.571 1.021h2.572c.31 0 .528-.091.692-.292.146-.2.238-.383.238-.583 0-.22-.092-.42-.274-.602a.81.81 0 0 0-.657-.31Zm14.26-5.343c-.292-.62-.493-1.003-1.003-1.495C52.792.638 51.315.31 49.8.31h-2.188c-1.514 0-2.99.346-4.067 1.386-1.075 1.04-1.422 2.17-1.422 3.592 0 1.477.346 2.608 1.422 3.63 1.076 1.02 1.988 1.349 3.52 1.349h.73v1.349c0 .292.09.51.273.657.182.145.401.218.638.218.273 0 .492-.073.657-.218.182-.165.255-.383.255-.657v-1.35h.182c1.514 0 3.009-.346 4.067-1.385 1.057-1.04 1.422-2.17 1.422-3.593 0-.747-.146-1.495-.42-2.115Zm-7.076 5.325h-.182c-1.003 0-2.06-.164-2.772-.857-.711-.693-.894-1.404-.894-2.37 0-.986.183-1.697.894-2.39.73-.674 1.769-.839 2.754-.839h.182v6.456h.018Zm5.672-3.228c0 .967-.183 1.696-.894 2.37-.711.694-1.75.84-2.772.84h-.182V2.06h.182c1.021 0 2.079.165 2.79.876.711.693.876 1.404.876 2.334Z"/>
</symbol>
<symbol id="exit-hover" viewBox="0 0 24 24">
<path d="M8.66667 22H4.22222C3.63285 22 3.06762 21.7659 2.65087 21.3491C2.23413 20.9324 2 20.3671 2 19.7778V4.22222C2 3.63285 2.23413 3.06762 2.65087 2.65087C3.06762 2.23413 3.63285 2 4.22222 2H8.66667M16.4444 17.5556L22 12M22 12L16.4444 6.44444M22 12H8.66667" stroke="black" stroke-width="2" stroke-linecap="round" stroke-linejoin="round"/>
</symbol>
<symbol id="exit" viewBox="0 0 24 24">
<path d="M8.66667 22H4.22222C3.63285 22 3.06762 21.7659 2.65087 21.3491C2.23413 20.9324 2 20.3671 2 19.7778V4.22222C2 3.63285 2.23413 3.06762 2.65087 2.65087C3.06762 2.23413 3.63285 2 4.22222 2H8.66667M16.4444 17.5556L22 12M22 12L16.4444 6.44444M22 12H8.66667" stroke="#8C8C8C" stroke-width="2" stroke-linecap="round" stroke-linejoin="round"/>
</symbol>
<symbol id="eye1" viewBox="0 0 20 20">
  <g clip-path="url(#a)">
    <path stroke="currentColor" stroke-linecap="round" stroke-linejoin="round" stroke-width="2" d="M.833 10S4.167 3.335 10 3.335s9.167 6.667 9.167 6.667-3.334 6.666-9.167 6.666S.833 10.001.833 10.001Z"/>
    <path stroke="currentColor" stroke-linecap="round" stroke-linejoin="round" stroke-width="2" d="M10 12.5a2.5 2.5 0 1 0 0-5 2.5 2.5 0 0 0 0 5Z"/>
  </g>
  
</symbol>
<symbol id="facebook" viewBox="0 0 36 36">
<path d="M36 18C36 8.05887 27.9411 0 18 0C8.05887 0 0 8.05887 0 18C0 26.9842 6.5823 34.431 15.1875 35.7813V23.2031H10.6172V18H15.1875V14.0344C15.1875 9.52313 17.8748 7.03125 21.9864 7.03125C23.9551 7.03125 26.0156 7.38281 26.0156 7.38281V11.8125H23.7459C21.51 11.8125 20.8125 13.2001 20.8125 14.625V18H25.8047L25.0066 23.2031H20.8125V35.7813C29.4177 34.431 36 26.9842 36 18Z" fill="#F26135"/>
</symbol>
<symbol id="in" viewBox="0 0 37 36">
<mask id="path-1-inside-1_4601_1200" fill="white">
<path d="M33.3389 0C34.8081 0 36 1.15525 36 2.5791V33.4209C36 34.8452 34.8081 36 33.3389 36H2.66016C1.19086 36 0 34.8452 0 33.4209V2.5791C0 1.15525 1.19086 0 2.66016 0H33.3389ZM6.41504 30H11.8809V13.8066H6.41504V30ZM25.2979 13.4268C22.3964 13.4269 21.0982 14.999 20.3721 16.1025V13.8066H14.9053C14.977 15.3273 14.9053 30 14.9053 30H20.3721V20.957C20.3721 20.4731 20.4075 19.9895 20.5518 19.6436C20.9469 18.6766 21.8464 17.6748 23.3564 17.6748C25.3344 17.6748 26.126 19.16 26.126 21.3369V30H31.5918V20.7148C31.5918 15.7409 28.8943 13.4268 25.2979 13.4268ZM20.3721 16.1553H20.3359C20.3474 16.1376 20.3603 16.1205 20.3721 16.1025V16.1553ZM9.18359 6C7.314 6.00018 6.09185 7.20904 6.0918 8.79785C6.0918 10.3518 7.27786 11.5957 9.1123 11.5957H9.14746C11.0537 11.5957 12.2402 10.3518 12.2402 8.79785C12.2047 7.20893 11.0536 6 9.18359 6Z"/>
</mask>
<path d="M33.3389 0C34.8081 0 36 1.15525 36 2.5791V33.4209C36 34.8452 34.8081 36 33.3389 36H2.66016C1.19086 36 0 34.8452 0 33.4209V2.5791C0 1.15525 1.19086 0 2.66016 0H33.3389ZM6.41504 30H11.8809V13.8066H6.41504V30ZM25.2979 13.4268C22.3964 13.4269 21.0982 14.999 20.3721 16.1025V13.8066H14.9053C14.977 15.3273 14.9053 30 14.9053 30H20.3721V20.957C20.3721 20.4731 20.4075 19.9895 20.5518 19.6436C20.9469 18.6766 21.8464 17.6748 23.3564 17.6748C25.3344 17.6748 26.126 19.16 26.126 21.3369V30H31.5918V20.7148C31.5918 15.7409 28.8943 13.4268 25.2979 13.4268ZM20.3721 16.1553H20.3359C20.3474 16.1376 20.3603 16.1205 20.3721 16.1025V16.1553ZM9.18359 6C7.314 6.00018 6.09185 7.20904 6.0918 8.79785C6.0918 10.3518 7.27786 11.5957 9.1123 11.5957H9.14746C11.0537 11.5957 12.2402 10.3518 12.2402 8.79785C12.2047 7.20893 11.0536 6 9.18359 6Z" fill="#F26135"/>
<path d="M6.41504 30H5.41504V31H6.41504V30ZM11.8809 30V31H12.8809V30H11.8809ZM11.8809 13.8066H12.8809V12.8066H11.8809V13.8066ZM6.41504 13.8066V12.8066H5.41504V13.8066H6.41504ZM25.2979 13.4268V12.4268H25.2978L25.2979 13.4268ZM20.3721 13.8066H21.3721V12.8066H20.3721V13.8066ZM14.9053 13.8066V12.8066H13.857L13.9064 13.8538L14.9053 13.8066ZM14.9053 30L13.9053 29.9951L13.9004 31H14.9053V30ZM20.3721 30V31H21.3721V30H20.3721ZM20.5518 19.6436L21.4747 20.0285L21.4774 20.0218L20.5518 19.6436ZM23.3564 17.6748L23.3565 16.6748H23.3564V17.6748ZM26.126 30H25.126V31H26.126V30ZM31.5918 30V31H32.5918V30H31.5918ZM20.3721 16.1553V17.1553H21.3721V16.1553H20.3721ZM20.3359 16.1553L19.4977 15.6099L18.4923 17.1553H20.3359V16.1553ZM9.18359 6V5H9.1835L9.18359 6ZM6.0918 8.79785L5.0918 8.79782V8.79785H6.0918ZM12.2402 8.79785H13.2402V8.78666L13.24 8.77547L12.2402 8.79785ZM33.3389 0V1C34.2855 1 35 1.73679 35 2.5791H36H37C37 0.573702 35.3307 -1 33.3389 -1V0ZM36 2.5791H35V33.4209H36H37V2.5791H36ZM36 33.4209H35C35 34.2636 34.2857 35 33.3389 35V36V37C35.3306 37 37 35.4269 37 33.4209H36ZM33.3389 36V35H2.66016V36V37H33.3389V36ZM2.66016 36V35C1.7138 35 1 34.2641 1 33.4209H0H-1C-1 35.4264 0.667924 37 2.66016 37V36ZM0 33.4209H1V2.5791H0H-1V33.4209H0ZM0 2.5791H1C1 1.73631 1.71393 1 2.66016 1V0V-1C0.667801 -1 -1 0.574184 -1 2.5791H0ZM2.66016 0V1H33.3389V0V-1H2.66016V0ZM6.41504 30V31H11.8809V30V29H6.41504V30ZM11.8809 30H12.8809V13.8066H11.8809H10.8809V30H11.8809ZM11.8809 13.8066V12.8066H6.41504V13.8066V14.8066H11.8809V13.8066ZM6.41504 13.8066H5.41504V30H6.41504H7.41504V13.8066H6.41504ZM25.2979 13.4268L25.2978 12.4268C23.6517 12.4268 22.4043 12.8774 21.4555 13.5249C20.5208 14.1628 19.9294 14.956 19.5367 15.5529L20.3721 16.1025L21.2074 16.6522C21.5408 16.1456 21.9616 15.6009 22.5829 15.1769C23.1902 14.7624 24.0426 14.4268 25.2979 14.4268L25.2979 13.4268ZM20.3721 16.1025H21.3721V13.8066H20.3721H19.3721V16.1025H20.3721ZM20.3721 13.8066V12.8066H14.9053V13.8066V14.8066H20.3721V13.8066ZM14.9053 13.8066L13.9064 13.8538C13.9407 14.5817 13.9412 18.5913 13.9322 22.4712C13.9277 24.3996 13.921 26.2806 13.9154 27.6796C13.9126 28.3791 13.91 28.958 13.9082 29.3621C13.9073 29.5641 13.9066 29.7224 13.9061 29.8301C13.9058 29.884 13.9056 29.9253 13.9055 29.9531C13.9054 29.967 13.9054 29.9775 13.9053 29.9845C13.9053 29.988 13.9053 29.9907 13.9053 29.9925C13.9053 29.9933 13.9053 29.994 13.9053 29.9945C13.9053 29.9947 13.9053 29.9948 13.9053 29.9949C13.9053 29.9951 13.9053 29.9951 14.9053 30C15.9053 30.0049 15.9053 30.0048 15.9053 30.0047C15.9053 30.0046 15.9053 30.0044 15.9053 30.0042C15.9053 30.0038 15.9053 30.0031 15.9053 30.0022C15.9053 30.0004 15.9053 29.9977 15.9053 29.9942C15.9053 29.9871 15.9054 29.9766 15.9055 29.9627C15.9056 29.9348 15.9058 29.8935 15.9061 29.8396C15.9066 29.7317 15.9073 29.5732 15.9082 29.3711C15.91 28.9667 15.9125 28.3875 15.9154 27.6876C15.921 26.288 15.9277 24.4058 15.9322 22.4759C15.9411 18.6393 15.9415 14.5523 15.9042 13.7595L14.9053 13.8066ZM14.9053 30V31H20.3721V30V29H14.9053V30ZM20.3721 30H21.3721V20.957H20.3721H19.3721V30H20.3721ZM20.3721 20.957H21.3721C21.3721 20.4778 21.4143 20.1734 21.4747 20.0285L20.5518 19.6436L19.6288 19.2586C19.4007 19.8056 19.3721 20.4684 19.3721 20.957H20.3721ZM20.5518 19.6436L21.4774 20.0218C21.7735 19.2975 22.3796 18.6748 23.3564 18.6748V17.6748V16.6748C21.3131 16.6748 20.1204 18.0556 19.6261 19.2653L20.5518 19.6436ZM23.3564 17.6748L23.3564 18.6748C24.057 18.6748 24.4238 18.9162 24.6606 19.2585C24.9402 19.6626 25.126 20.3417 25.126 21.3369H26.126H27.126C27.126 20.1552 26.916 19.0032 26.3053 18.1206C25.6519 17.1761 24.6339 16.6748 23.3565 16.6748L23.3564 17.6748ZM26.126 21.3369H25.126V30H26.126H27.126V21.3369H26.126ZM26.126 30V31H31.5918V30V29H26.126V30ZM31.5918 30H32.5918V20.7148H31.5918H30.5918V30H31.5918ZM31.5918 20.7148H32.5918C32.5918 18.0518 31.8676 15.9575 30.5234 14.5221C29.1738 13.0807 27.314 12.4268 25.2979 12.4268V13.4268V14.4268C26.8781 14.4268 28.1653 14.9299 29.0635 15.8891C29.9672 16.8542 30.5918 18.404 30.5918 20.7148H31.5918ZM20.3721 16.1553V15.1553H20.3359V16.1553V17.1553H20.3721V16.1553ZM20.3359 16.1553L21.1741 16.7006C21.171 16.7054 21.169 16.7084 21.1689 16.7085C21.1688 16.7087 21.169 16.7084 21.1697 16.7074C21.1704 16.7064 21.1713 16.7051 21.1728 16.703C21.1752 16.6995 21.1804 16.6921 21.1858 16.6842C21.1915 16.676 21.199 16.665 21.2074 16.6522L20.3721 16.1025L19.5367 15.5529C19.5392 15.5491 19.5407 15.5469 19.5403 15.5475C19.5396 15.5485 19.5387 15.5497 19.535 15.555C19.5299 15.5623 19.5143 15.5845 19.4977 15.6099L20.3359 16.1553ZM20.3721 16.1025H19.3721V16.1553H20.3721H21.3721V16.1025H20.3721ZM9.18359 6L9.1835 5C8.03078 5.00011 7.00409 5.37573 6.25608 6.07047C5.5051 6.76798 5.09183 7.73656 5.0918 8.79782L6.0918 8.79785L7.0918 8.79789C7.09182 8.27034 7.28965 7.84008 7.61715 7.5359C7.94763 7.22896 8.46681 7.00007 9.18369 7L9.18359 6ZM6.0918 8.79785H5.0918C5.0918 10.9414 6.76363 12.5957 9.1123 12.5957V11.5957V10.5957C7.79209 10.5957 7.0918 9.76226 7.0918 8.79785H6.0918ZM9.1123 11.5957V12.5957H9.14746V11.5957V10.5957H9.1123V11.5957ZM9.14746 11.5957V12.5957C10.3223 12.5957 11.3517 12.2089 12.0953 11.5065C12.8393 10.8038 13.2402 9.83725 13.2402 8.79785H12.2402H11.2402C11.2402 9.31245 11.0479 9.74478 10.722 10.0525C10.3958 10.3606 9.87884 10.5957 9.14746 10.5957V11.5957ZM12.2402 8.79785L13.24 8.77547C13.2168 7.73982 12.8252 6.77949 12.0894 6.0789C11.353 5.3776 10.3393 5 9.18359 5V6V7C9.8979 7 10.3948 7.22686 10.7102 7.52726C11.0264 7.82837 11.2281 8.26696 11.2405 8.82024L12.2402 8.79785Z" fill="#F26135" mask="url(#path-1-inside-1_4601_1200)"/>
</symbol>
<symbol id="instagram" viewBox="0 0 36 36">
<path d="M19.8504 0C21.8753 0.00539987 22.9031 0.0161996 23.7904 0.041399L24.1396 0.0539986C24.5428 0.0683983 24.9406 0.0863978 25.4211 0.107997C27.3362 0.197995 28.643 0.500388 29.7895 0.944977C30.9775 1.40217 31.9782 2.02135 32.979 3.02033C33.8946 3.91982 34.6028 5.00833 35.0543 6.20985C35.4988 7.35642 35.8012 8.66319 35.8912 10.5801C35.9128 11.0589 35.9308 11.4567 35.9452 11.8617L35.956 12.2109C35.983 13.0965 35.9938 14.1243 35.9974 16.1492L35.9992 17.492V19.8499C36.0036 21.1628 35.9898 22.4757 35.9578 23.7882L35.947 24.1374C35.9326 24.5424 35.9146 24.9402 35.893 25.419C35.803 27.3359 35.497 28.6409 35.0543 29.7893C34.6028 30.9908 33.8946 32.0793 32.979 32.9788C32.0795 33.8944 30.991 34.6027 29.7895 35.0541C28.643 35.4987 27.3362 35.8011 25.4211 35.8911L24.1396 35.9451L23.7904 35.9559C22.9031 35.9811 21.8753 35.9937 19.8504 35.9973L18.5077 35.9991H16.1516C14.8381 36.0038 13.5247 35.99 12.2116 35.9577L11.8624 35.9469C11.4351 35.9307 11.008 35.9121 10.5809 35.8911C8.66579 35.8011 7.35905 35.4987 6.21071 35.0541C5.00987 34.6025 3.92202 33.8942 3.02307 32.9788C2.10682 32.0795 1.39795 30.991 0.945976 29.7893C0.501399 28.6427 0.199014 27.3359 0.109018 25.419L0.055021 24.1374L0.0460217 23.7882C0.0128422 22.4757 -0.00215862 21.1628 0.00102378 19.8499V16.1492C-0.00395818 14.8363 0.00924256 13.5234 0.0406219 12.2109L0.0532212 11.8617C0.0676205 11.4567 0.0856195 11.0589 0.107218 10.5801C0.197214 8.66319 0.499599 7.35822 0.944176 6.20985C1.3972 5.00784 2.10732 3.91929 3.02487 3.02033C3.9233 2.10514 5.01051 1.3969 6.21071 0.944977C7.35905 0.500388 8.66399 0.197995 10.5809 0.107997C11.0597 0.0863978 11.4592 0.0683983 11.8624 0.0539986L12.2116 0.0431988C13.5241 0.0112186 14.8369 -0.00258239 16.1498 0.00179983L19.8504 0ZM18.0001 8.99978C15.6133 8.99978 13.3242 9.94797 11.6365 11.6358C9.94873 13.3235 9.00057 15.6127 9.00057 17.9996C9.00057 20.3865 9.94873 22.6756 11.6365 24.3634C13.3242 26.0512 15.6133 26.9993 18.0001 26.9993C20.3869 26.9993 22.676 26.0512 24.3638 24.3634C26.0515 22.6756 26.9997 20.3865 26.9997 17.9996C26.9997 15.6127 26.0515 13.3235 24.3638 11.6358C22.676 9.94797 20.3869 8.99978 18.0001 8.99978ZM18.0001 12.5997C18.7092 12.5996 19.4114 12.7391 20.0666 13.0104C20.7217 13.2817 21.3171 13.6793 21.8186 14.1806C22.3201 14.682 22.7179 15.2772 22.9894 15.9323C23.2608 16.5874 23.4006 17.2895 23.4007 17.9987C23.4009 18.7078 23.2613 19.41 22.9901 20.0652C22.7188 20.7204 22.3212 21.3157 21.8198 21.8172C21.3185 22.3187 20.7233 22.7166 20.0682 22.988C19.4132 23.2595 18.711 23.3993 18.0019 23.3994C16.5698 23.3994 15.1964 22.8305 14.1837 21.8178C13.1711 20.8052 12.6022 19.4317 12.6022 17.9996C12.6022 16.5674 13.1711 15.194 14.1837 14.1813C15.1964 13.1686 16.5698 12.5997 18.0019 12.5997M27.4514 6.29985C26.8547 6.29985 26.2825 6.53689 25.8605 6.95884C25.4386 7.38079 25.2016 7.95307 25.2016 8.54979C25.2016 9.14651 25.4386 9.7188 25.8605 10.1407C26.2825 10.5627 26.8547 10.7997 27.4514 10.7997C28.0481 10.7997 28.6204 10.5627 29.0424 10.1407C29.4643 9.7188 29.7013 9.14651 29.7013 8.54979C29.7013 7.95307 29.4643 7.38079 29.0424 6.95884C28.6204 6.53689 28.0481 6.29985 27.4514 6.29985Z" fill="#F26135"/>
</symbol>
<symbol id="location" viewBox="0 0 20 20">
<path d="M10 9.5C9.33696 9.5 8.70107 9.23661 8.23223 8.76777C7.76339 8.29893 7.5 7.66304 7.5 7C7.5 6.33696 7.76339 5.70107 8.23223 5.23223C8.70107 4.76339 9.33696 4.5 10 4.5C10.663 4.5 11.2989 4.76339 11.7678 5.23223C12.2366 5.70107 12.5 6.33696 12.5 7C12.5 7.3283 12.4353 7.65339 12.3097 7.95671C12.1841 8.26002 11.9999 8.53562 11.7678 8.76777C11.5356 8.99991 11.26 9.18406 10.9567 9.3097C10.6534 9.43534 10.3283 9.5 10 9.5ZM10 0C8.14348 0 6.36301 0.737498 5.05025 2.05025C3.7375 3.36301 3 5.14348 3 7C3 12.25 10 20 10 20C10 20 17 12.25 17 7C17 5.14348 16.2625 3.36301 14.9497 2.05025C13.637 0.737498 11.8565 0 10 0Z" fill="#F26135"/>
</symbol>
<symbol id="logo1" viewBox="0 0 122 26">
  <path d="M23.67 0c5.568 0 10.163 4.19 10.84 9.606a8.38 8.38 0 0 1 5.256 7.789c0 4.627-3.73 8.378-8.33 8.378H27.46V14.598h3.85a.5.5 0 0 0 .365-.155.502.502 0 0 0 .154-.367v-3.94a.504.504 0 0 0-.154-.367.498.498 0 0 0-.364-.154h-13.54a.499.499 0 0 0-.365.154.51.51 0 0 0-.153.367v3.94c0 .14.051.264.153.367a.5.5 0 0 0 .365.155h3.764v11.175h-6.053V10.23a.6.6 0 0 0-.184-.44.594.594 0 0 0-.437-.184h-4.685a.595.595 0 0 0-.436.185.6.6 0 0 0-.184.439v15.544h-2.01C3.38 25.773 0 22.375 0 18.183a7.59 7.59 0 0 1 4.97-7.134 6.798 6.798 0 0 1-.01-.378C4.96 6.986 7.93 4 11.595 4c1.11 0 2.155.274 3.075.758C16.64 1.884 19.936 0 23.67 0Z" clip-rule="evenodd"/>
  <path d="M53.665 26c-1.604 0-2.937-.227-3.998-.68-1.062-.453-1.857-1.044-2.384-1.774-.527-.73-.805-1.502-.836-2.316a.47.47 0 0 1 .481-.484h3.644c.214 0 .382.034.504.103.122.07.252.165.39.288.137.17.297.327.48.473.184.146.421.26.711.346.29.084.627.126 1.008.126.703 0 1.245-.096 1.627-.288.382-.192.573-.457.573-.795a.799.799 0 0 0-.31-.645c-.205-.17-.553-.323-1.042-.461a22.618 22.618 0 0 0-1.993-.438c-1.177-.2-2.193-.496-3.048-.887-.856-.392-1.509-.922-1.96-1.59-.45-.669-.675-1.495-.675-2.478 0-.999.278-1.882.836-2.65.558-.768 1.337-1.368 2.337-1.798 1.001-.43 2.166-.645 3.495-.645 1.1 0 2.074.146 2.922.438.848.291 1.562.672 2.142 1.14.58.47 1.024.972 1.33 1.51.305.538.465 1.052.48 1.544a.49.49 0 0 1-.148.357c-.1.1-.21.15-.333.15h-3.827a1.01 1.01 0 0 1-.458-.092 1.263 1.263 0 0 1-.366-.3c-.077-.215-.268-.407-.573-.576-.306-.169-.695-.253-1.169-.253-.52 0-.916.088-1.192.265a.861.861 0 0 0-.412.772c0 .23.084.43.252.599.168.169.466.319.894.45.428.13 1.023.272 1.787.426 1.451.215 2.624.522 3.518.922.894.399 1.547.921 1.959 1.567.413.645.619 1.452.619 2.42 0 1.09-.313 2.027-.94 2.811-.626.784-1.486 1.387-2.578 1.81-1.092.422-2.341.633-3.747.633Zm9.831-.23a.609.609 0 0 1-.412-.162.554.554 0 0 1-.184-.438V10.236c0-.169.062-.31.184-.426a.587.587 0 0 1 .412-.173h3.735c.169 0 .31.058.425.173a.58.58 0 0 1 .171.426v5.209h4.675v-5.209c0-.169.061-.31.183-.426a.586.586 0 0 1 .413-.173h3.735c.168 0 .31.058.424.173a.58.58 0 0 1 .172.426V25.17a.581.581 0 0 1-.172.427.575.575 0 0 1-.424.173h-3.735a.587.587 0 0 1-.413-.173.563.563 0 0 1-.183-.427v-5.346h-4.675v5.346a.582.582 0 0 1-.171.427.575.575 0 0 1-.425.173h-3.735Zm17.393 0a.587.587 0 0 1-.412-.173.563.563 0 0 1-.184-.427V10.236c0-.169.062-.31.184-.426a.586.586 0 0 1 .412-.173h11.229c.168 0 .313.058.435.173a.562.562 0 0 1 .184.426v2.72a.575.575 0 0 1-.184.415.594.594 0 0 1-.435.184h-7.081v2.282h6.577c.168 0 .313.057.435.172a.563.563 0 0 1 .184.427v2.489a.563.563 0 0 1-.184.426.614.614 0 0 1-.435.173h-6.577v2.328h7.264c.168 0 .314.061.436.184a.6.6 0 0 1 .183.438v2.696a.563.563 0 0 1-.183.427.613.613 0 0 1-.436.173H80.89Zm14.964 0a.587.587 0 0 1-.412-.173.563.563 0 0 1-.184-.427V10.236c0-.169.061-.31.184-.426a.586.586 0 0 1 .412-.173h11.045c.168 0 .314.058.436.173a.563.563 0 0 1 .183.426v2.927a.575.575 0 0 1-.183.415.594.594 0 0 1-.436.184h-6.805v2.536h6.347c.168 0 .313.057.436.173a.563.563 0 0 1 .183.426V19.8a.563.563 0 0 1-.183.426.616.616 0 0 1-.436.173h-6.347v4.77a.583.583 0 0 1-.172.427.574.574 0 0 1-.424.173h-3.644Zm14.483 0a.589.589 0 0 1-.413-.173.563.563 0 0 1-.183-.427V10.236c0-.169.061-.31.183-.426a.588.588 0 0 1 .413-.173h11.045c.168 0 .313.058.436.173a.563.563 0 0 1 .183.426v2.927a.575.575 0 0 1-.183.415.596.596 0 0 1-.436.184h-6.806v2.536h6.348c.168 0 .313.057.435.173a.56.56 0 0 1 .184.426V19.8a.56.56 0 0 1-.184.426.612.612 0 0 1-.435.173h-6.348v4.77a.58.58 0 0 1-.172.427.571.571 0 0 1-.423.173h-3.644Z"/>
</symbol>
<symbol id="logo2" viewBox="0 0 122 26">
<path fill-rule="evenodd" clip-rule="evenodd" d="M23.6694 0C29.2379 0 33.8335 4.19006 34.5093 9.60611C37.5887 10.8365 39.766 13.8601 39.766 17.395C39.766 22.0221 36.0361 25.7733 31.4355 25.7733L31.4159 25.7732H27.4611C27.4611 22.0481 27.4612 18.323 27.4612 14.598H31.3115C31.4507 14.598 31.5739 14.5464 31.6764 14.4432C31.7787 14.3404 31.83 14.2181 31.83 14.0763V10.136C31.83 9.99441 31.7781 9.87116 31.6764 9.76905C31.5748 9.6666 31.4523 9.61456 31.3115 9.61456C26.7982 9.61456 22.2855 9.61456 17.7723 9.61456C17.6315 9.61456 17.5089 9.6666 17.4072 9.76905C17.3057 9.87116 17.2536 9.99766 17.2536 10.136V14.0763C17.2536 14.2165 17.305 14.3404 17.4072 14.4432C17.5099 14.5464 17.6329 14.598 17.7723 14.598H21.5357V25.7732H15.4826C15.4826 20.5917 15.4826 15.4101 15.4826 10.2287C15.4826 10.0591 15.4213 9.91294 15.2986 9.78969C15.1763 9.6666 15.031 9.60498 14.8624 9.60498H10.1774C10.0088 9.60498 9.86341 9.6666 9.74086 9.78969C9.61814 9.91294 9.55719 10.0591 9.55719 10.2287C9.55719 15.4101 9.55719 20.5917 9.55719 25.7732H7.55931L7.54638 25.7733C3.37878 25.7733 0 22.3753 0 18.1839C0 14.9027 2.07111 12.1076 4.97051 11.0487C4.96356 10.9238 4.95984 10.7978 4.95984 10.6711C4.95984 6.9863 7.93069 3.9985 11.5952 3.9985C12.7048 3.9985 13.7503 4.27297 14.6697 4.75737C16.6404 1.88388 19.936 0 23.6694 0Z" fill="#5C5C5C"/>
<path d="M53.6654 26C52.0614 26 50.7284 25.7735 49.6666 25.3202C48.6048 24.867 47.8105 24.2755 47.2834 23.5457C46.7564 22.8158 46.4776 22.0438 46.4471 21.2295C46.4471 21.0912 46.4928 20.976 46.5845 20.8838C46.6762 20.7916 46.7908 20.7456 46.9282 20.7456H50.5718C50.7857 20.7456 50.9537 20.78 51.076 20.8493C51.1982 20.9184 51.328 21.0143 51.4656 21.1373C51.603 21.3064 51.7634 21.4638 51.9468 21.6098C52.1301 21.7556 52.367 21.8709 52.6572 21.9555C52.9474 22.04 53.2835 22.0821 53.6654 22.0821C54.3682 22.0821 54.9105 21.9862 55.2924 21.7942C55.6744 21.6021 55.8654 21.3371 55.8654 20.9991C55.8654 20.7379 55.7622 20.5228 55.5559 20.3537C55.3498 20.1848 55.0022 20.0311 54.5133 19.8929C54.0245 19.7545 53.3598 19.6087 52.5196 19.455C51.3434 19.2552 50.3274 18.9594 49.4719 18.5677C48.6163 18.1758 47.9633 17.6457 47.5125 16.9775C47.0619 16.3092 46.8366 15.4833 46.8366 14.5001C46.8366 13.5014 47.1155 12.618 47.6729 11.8497C48.2306 11.0816 49.0097 10.4822 50.0103 10.0521C51.0111 9.62189 52.1759 9.40677 53.505 9.40677C54.6049 9.40677 55.5789 9.55279 56.4267 9.84466C57.2746 10.1365 57.9889 10.5168 58.5693 10.9855C59.1499 11.4541 59.5929 11.9572 59.8985 12.495C60.2041 13.0328 60.3644 13.5474 60.3798 14.0391C60.3798 14.1773 60.33 14.2965 60.2307 14.3963C60.1315 14.4962 60.0207 14.5461 59.8985 14.5461H56.0715C55.8882 14.5461 55.7356 14.5154 55.6133 14.4539C55.4911 14.3924 55.3689 14.2926 55.2466 14.1544C55.1702 13.9393 54.9792 13.7472 54.6738 13.5781C54.3682 13.4092 53.9786 13.3246 53.505 13.3246C52.9855 13.3246 52.5885 13.4129 52.3135 13.5897C52.0384 13.7664 51.901 14.0237 51.901 14.3617C51.901 14.5923 51.9849 14.7919 52.1531 14.9609C52.3211 15.13 52.619 15.2797 53.0467 15.4103C53.4745 15.5409 54.0703 15.683 54.8342 15.8366C56.2854 16.0518 57.4579 16.3591 58.3517 16.7586C59.2455 17.1579 59.8985 17.6804 60.3109 18.3257C60.7235 18.9709 60.9297 19.7776 60.9297 20.7456C60.9297 21.8364 60.6165 22.7735 59.9901 23.5571C59.3638 24.3407 58.5045 24.9438 57.4122 25.3663C56.3199 25.7888 55.0709 26 53.6654 26ZM63.4963 25.7696C63.3435 25.7696 63.206 25.7158 63.0837 25.6083C62.9617 25.5007 62.9005 25.3548 62.9005 25.1704V10.2365C62.9005 10.0674 62.9617 9.9253 63.0837 9.81018C63.206 9.6949 63.3435 9.63734 63.4963 9.63734H67.2314C67.3996 9.63734 67.5409 9.6949 67.6555 9.81018C67.77 9.9253 67.8274 10.0674 67.8274 10.2365V15.4449H72.5022V10.2365C72.5022 10.0674 72.5631 9.9253 72.6854 9.81018C72.8076 9.6949 72.9452 9.63734 73.098 9.63734H76.8331C77.0012 9.63734 77.1425 9.6949 77.2572 9.81018C77.3717 9.9253 77.429 10.0674 77.429 10.2365V25.1704C77.429 25.3394 77.3717 25.4815 77.2572 25.5968C77.1425 25.712 77.0012 25.7696 76.8331 25.7696H73.098C72.9452 25.7696 72.8076 25.712 72.6854 25.5968C72.5631 25.4815 72.5022 25.3394 72.5022 25.1704V19.8236H67.8274V25.1704C67.8274 25.3394 67.77 25.4815 67.6555 25.5968C67.5409 25.712 67.3996 25.7696 67.2314 25.7696H63.4963ZM80.8893 25.7696C80.7365 25.7696 80.5989 25.712 80.4767 25.5968C80.3546 25.4815 80.2935 25.3394 80.2935 25.1704V10.2365C80.2935 10.0674 80.3546 9.9253 80.4767 9.81018C80.5989 9.6949 80.7365 9.63734 80.8893 9.63734H92.118C92.2859 9.63734 92.4311 9.6949 92.5534 9.81018C92.6756 9.9253 92.7367 10.0674 92.7367 10.2365V12.9559C92.7367 13.1095 92.6756 13.2479 92.5534 13.3708C92.4311 13.4936 92.2859 13.555 92.118 13.555H85.037V15.8366H91.6138C91.7818 15.8366 91.927 15.8944 92.0492 16.0095C92.1715 16.1248 92.2326 16.2669 92.2326 16.4358V18.9249C92.2326 19.0939 92.1715 19.236 92.0492 19.3513C91.927 19.4664 91.7818 19.5241 91.6138 19.5241H85.037V21.8517H92.3013C92.4693 21.8517 92.6145 21.9132 92.7367 22.0361C92.8589 22.159 92.92 22.3051 92.92 22.474V25.1704C92.92 25.3394 92.8589 25.4815 92.7367 25.5968C92.6145 25.712 92.4693 25.7696 92.3013 25.7696H80.8893ZM95.8532 25.7696C95.7004 25.7696 95.5628 25.712 95.4406 25.5968C95.3185 25.4815 95.2574 25.3394 95.2574 25.1704V10.2365C95.2574 10.0674 95.3185 9.9253 95.4406 9.81018C95.5628 9.6949 95.7004 9.63734 95.8532 9.63734H106.898C107.066 9.63734 107.212 9.6949 107.334 9.81018C107.456 9.9253 107.517 10.0674 107.517 10.2365V13.1633C107.517 13.317 107.456 13.4552 107.334 13.5781C107.212 13.701 107.066 13.7625 106.898 13.7625H100.093V16.2976H106.44C106.608 16.2976 106.753 16.3552 106.876 16.4705C106.998 16.5857 107.059 16.7279 107.059 16.8968V19.8007C107.059 19.9696 106.998 20.1117 106.876 20.227C106.753 20.3422 106.608 20.3999 106.44 20.3999H100.093V25.1704C100.093 25.3394 100.035 25.4815 99.9207 25.5968C99.8061 25.712 99.6648 25.7696 99.4968 25.7696H95.8532ZM110.336 25.7696C110.183 25.7696 110.046 25.712 109.923 25.5968C109.801 25.4815 109.74 25.3394 109.74 25.1704V10.2365C109.74 10.0674 109.801 9.9253 109.923 9.81018C110.046 9.6949 110.183 9.63734 110.336 9.63734H121.381C121.549 9.63734 121.694 9.6949 121.817 9.81018C121.939 9.9253 122 10.0674 122 10.2365V13.1633C122 13.317 121.939 13.4552 121.817 13.5781C121.694 13.701 121.549 13.7625 121.381 13.7625H114.575V16.2976H120.923C121.091 16.2976 121.236 16.3552 121.358 16.4705C121.481 16.5857 121.542 16.7279 121.542 16.8968V19.8007C121.542 19.9696 121.481 20.1117 121.358 20.227C121.236 20.3422 121.091 20.3999 120.923 20.3999H114.575V25.1704C114.575 25.3394 114.518 25.4815 114.403 25.5968C114.289 25.712 114.148 25.7696 113.98 25.7696H110.336Z" fill="#5C5C5C"/>
</symbol>
<symbol id="mail" viewBox="0 0 20 20">
<path d="M2.00022 2H18.0002C18.236 2 18.4621 2.09365 18.6288 2.26035C18.7955 2.42705 18.8891 2.65314 18.8891 2.88889V17.1111C18.8891 17.3469 18.7955 17.573 18.6288 17.7397C18.4621 17.9064 18.236 18 18.0002 18H2.00022C1.76447 18 1.53838 17.9064 1.37168 17.7397C1.20498 17.573 1.11133 17.3469 1.11133 17.1111V2.88889C1.11133 2.65314 1.20498 2.42705 1.37168 2.26035C1.53838 2.09365 1.76447 2 2.00022 2ZM10.0536 9.71822L4.35399 4.87822L3.20288 6.23289L10.0651 12.0596L16.8038 6.22844L15.6411 4.88356L10.0536 9.71822Z" fill="#F26135"/>
</symbol>
<symbol id="meatballs" viewBox="0 0 4 18">
  <path stroke="currentColor" stroke-linecap="round" stroke-linejoin="round" stroke-width="2" d="M3 9a1 1 0 1 0-2 0 1 1 0 0 0 2 0Zm0-7a1 1 0 1 0-2 0 1 1 0 0 0 2 0Zm0 14a1 1 0 1 0-2 0 1 1 0 0 0 2 0Z"/>
</symbol>
<symbol id="minus1" viewBox="0 0 15 2">
  <path stroke="currentColor" stroke-linecap="round" stroke-width="1.5" d="M.75.75h12.8"/>
</symbol>
<symbol id="notification" viewBox="0 0 24 24">
<path d="M13.73 21.0034C13.5542 21.3065 13.3019 21.5581 12.9982 21.733C12.6946 21.9079 12.3504 22 12 22C11.6496 22 11.3054 21.9079 11.0018 21.733C10.6982 21.5581 10.4458 21.3065 10.27 21.0034M18 8.00106C18 6.40948 17.3679 4.88309 16.2426 3.75767C15.1174 2.63225 13.5913 2 12 2C10.4087 2 8.88258 2.63225 7.75736 3.75767C6.63214 4.88309 6 6.40948 6 8.00106C6 15.0023 3 17.0027 3 17.0027H21C21 17.0027 18 15.0023 18 8.00106Z" stroke="#424242" stroke-width="2" stroke-linecap="round" stroke-linejoin="round"/>
</symbol>
<symbol id="password-lock" viewBox="0 0 20 21">
  <path stroke="currentColor" stroke-linecap="round" stroke-linejoin="round" d="M5.625 7.7V4.84c0-1.152.46-2.255 1.281-3.069A4.393 4.393 0 0 1 10 .5c1.16 0 2.273.457 3.094 1.271a4.321 4.321 0 0 1 1.281 3.068V7.7m-9.82 0h10.89c.859 0 1.555.806 1.555 1.8v7.2c0 .994-.696 1.8-1.556 1.8H4.556C3.696 18.5 3 17.694 3 16.7V9.5c0-.994.696-1.8 1.556-1.8Z"/>
</symbol>
<symbol id="phone1" viewBox="0 0 20 20">
<path d="M13.5568 12.5476L13.1018 13.0273C13.1018 13.0273 12.0188 14.1666 9.0638 11.0557C6.10882 7.94486 7.19181 6.80555 7.19181 6.80555L7.47781 6.50273C8.18481 5.75943 8.25181 4.56507 7.63481 3.69259L6.37482 1.91057C5.61082 0.830565 4.13584 0.687623 3.26084 1.60881L1.69085 3.26059C1.25785 3.718 0.967856 4.30883 1.00286 4.9653C1.09286 6.64567 1.81085 10.2595 5.81482 14.4757C10.0618 18.9461 14.0468 19.124 15.6758 18.9631C16.1918 18.9122 16.6398 18.6348 17.0007 18.2536L18.4207 16.7586C19.3807 15.7495 19.1107 14.0183 17.8827 13.3121L15.9728 12.212C15.1668 11.7492 14.1868 11.8848 13.5568 12.5476Z" fill="#F26135"/>
</symbol>
<symbol id="picker" viewBox="0 0 28 28">
  <path d="m14.433 7.404.354-.354a.5.5 0 0 0-.707 0l.353.354Zm0 13-.353.354a.5.5 0 0 0 .707 0l-.354-.354Zm-3.9-9.1.354.354 3.9-3.9-.354-.354-.353-.354-3.9 3.9.353.354Zm3.9-3.9-.353.353 3.9 3.9.353-.353.354-.354-3.9-3.9-.354.354Zm3.9 9.1-.353-.354-3.9 3.9.353.354.354.354 3.9-3.9-.354-.354Zm-3.9 3.9.354-.354-3.9-3.9-.354.354-.353.354 3.9 3.9.353-.354ZM3.6 1v.5h20.8v-1H3.6V1ZM27 3.6h-.5v20.8h1V3.6H27ZM24.4 27v-.5H3.6v1h20.8V27ZM1 24.4h.5V3.6h-1v20.8H1ZM3.6 27v-.5a2.1 2.1 0 0 1-2.1-2.1h-1a3.1 3.1 0 0 0 3.1 3.1V27ZM27 24.4h-.5a2.1 2.1 0 0 1-2.1 2.1v1a3.1 3.1 0 0 0 3.1-3.1H27ZM24.4 1v.5c1.16 0 2.1.94 2.1 2.1h1A3.1 3.1 0 0 0 24.4.5V1ZM3.6 1V.5A3.1 3.1 0 0 0 .5 3.6h1c0-1.16.94-2.1 2.1-2.1V1Z"/>
</symbol>
<symbol id="plus1" viewBox="0 0 16 16">
<path d="M8 2V14M2 8H14" stroke="#F26135" stroke-width="1.5" stroke-linecap="round"/>
</symbol>
<symbol id="plus2" viewBox="0 0 15 15">
  <path stroke="currentColor" stroke-linecap="round" stroke-width="1.5" d="M7.15.75v12.8m-6.4-6.4h12.8"/>
</symbol>
<symbol id="plus3" viewBox="0 0 18 18">
  <path stroke="currentColor" stroke-linecap="round" stroke-width="2" d="M9 1v16M1 9h16"/>
</symbol>
<symbol id="refresh" viewBox="0 0 20 20">
  <path stroke="currentColor" stroke-linecap="round" stroke-linejoin="round" d="M17 10c0 3.864-3.136 7-7 7s-6.223-3.892-6.223-3.892m0 0h3.164m-3.164 0v3.5M3 10c0-3.864 3.108-7 7-7 4.669 0 7 3.892 7 3.892m0 0v-3.5m0 3.5h-3.108"/>
</symbol>
<symbol id="rename" viewBox="0 0 20 20">
  <path stroke="currentColor" stroke-linecap="round" stroke-linejoin="round" d="M9.157 3.43H3.59A1.59 1.59 0 0 0 2 5.02v11.132a1.59 1.59 0 0 0 1.59 1.59h11.133a1.59 1.59 0 0 0 1.59-1.59v-5.566m-2.017-7.092A1.687 1.687 0 1 1 16.68 5.88l-7.554 7.554-3.18.795.795-3.18 7.554-7.555Z"/>
</symbol>
<symbol id="service-active" viewBox="0 0 24 24">
<path fill-rule="evenodd" clip-rule="evenodd" d="M22.0779 6.52377V20.2381C22.0656 20.9748 21.7639 21.677 21.2386 22.1937C20.7133 22.7102 20.0061 23 19.2694 23H4.70205C3.96668 22.9993 3.26102 22.7099 2.73645 22.1946C2.47818 21.9385 2.27284 21.6335 2.13306 21.2977C1.99338 20.962 1.9216 20.6017 1.92188 20.2381V6.52377H22.0779ZM16.5468 9.74368C16.1592 9.74263 15.8441 10.0563 15.8428 10.444C15.8413 10.8933 15.7503 11.3382 15.5759 11.7522C15.4014 12.1662 15.1466 12.5417 14.8262 12.8566L14.8253 12.8575C14.1736 13.5008 13.2946 13.8614 12.3788 13.8614C11.4631 13.8613 10.5841 13.5008 9.93235 12.8575C9.61739 12.5417 9.36799 12.1666 9.19822 11.7541C9.02788 11.3401 8.94112 10.8962 8.94315 10.4486C8.94467 10.0611 8.63211 9.74567 8.24468 9.74368C7.85691 9.74192 7.54066 10.0553 7.5389 10.4431C7.53608 11.0761 7.6591 11.7035 7.90002 12.2889C8.14099 12.8743 8.49552 13.4065 8.94315 13.8541L8.94589 13.8568C9.86041 14.7594 11.0939 15.2656 12.3788 15.2656C13.6638 15.2656 14.8972 14.7594 15.8118 13.8568L15.8108 13.8559C16.2633 13.411 16.6241 12.8819 16.8704 12.2971C17.117 11.7118 17.2451 11.0828 17.2471 10.4476C17.2481 10.0601 16.9344 9.74493 16.5468 9.74368Z" fill="#1A1A1A"/>
<path d="M18.2207 1C18.3284 1.00001 18.4347 1.02527 18.5307 1.07405C18.6266 1.12283 18.7095 1.19374 18.7729 1.28067L21.6939 5.11951H2.27751L5.18933 1.28067C5.25274 1.19375 5.3357 1.12282 5.4316 1.07405C5.52757 1.02526 5.63386 0.999988 5.74152 1H18.2207Z" fill="#1A1A1A"/>
</symbol>
<symbol id="service" viewBox="0 0 20 20">
<path d="M2 4.55556L4.66667 1H15.3333L18 4.55556M2 4.55556V17C2 17.4715 2.1873 17.9237 2.5207 18.2571C2.8541 18.5905 3.30628 18.7778 3.77778 18.7778H16.2222C16.6937 18.7778 17.1459 18.5905 17.4793 18.2571C17.8127 17.9237 18 17.4715 18 17V4.55556M2 4.55556H18M13.5556 8.11111C13.5556 9.0541 13.181 9.95847 12.5142 10.6253C11.8474 11.2921 10.943 11.6667 10 11.6667C9.05701 11.6667 8.15264 11.2921 7.48584 10.6253C6.81905 9.95847 6.44444 9.0541 6.44444 8.11111" stroke="#424242" stroke-linecap="round" stroke-linejoin="round"/>
</symbol>
<symbol id="star1" viewBox="0 0 32 32">
<path d="M16 1L20.635 10.8738L31 12.4669L23.5 20.1483L25.27 31L16 25.8738L6.73 31L8.5 20.1483L1 12.4669L11.365 10.8738L16 1Z" stroke="#424242" stroke-width="2" stroke-linecap="round" stroke-linejoin="round"/>
</symbol>
<symbol id="success" viewBox="0 0 60 60">
  <path fill="#73BC38" d="M25.208 41.766 13.636 30.19l3.857-3.857 7.715 7.713L40.634 18.62l3.859 3.86-19.285 19.287Z"/>
  <path fill="#73BC38" fill-rule="evenodd" d="M0 30C0 13.432 13.432 0 30 0c16.568 0 30 13.432 30 30 0 16.568-13.432 30-30 30C13.432 60 0 46.568 0 30Zm30 24.545A24.544 24.544 0 0 1 7.323 20.607a24.547 24.547 0 0 1 40.033-7.963A24.546 24.546 0 0 1 30 54.545Z" clip-rule="evenodd"/>
</symbol>
<symbol id="support-active" viewBox="0 0 24 24">
<path fill-rule="evenodd" clip-rule="evenodd" d="M12 1C18.1 1 23 5.9 23 12C23 18.1 18.1 23 12 23C10 23 8.1 22.5 6.5 21.5L1 23L2.7002 17.9004C1.6002 16.2004 1 14.2 1 12C1 5.9 5.9 1 12 1ZM11.7188 15.5625C11.3047 15.5627 10.9688 15.8984 10.9688 16.3125V16.5C10.9689 16.914 11.3048 17.2498 11.7188 17.25C12.1329 17.25 12.4686 16.9141 12.4688 16.5V16.3125C12.4687 15.8983 12.1329 15.5625 11.7188 15.5625ZM12.5244 5.8418C11.8904 5.70569 10.9085 5.85172 10.084 6.34082C9.19946 6.86562 8.44149 7.81954 8.44141 9.29102C8.44141 9.70523 8.77719 10.041 9.19141 10.041C9.60562 10.041 9.94141 9.70523 9.94141 9.29102C9.94149 8.42249 10.3535 7.92518 10.8496 7.63086C11.4004 7.30414 12.0029 7.26217 12.2119 7.30859L12.2432 7.31543L12.2754 7.31934C12.856 7.39676 13.2552 7.59789 13.5127 7.88477C13.7675 8.16865 13.9648 8.62748 13.9648 9.38477C13.9648 9.80521 13.8429 10.0054 13.6992 10.1514C13.5066 10.347 13.2465 10.4807 12.8184 10.7178C12.4353 10.9299 11.9311 11.2217 11.5508 11.7207C11.151 12.2452 10.942 12.9214 10.9697 13.8086C10.9829 14.2223 11.3284 14.5469 11.7422 14.5342C12.1561 14.5212 12.4815 14.1756 12.4688 13.7617C12.4497 13.1511 12.591 12.8308 12.7441 12.6299C12.9167 12.4037 13.1677 12.2392 13.5449 12.0303C13.8774 11.8461 14.3839 11.5935 14.7676 11.2041C15.2001 10.7649 15.4648 10.1812 15.4648 9.38477C15.4648 8.36345 15.1932 7.51165 14.6289 6.88281C14.079 6.27017 13.3285 5.95766 12.5244 5.8418Z" fill="#1A1A1A"/>
</symbol>
<symbol id="support" viewBox="0 0 24 24">
<path d="M11.6 14.1C11.5 10.9 14.8 12 14.8 9.4C14.8 7.5 13.8 6.6 12.3 6.4C11.3 6.2 8.8 6.9 8.9 9.3M11.6 16.8V17M23 12C23 18.1 18.1 23 12 23C10 23 8.1 22.5 6.5 21.5L1 23L2.7 17.9C1.6 16.2 1 14.2 1 12C1 5.9 5.9 1 12 1C18.1 1 23 5.9 23 12Z" stroke="#424242" stroke-width="1.5" stroke-linecap="round" stroke-linejoin="round"/>
</symbol>
<symbol id="tax" viewBox="0 0 51 54">
  <path d="M1.939 46.58H4.05c8.81 0 6.22.02 15.03-.039 1.19 0 2.38-.352 3.934-.606.058.235.384.9.23 1.369-.153.469-.786.86-1.285 1.055-.48.196-1.075.098-1.632.098H3.455c-.48 0-.979.02-1.459-.039C.73 48.262.192 47.714.038 46.404 0 46.033 0 45.661 0 45.29 0 30.744.02 19.893.02 5.347v-.371C.095 1.984 1.861.049 4.78.029A5182.98 5182.98 0 0 1 39.828.03c2.61 0 4.395 1.428 4.837 3.891.46 2.62.269 5.279-.058 8.211h-7.466v4.321c0 2.112.019 2.249.019 4.36 0 .665-.116 1.33-.902 1.369-.807.039-.941-.626-.941-1.29.02-6.14.02-10.304.096-16.443 0-.763.403-1.506.672-2.464-.672-.039-1.305-.097-1.939-.097-8.637-.04-19.482-.059-28.12-.079-.365 0-.73 0-1.094.02-2.111.176-3.052 1.173-3.052 3.363-.02 4.34 0 8.66 0 13.001 0 10.147-.02 16.6-.02 26.746 0 .45.04.86.078 1.642Zm41.076-36.208c0-1.994.077-3.793-.02-5.572-.095-1.662-1.15-2.718-2.61-2.835-1.535-.117-2.936.743-3.07 2.248-.173 1.994-.04 4.028-.04 6.159h5.74ZM22.44 6.814c-3.321 4.34-6.623 8.68-9.905 13.06-.441.586-1.305 1.349-.384 2.053.998.762 1.497-.313 1.977-.959 2.726-3.558 5.432-7.136 8.139-10.694.672-.88 1.343-1.74 1.996-2.659.557-.782.346-1.388-.749-1.838-.384.372-.787.665-1.075 1.037ZM9.5 9.609c-.038-2.15 1.651-3.87 3.782-3.87 2.073 0 3.666 1.622 3.704 3.733.039 2.132-1.65 3.97-3.685 4.008-2.112.02-3.781-1.661-3.8-3.87Zm5.528-.078c0-.9-.844-1.838-1.689-1.877-.94-.058-1.862.84-1.9 1.858-.02.997.825 1.935 1.785 1.974.883.04 1.804-.938 1.804-1.955Zm8.081 12.982c-2.226-.04-3.762-1.662-3.704-3.89.057-2.17 1.631-3.754 3.704-3.696 2.227.04 3.782 1.682 3.724 3.89-.058 2.132-1.65 3.735-3.724 3.696Zm1.805-3.676c.038-1.075-.691-1.955-1.709-2.013-1.075-.059-1.862.703-1.862 1.798 0 .997.864 1.936 1.805 1.956.921.039 1.727-.763 1.766-1.74Zm-8.427 16.795h-6.43c-.633 0-1.324-.078-1.344-.9-.019-.801.615-.997 1.267-.997 2.803 0 4.338-.039 7.14.04.404.019 1.095.527 1.133.86.096.743-.537.977-1.228.977-1.46 0 .92 0-.538.02Zm-9.079-.939a.951.951 0 0 0-.94-.958.95.95 0 0 0-.941.958.95.95 0 0 0 .94.958.977.977 0 0 0 .941-.958Zm9.08 6.12h-6.431c-.633 0-1.324-.078-1.344-.9-.019-.801.615-.997 1.267-.997 2.803 0 4.338-.039 7.14.04.404.019 1.095.527 1.133.86.096.743-.537.977-1.228.977-1.46 0 .92.02-.538.02Zm-9.08-.939a.95.95 0 0 0-.94-.958.95.95 0 0 0-.941.958.95.95 0 0 0 .94.958.964.964 0 0 0 .941-.958Zm9.06-9.814h-6.43c-.634 0-1.325-.078-1.344-.9-.02-.801.614-.997 1.267-.997 2.802 0 8.177-.039 10.98.04.402.019 1.093.527 1.132.86.096.743-.538.977-1.229.977-1.458 0-2.917 0-4.376.02 0-.02 0-.02 0 0Zm-9.08-.958a.951.951 0 0 0-.94-.958.95.95 0 0 0-.94.958.95.95 0 0 0 .94.958.95.95 0 0 0 .94-.958Zm23.783-.294c.614-.254 1.17-.488 1.785-.762.154-.762.346-1.545.48-2.346.115-.723.537-1.095 1.248-1.095 1.209-.02 2.437-.059 3.647 0 .902.04 1.132.293 1.324 1.232.154.723.288 1.466.441 2.19.596.254 1.152.508 1.824.801.499-.352 1.056-.743 1.593-1.114.979-.665 1.363-.665 2.207.117a26.178 26.178 0 0 1 2.246 2.385c.73.88.691 1.056.02 2.053-.365.547-.692 1.095-1.056 1.681.21.548.422 1.095.652 1.72.73.138 1.46.275 2.208.431.844.176 1.132.41 1.17 1.27.058 1.291.039 2.601 0 3.892-.019.664-.345 1.075-1.036 1.192-.748.117-1.497.313-2.303.47-.211.547-.442 1.133-.672 1.779.403.625.806 1.29 1.248 1.935.364.547.422 1.114-.039 1.603a91.456 91.456 0 0 1-2.687 2.777c-.5.508-1.056.508-1.65.058a47.78 47.78 0 0 0-1.901-1.29c-.576.254-1.19.508-1.843.782-.153.782-.307 1.544-.441 2.326-.115.665-.48 1.056-1.152 1.076-1.286.02-2.553.02-3.839 0-.652 0-1.075-.313-1.19-1.017-.134-.763-.307-1.525-.48-2.346-.556-.254-1.132-.528-1.766-.821-.652.45-1.324.88-1.957 1.349-.557.41-1.075.41-1.555-.059-.96-.958-1.881-1.935-2.803-2.932-.403-.43-.364-.939-.038-1.428.442-.664.883-1.349 1.305-1.994-.23-.626-.441-1.173-.652-1.76-.826-.175-1.632-.352-2.438-.508-.538-.098-.902-.41-.902-.977a79.792 79.792 0 0 1 0-4.282c.019-.704.499-.997 1.132-1.095.73-.117 1.44-.254 2.17-.371.249-.626.48-1.193.729-1.8-.442-.683-.864-1.368-1.325-2.032-.345-.509-.364-.978.039-1.428a98.154 98.154 0 0 1 2.802-2.932c.48-.47 1.037-.43 1.574-.04.576.45 1.19.841 1.881 1.31Zm-2.745 20.725c.749-.528 1.363-.939 1.958-1.389.46-.352.902-.371 1.42-.117a22.31 22.31 0 0 0 2.112.92c.441.175.672.43.748.898.116.763.288 1.525.442 2.366h2.88c.133-.782.268-1.486.383-2.19.096-.567.346-.919.921-1.114a9.47 9.47 0 0 0 1.92-.86c.595-.333 1.075-.274 1.593.117.557.43 1.152.821 1.823 1.29.653-.684 1.286-1.349 1.94-2.013-.423-.665-.73-1.252-1.114-1.76-.46-.587-.519-1.134-.173-1.799a9.773 9.773 0 0 0 .73-1.798c.172-.587.48-.86 1.055-.939.73-.098 1.44-.254 2.188-.39V37.82c-.73-.136-1.382-.273-2.034-.371-.672-.078-1.094-.371-1.267-1.095-.134-.586-.422-1.173-.71-1.7-.307-.587-.307-1.096.096-1.623.422-.567.806-1.174 1.286-1.897-.691-.665-1.363-1.29-2.093-1.994-.614.43-1.209.84-1.804 1.27-.46.353-.902.392-1.42.118-.595-.313-1.21-.645-1.843-.802-.71-.195-.998-.606-1.094-1.29-.096-.704-.269-1.388-.403-2.072h-2.86c-.154.82-.326 1.544-.422 2.287-.077.626-.404.88-.96 1.056a9.47 9.47 0 0 0-1.766.762c-.653.352-1.19.333-1.766-.136-.518-.411-1.094-.783-1.67-1.193-.73.704-1.382 1.349-2.035 1.975.519.782.941 1.446 1.383 2.072.287.41.307.801.076 1.27-.307.607-.595 1.232-.767 1.878-.192.703-.576 1.036-1.267 1.114-.691.078-1.363.235-2.073.352v2.952c.787.157 1.516.313 2.226.41.595.079.883.411 1.075.959.192.606.403 1.232.71 1.798.346.646.27 1.154-.134 1.72-.422.568-.768 1.174-1.133 1.721.634.763 1.229 1.447 1.843 2.17Zm8.139-16.99c3.263-.137 6.68 2.659 6.66 6.862-.019 3.832-3.032 6.726-6.833 6.687-3.666-.06-6.565-3.129-6.507-6.902.058-3.734 3.033-6.686 6.68-6.647Zm4.856 6.764c0-2.835-2.17-5.005-4.952-4.985-2.63.02-4.837 2.268-4.837 4.927 0 2.795 2.207 5.044 4.933 5.044 2.725 0 4.856-2.19 4.856-4.986Z"/>
</symbol>
<symbol id="tenge" viewBox="0 0 16 16">
  <path d="M13.625 5H2.375A.376.376 0 0 0 2 5.375v1.75c0 .206.169.375.375.375H6.75v7.125c0 .206.169.375.375.375h1.75a.376.376 0 0 0 .375-.375V7.5h4.375A.376.376 0 0 0 14 7.125v-1.75A.376.376 0 0 0 13.625 5Zm0-4H2.375A.376.376 0 0 0 2 1.375v1.75c0 .206.169.375.375.375h11.25A.376.376 0 0 0 14 3.125v-1.75A.376.376 0 0 0 13.625 1Z"/>
</symbol>
<symbol id="time" viewBox="0 0 18 18">
  <path stroke="currentColor" stroke-linecap="round" stroke-linejoin="round" stroke-width="1.5" d="M8.75 3.95v4.8l3.2 1.6m4.8-1.6a8 8 0 1 1-16 0 8 8 0 0 1 16 0Z"/>
</symbol>
<symbol id="trash" viewBox="0 0 20 20">
  <path stroke="currentColor" stroke-linecap="round" stroke-linejoin="round" d="M2.2 4.9h1.778m0 0H18.2m-14.222 0v11.9c0 .45.187.883.52 1.202a1.82 1.82 0 0 0 1.258.498h8.888c.472 0 .924-.18 1.258-.498.333-.319.52-.751.52-1.202V4.9m-9.778 0V3.2c0-.45.188-.883.521-1.202A1.82 1.82 0 0 1 8.422 1.5h3.556c.471 0 .923.18 1.257.498.333.319.52.751.52 1.202v1.7M8.422 9.15v5.1m3.556-5.1v5.1"/>
</symbol>
<symbol id="upload" viewBox="0 0 18 18">
  <path stroke="currentColor" stroke-linecap="round" stroke-linejoin="round" stroke-width="2" d="M17 11.667v3.555A1.778 1.778 0 0 1 15.222 17H2.778A1.778 1.778 0 0 1 1 15.222v-3.555m12.444-6.223L9 1m0 0L4.556 5.444M9 1v10.667"/>
</symbol>
<symbol id="users-active" viewBox="0 0 24 24">
<path d="M10 23C7.11301 23 6.21527 22.9893 3.33358 22.9893C3.0952 22.9893 2.85153 23 2.62375 22.9519C2.30592 22.8824 2.05695 22.6527 2.05165 22.332C2.03576 21.0389 1.87684 19.7403 2.21056 18.4739C2.77207 16.3578 4.69497 14.7547 6.85624 14.573C7.18996 14.5463 7.52369 14.5302 7.86271 14.5302C10.702 14.5249 13.5466 14.5302 16.386 14.5249C17.8586 14.5249 19.167 14.9577 20.2582 15.9677C21.3601 16.983 21.9375 18.2601 21.9851 19.7617C22.0116 20.5366 21.9957 21.3114 21.9904 22.0862C21.9851 22.6473 21.6196 23 21.0687 23C18.044 23 16.0247 22.9893 13 22.9893C14.2351 22.9893 10 23 10 23ZM12.074 1.00001C9.0228 0.994665 6.59667 3.36192 6.59667 6.34905C6.59667 9.3148 9.0228 11.7248 12.0104 11.7195C14.9928 11.7141 17.403 9.32014 17.4083 6.36508C17.4136 3.42605 15.0034 1.00535 12.074 1.00001Z" fill="#1A1A1A"/>
</symbol>
<symbol id="users" viewBox="0 0 24 24">
<path d="M21.7782 23V20.5556C21.7782 19.2589 21.2631 18.0154 20.3463 17.0986C19.4294 16.1817 18.1859 15.6667 16.8893 15.6667H7.11155C5.81493 15.6667 4.57142 16.1817 3.65458 17.0986C2.73773 18.0154 2.22266 19.2589 2.22266 20.5556V23M16.8893 5.88889C16.8893 8.58895 14.7005 10.7778 12.0004 10.7778C9.30038 10.7778 7.11155 8.58895 7.11155 5.88889C7.11155 3.18883 9.30038 1 12.0004 1C14.7005 1 16.8893 3.18883 16.8893 5.88889Z" stroke="#424242" stroke-width="1.5" stroke-linecap="round" stroke-linejoin="round"/>
</symbol>
<symbol id="youtube" viewBox="0 0 36 36">
<mask id="path-1-inside-1_4601_1206" fill="white">
<path d="M18 4.5C18 4.5 29.2498 4.50004 32.0645 5.30566C32.829 5.52753 33.5254 5.95925 34.084 6.55762C34.6425 7.15603 35.0435 7.90053 35.2471 8.71582C35.9997 11.7251 36 18 36 18C36 18.002 35.9996 24.2754 35.2471 27.2842C35.0435 28.0995 34.6425 28.844 34.084 29.4424C33.5254 30.0408 32.829 30.4725 32.0645 30.6943C29.2498 31.5 18 31.5 18 31.5C18 31.5 6.75023 31.5 3.93555 30.6943C3.17102 30.4725 2.47456 30.0408 1.91602 29.4424C1.35746 28.844 0.956461 28.0995 0.75293 27.2842C0.000387586 24.2754 1.86025e-08 18.002 0 18C0 18 0.000269737 11.7251 0.75293 8.71582C0.956461 7.90053 1.35746 7.15603 1.91602 6.55762C2.47456 5.95925 3.17102 5.52753 3.93555 5.30566C6.75023 4.50004 18 4.5 18 4.5ZM13.5 24L25.5 18L13.5 12V24Z"/>
</mask>
<path d="M18 4.5C18 4.5 29.2498 4.50004 32.0645 5.30566C32.829 5.52753 33.5254 5.95925 34.084 6.55762C34.6425 7.15603 35.0435 7.90053 35.2471 8.71582C35.9997 11.7251 36 18 36 18C36 18.002 35.9996 24.2754 35.2471 27.2842C35.0435 28.0995 34.6425 28.844 34.084 29.4424C33.5254 30.0408 32.829 30.4725 32.0645 30.6943C29.2498 31.5 18 31.5 18 31.5C18 31.5 6.75023 31.5 3.93555 30.6943C3.17102 30.4725 2.47456 30.0408 1.91602 29.4424C1.35746 28.844 0.956461 28.0995 0.75293 27.2842C0.000387586 24.2754 1.86025e-08 18.002 0 18C0 18 0.000269737 11.7251 0.75293 8.71582C0.956461 7.90053 1.35746 7.15603 1.91602 6.55762C2.47456 5.95925 3.17102 5.52753 3.93555 5.30566C6.75023 4.50004 18 4.5 18 4.5ZM13.5 24L25.5 18L13.5 12V24Z" fill="#F26135"/>
<path d="M18 4.5L18 4.00099H18L18 4.5ZM32.0645 5.30566L32.2035 4.82643L32.2018 4.82592L32.0645 5.30566ZM34.084 6.55762L34.4488 6.21712L34.4488 6.21711L34.084 6.55762ZM35.2471 8.71582L34.7629 8.83668L34.763 8.8369L35.2471 8.71582ZM36 18L36.499 18V18L36 18ZM35.2471 27.2842L34.763 27.1631L34.7629 27.1633L35.2471 27.2842ZM34.084 29.4424L34.4488 29.7829L34.4488 29.7829L34.084 29.4424ZM32.0645 30.6943L32.2018 31.1741L32.2035 31.1736L32.0645 30.6943ZM18 31.5L18 31.999H18L18 31.5ZM3.93555 30.6943L3.79647 31.1736L3.79823 31.1741L3.93555 30.6943ZM1.91602 29.4424L1.55122 29.7829L1.55123 29.7829L1.91602 29.4424ZM0.75293 27.2842L1.23708 27.1633L1.23703 27.1631L0.75293 27.2842ZM0 18L-0.499008 18V18L0 18ZM0.75293 8.71582L1.23703 8.8369L1.23708 8.83668L0.75293 8.71582ZM1.91602 6.55762L1.55123 6.21711L1.55122 6.21712L1.91602 6.55762ZM3.93555 5.30566L3.79823 4.82592L3.79647 4.82643L3.93555 5.30566ZM13.5 24H13.001V24.8074L13.7232 24.4463L13.5 24ZM25.5 18L25.7232 18.4463L26.6158 18L25.7232 17.5537L25.5 18ZM13.5 12L13.7232 11.5537L13.001 11.1926V12H13.5ZM18 4.5C18 4.99901 18 4.99901 18.0001 4.99901C18.0002 4.99901 18.0003 4.99901 18.0004 4.99901C18.0008 4.99901 18.0012 4.99901 18.0019 4.99901C18.0032 4.99901 18.0052 4.99901 18.0079 4.99901C18.0132 4.99901 18.0212 4.99902 18.0318 4.99903C18.053 4.99906 18.0845 4.99911 18.1258 4.9992C18.2085 4.9994 18.3303 4.99979 18.4864 5.00058C18.7986 5.00215 19.2479 5.00529 19.796 5.01157C20.8925 5.02414 22.3831 5.04926 23.9608 5.09948C25.5394 5.14972 27.201 5.22496 28.6406 5.3374C30.0949 5.451 31.2783 5.59968 31.9271 5.78541L32.0645 5.30566L32.2018 4.82592C31.4433 4.60883 30.1649 4.45541 28.7183 4.34241C27.2569 4.22827 25.5783 4.15244 23.9926 4.10197C22.4061 4.05147 20.9083 4.02624 19.8075 4.01362C19.2569 4.00731 18.8054 4.00415 18.4914 4.00257C18.3344 4.00178 18.2117 4.00139 18.1282 4.00119C18.0865 4.00109 18.0545 4.00104 18.0329 4.00102C18.0222 4.001 18.014 4.001 18.0084 4.001C18.0057 4.00099 18.0036 4.00099 18.0022 4.00099C18.0015 4.00099 18.001 4.00099 18.0006 4.00099C18.0004 4.00099 18.0003 4.00099 18.0002 4.00099C18.0001 4.00099 18 4.00099 18 4.5ZM32.0645 5.30566L31.9254 5.7849C32.601 5.98098 33.2202 6.36355 33.7192 6.89812L34.084 6.55762L34.4488 6.21711C33.8307 5.55494 33.0569 5.07409 32.2035 4.82643L32.0645 5.30566ZM34.084 6.55762L33.7192 6.89811C34.2183 7.43285 34.5793 8.10115 34.7629 8.83668L35.2471 8.71582L35.7312 8.59496C35.5078 7.69991 35.0668 6.87922 34.4488 6.21712L34.084 6.55762ZM35.2471 8.71582L34.763 8.8369C35.126 10.2882 35.3131 12.5639 35.4074 14.5105C35.4541 15.4768 35.4776 16.3501 35.4893 16.9818C35.4951 17.2975 35.4981 17.5527 35.4995 17.7287C35.5003 17.8166 35.5006 17.8848 35.5008 17.9308C35.5009 17.9538 35.5009 17.9712 35.501 17.9829C35.501 17.9887 35.501 17.9931 35.501 17.9959C35.501 17.9974 35.501 17.9984 35.501 17.9991C35.501 17.9995 35.501 17.9997 35.501 17.9999C35.501 17.9999 35.501 18 35.501 18C35.501 18 35.501 18 36 18C36.499 18 36.499 17.9999 36.499 17.9998C36.499 17.9998 36.499 17.9997 36.499 17.9996C36.499 17.9993 36.499 17.999 36.499 17.9986C36.499 17.9978 36.499 17.9965 36.499 17.9949C36.499 17.9918 36.499 17.9871 36.499 17.9809C36.499 17.9686 36.4989 17.9505 36.4988 17.9268C36.4986 17.8794 36.4983 17.8098 36.4975 17.7203C36.496 17.5414 36.493 17.2828 36.4871 16.9633C36.4753 16.3244 36.4516 15.4409 36.4042 14.4623C36.3101 12.5191 36.1208 10.1528 35.7312 8.59474L35.2471 8.71582ZM36 18L35.501 18C35.501 17.9971 35.5009 19.557 35.4073 21.4904C35.3131 23.4368 35.1259 25.7121 34.763 27.1631L35.2471 27.2842L35.7312 27.4053C36.1208 25.8475 36.3101 23.4816 36.4042 21.5387C36.4989 19.5826 36.499 18.0048 36.499 18L36 18ZM35.2471 27.2842L34.7629 27.1633C34.5793 27.8989 34.2183 28.5672 33.7192 29.1019L34.084 29.4424L34.4488 29.7829C35.0668 29.1208 35.5078 28.3001 35.7312 27.405L35.2471 27.2842ZM34.084 29.4424L33.7192 29.1019C33.2202 29.6364 32.601 30.019 31.9254 30.2151L32.0645 30.6943L32.2035 31.1736C33.0569 30.9259 33.8307 30.4451 34.4488 29.7829L34.084 29.4424ZM32.0645 30.6943L31.9271 30.2146C31.2783 30.4003 30.0949 30.549 28.6406 30.6626C27.201 30.775 25.5394 30.8503 23.9608 30.9005C22.3831 30.9507 20.8925 30.9759 19.796 30.9884C19.2479 30.9947 18.7986 30.9979 18.4864 30.9994C18.3303 31.0002 18.2085 31.0006 18.1258 31.0008C18.0845 31.0009 18.053 31.0009 18.0318 31.001C18.0212 31.001 18.0132 31.001 18.0079 31.001C18.0052 31.001 18.0032 31.001 18.0019 31.001C18.0012 31.001 18.0008 31.001 18.0004 31.001C18.0003 31.001 18.0002 31.001 18.0001 31.001C18 31.001 18 31.001 18 31.5C18 31.999 18.0001 31.999 18.0002 31.999C18.0003 31.999 18.0004 31.999 18.0006 31.999C18.001 31.999 18.0015 31.999 18.0022 31.999C18.0036 31.999 18.0057 31.999 18.0084 31.999C18.014 31.999 18.0222 31.999 18.0329 31.999C18.0545 31.999 18.0865 31.9989 18.1282 31.9988C18.2117 31.9986 18.3344 31.9982 18.4914 31.9974C18.8054 31.9958 19.2569 31.9927 19.8075 31.9864C20.9083 31.9738 22.4061 31.9485 23.9926 31.898C25.5783 31.8476 27.2569 31.7717 28.7183 31.6576C30.1649 31.5446 31.4433 31.3912 32.2018 31.1741L32.0645 30.6943ZM18 31.5C18 31.001 18 31.001 17.9999 31.001C17.9998 31.001 17.9997 31.001 17.9996 31.001C17.9992 31.001 17.9988 31.001 17.9981 31.001C17.9968 31.001 17.9948 31.001 17.9921 31.001C17.9868 31.001 17.9788 31.001 17.9682 31.001C17.947 31.0009 17.9155 31.0009 17.8742 31.0008C17.7915 31.0006 17.6697 31.0002 17.5136 30.9994C17.2014 30.9979 16.7521 30.9947 16.204 30.9884C15.1075 30.9759 13.6169 30.9507 12.0392 30.9005C10.4606 30.8503 8.79902 30.775 7.35942 30.6626C5.90508 30.549 4.72175 30.4003 4.07286 30.2146L3.93555 30.6943L3.79823 31.1741C4.55669 31.3912 5.83508 31.5446 7.2817 31.6576C8.74307 31.7717 10.4217 31.8476 12.0074 31.898C13.5939 31.9485 15.0917 31.9738 16.1925 31.9864C16.7431 31.9927 17.1946 31.9958 17.5086 31.9974C17.6656 31.9982 17.7883 31.9986 17.8718 31.9988C17.9135 31.9989 17.9455 31.999 17.9671 31.999C17.9778 31.999 17.986 31.999 17.9916 31.999C17.9943 31.999 17.9964 31.999 17.9978 31.999C17.9985 31.999 17.999 31.999 17.9994 31.999C17.9996 31.999 17.9997 31.999 17.9998 31.999C17.9999 31.999 18 31.999 18 31.5ZM3.93555 30.6943L4.07462 30.2151C3.39896 30.019 2.77978 29.6364 2.2808 29.1019L1.91602 29.4424L1.55123 29.7829C2.16934 30.4451 2.94308 30.9259 3.79647 31.1736L3.93555 30.6943ZM1.91602 29.4424L2.28081 29.1019C1.78169 28.5672 1.4207 27.8989 1.23708 27.1633L0.75293 27.2842L0.26878 27.405C0.492221 28.3001 0.933229 29.1208 1.55122 29.7829L1.91602 29.4424ZM0.75293 27.2842L1.23703 27.1631C0.874101 25.7121 0.686933 23.4368 0.592686 21.4904C0.499071 19.557 0.499008 17.9971 0.499008 18L0 18L-0.499008 18C-0.499008 18.0048 -0.498877 19.5826 -0.404163 21.5387C-0.310081 23.4816 -0.120784 25.8475 0.268833 27.4053L0.75293 27.2842ZM0 18C0.499008 18 0.499008 18 0.499008 18C0.499008 18 0.499008 17.9999 0.499008 17.9999C0.499008 17.9997 0.499008 17.9995 0.499009 17.9991C0.499009 17.9984 0.49901 17.9974 0.499011 17.9959C0.499014 17.9931 0.49902 17.9887 0.499031 17.9829C0.499054 17.9712 0.4991 17.9538 0.499191 17.9308C0.499374 17.8848 0.49974 17.8166 0.500472 17.7287C0.501937 17.5527 0.504867 17.2975 0.510725 16.9818C0.522444 16.3501 0.545866 15.4768 0.592642 14.5105C0.686875 12.5639 0.874044 10.2882 1.23703 8.8369L0.75293 8.71582L0.268833 8.59474C-0.120844 10.1528 -0.31014 12.5191 -0.404207 14.4623C-0.451581 15.4409 -0.475268 16.3244 -0.48712 16.9633C-0.493048 17.2828 -0.496019 17.5414 -0.497509 17.7203C-0.498254 17.8098 -0.498629 17.8794 -0.498817 17.9268C-0.498912 17.9505 -0.498959 17.9686 -0.498983 17.9809C-0.498996 17.9871 -0.499002 17.9918 -0.499005 17.9949C-0.499006 17.9965 -0.499007 17.9978 -0.499008 17.9986C-0.499008 17.999 -0.499008 17.9993 -0.499008 17.9996C-0.499008 17.9997 -0.499008 17.9998 -0.499008 17.9998C-0.499008 17.9999 -0.499008 18 0 18ZM0.75293 8.71582L1.23708 8.83668C1.4207 8.10115 1.78169 7.43285 2.28081 6.89811L1.91602 6.55762L1.55122 6.21712C0.933229 6.87922 0.492221 7.69991 0.26878 8.59496L0.75293 8.71582ZM1.91602 6.55762L2.2808 6.89812C2.77978 6.36355 3.39896 5.98098 4.07462 5.7849L3.93555 5.30566L3.79647 4.82643C2.94308 5.07409 2.16934 5.55494 1.55123 6.21711L1.91602 6.55762ZM3.93555 5.30566L4.07286 5.78541C4.72175 5.59968 5.90508 5.451 7.35942 5.3374C8.79901 5.22496 10.4606 5.14972 12.0392 5.09948C13.6169 5.04926 15.1075 5.02414 16.204 5.01157C16.7521 5.00529 17.2014 5.00215 17.5136 5.00058C17.6697 4.99979 17.7915 4.9994 17.8742 4.9992C17.9155 4.99911 17.947 4.99906 17.9682 4.99903C17.9788 4.99902 17.9868 4.99901 17.9921 4.99901C17.9948 4.99901 17.9968 4.99901 17.9981 4.99901C17.9988 4.99901 17.9992 4.99901 17.9996 4.99901C17.9997 4.99901 17.9998 4.99901 17.9999 4.99901C18 4.99901 18 4.99901 18 4.5C18 4.00099 17.9999 4.00099 17.9998 4.00099C17.9997 4.00099 17.9996 4.00099 17.9994 4.00099C17.999 4.00099 17.9985 4.00099 17.9978 4.00099C17.9964 4.00099 17.9943 4.00099 17.9916 4.001C17.986 4.001 17.9778 4.001 17.9671 4.00102C17.9455 4.00104 17.9135 4.00109 17.8718 4.00119C17.7883 4.00139 17.6656 4.00178 17.5086 4.00257C17.1946 4.00415 16.7431 4.00731 16.1925 4.01362C15.0917 4.02624 13.5939 4.05147 12.0074 4.10197C10.4217 4.15244 8.74307 4.22827 7.2817 4.34241C5.83508 4.45541 4.55669 4.60883 3.79823 4.82592L3.93555 5.30566ZM13.5 24L13.7232 24.4463L25.7232 18.4463L25.5 18L25.2768 17.5537L13.2768 23.5537L13.5 24ZM25.5 18L25.7232 17.5537L13.7232 11.5537L13.5 12L13.2768 12.4463L25.2768 18.4463L25.5 18ZM13.5 12H13.001V24H13.5H13.999V12H13.5Z" fill="#F26135" mask="url(#path-1-inside-1_4601_1206)"/>
</symbol>
</svg>