<svg width="12" height="12" viewBox="0 0 12 12" fill="none" xmlns="http://www.w3.org/2000/svg">
<path d="M11.5386 9.4529L7.06804 1.2187C6.94968 1.00124 6.77488 0.819715 6.56204 0.693235C6.3492 0.566754 6.1062 0.5 5.85861 0.5C5.61103 0.5 5.36802 0.566754 5.15518 0.693235C4.94234 0.819715 4.76754 1.00124 4.64919 1.2187L0.17408 9.4529C0.0569491 9.66314 -0.00303112 9.90041 0.000117903 10.1411C0.00326693 10.3817 0.0694352 10.6173 0.192027 10.8244C0.314619 11.0315 0.489353 11.2029 0.698811 11.3214C0.90827 11.44 1.14514 11.5015 1.3858 11.5H10.3268C10.5655 11.5002 10.8002 11.4384 11.0078 11.3205C11.2153 11.2027 11.3887 11.033 11.5109 10.8279C11.6331 10.6229 11.6999 10.3896 11.7048 10.1509C11.7096 9.9123 11.6523 9.6765 11.5386 9.46667V9.4529ZM5.17243 3.57789C5.17243 3.39529 5.24496 3.22017 5.37408 3.09106C5.50319 2.96195 5.67831 2.88941 5.86091 2.88941C6.0435 2.88941 6.21862 2.96195 6.34773 3.09106C6.47685 3.22017 6.54938 3.39529 6.54938 3.57789V6.74029C6.54938 6.92289 6.47685 7.09801 6.34773 7.22712C6.21862 7.35624 6.0435 7.42877 5.86091 7.42877C5.67831 7.42877 5.50319 7.35624 5.37408 7.22712C5.24496 7.09801 5.17243 6.92289 5.17243 6.74029V3.57789ZM5.87927 9.77878C5.72313 9.77878 5.57049 9.73248 5.44067 9.64573C5.31084 9.55898 5.20966 9.43569 5.1499 9.29143C5.09015 9.14718 5.07452 8.98845 5.10498 8.83531C5.13544 8.68217 5.21063 8.5415 5.32104 8.43109C5.43144 8.32069 5.57211 8.2455 5.72525 8.21504C5.87839 8.18458 6.03712 8.20021 6.18138 8.25996C6.32563 8.31971 6.44893 8.4209 6.53567 8.55072C6.62242 8.68055 6.66872 8.83318 6.66872 8.98932C6.66872 9.1987 6.58555 9.3995 6.43749 9.54755C6.28944 9.6956 6.08864 9.77878 5.87927 9.77878Z" fill="white"/>
</svg>
