<svg width="24" height="24" viewBox="0 0 24 24" fill="none" xmlns="http://www.w3.org/2000/svg">
<path d="M2 15.75C2 14.3693 3.11929 13.25 4.5 13.25H8.25C9.63071 13.25 10.75 14.3693 10.75 15.75V19.5C10.75 20.8807 9.63071 22 8.25 22H4.5C3.11929 22 2 20.8807 2 19.5V15.75Z" stroke="#424242"/>
<path d="M2 4.5C2 3.11929 3.11929 2 4.5 2H8.25C9.63071 2 10.75 3.11929 10.75 4.5V8.25C10.75 9.63071 9.63071 10.75 8.25 10.75H4.5C3.11929 10.75 2 9.63071 2 8.25V4.5Z" stroke="#424242"/>
<path d="M13.25 15.75C13.25 14.3693 14.3693 13.25 15.75 13.25H19.5C20.8807 13.25 22 14.3693 22 15.75V19.5C22 20.8807 20.8807 22 19.5 22H15.75C14.3693 22 13.25 20.8807 13.25 19.5V15.75Z" stroke="#424242"/>
<path d="M13.25 4.5C13.25 3.11929 14.3693 2 15.75 2H19.5C20.8807 2 22 3.11929 22 4.5V8.25C22 9.63071 20.8807 10.75 19.5 10.75H15.75C14.3693 10.75 13.25 9.63071 13.25 8.25V4.5Z" stroke="#424242"/>
</svg>
