<svg width="33" height="33" viewBox="0 0 33 33" fill="none" xmlns="http://www.w3.org/2000/svg">
<path d="M10.2 9.4C9.64771 9.4 9.2 9.84771 9.2 10.4C9.2 10.9523 9.64771 11.4 10.2 11.4V10.4V9.4ZM22.2 11.4C22.7523 11.4 23.2 10.9523 23.2 10.4C23.2 9.84771 22.7523 9.4 22.2 9.4V10.4V11.4ZM10.2 13.1C9.64771 13.1 9.2 13.5477 9.2 14.1C9.2 14.6523 9.64771 15.1 10.2 15.1V14.1V13.1ZM22.1 15.1C22.6523 15.1 23.1 14.6523 23.1 14.1C23.1 13.5477 22.6523 13.1 22.1 13.1V14.1V15.1ZM15.2 23.8C15.2 24.3523 15.6477 24.8 16.2 24.8C16.7523 24.8 17.2 24.3523 17.2 23.8H16.2H15.2ZM31.4 16.2H30.4C30.4 24.0424 24.0424 30.4 16.2 30.4V31.4V32.4C25.147 32.4 32.4 25.147 32.4 16.2H31.4ZM16.2 31.4V30.4C8.35756 30.4 2 24.0424 2 16.2H1H0C0 25.147 7.25299 32.4 16.2 32.4V31.4ZM1 16.2H2C2 8.35756 8.35756 2 16.2 2V1V0C7.25299 0 0 7.25299 0 16.2H1ZM16.2 1V2C24.0424 2 30.4 8.35756 30.4 16.2H31.4H32.4C32.4 7.25299 25.147 0 16.2 0V1ZM10.2 10.4V11.4H22.2V10.4V9.4H10.2V10.4ZM16.2 23.8H17.2V14.3H16.2H15.2V23.8H16.2ZM10.2 14.1V15.1H16.15V14.1V13.1H10.2V14.1ZM16.15 14.1V15.1H22.1V14.1V13.1H16.15V14.1Z" fill="#424242"/>
</svg>
