<svg width="24" height="24" viewBox="0 0 24 24" fill="none" xmlns="http://www.w3.org/2000/svg">
<path d="M21.8996 4.3C21.8996 6.12254 17.4672 7.6 11.9996 7.6C6.53199 7.6 2.09961 6.12254 2.09961 4.3M21.8996 4.3C21.8996 2.47746 17.4672 1 11.9996 1C6.53199 1 2.09961 2.47746 2.09961 4.3M21.8996 4.3V19.7C21.8996 21.526 17.4996 23 11.9996 23C6.49961 23 2.09961 21.526 2.09961 19.7V4.3M21.8996 12C21.8996 13.826 17.4996 15.3 11.9996 15.3C6.49961 15.3 2.09961 13.826 2.09961 12" stroke="#424242" stroke-width="1.5" stroke-linecap="round" stroke-linejoin="round"/>
</svg>
