<svg width="24" height="24" viewBox="0 0 24 24" fill="none" xmlns="http://www.w3.org/2000/svg">
<path d="M2.00684 6.08839C2.11964 6.14949 2.20509 6.20041 2.29397 6.24793C3.40489 6.85554 4.60468 7.22214 5.83866 7.48351C8.24509 7.99268 10.6823 8.14883 13.14 8.07075C15.0747 8.00965 16.9889 7.79241 18.8655 7.31718C19.932 7.04563 20.9711 6.69939 21.9214 6.13252C21.9351 6.12573 21.9521 6.12233 21.9966 6.10536C21.9966 6.18004 21.9966 6.24453 21.9966 6.30563C21.9966 8.15562 21.9932 10.0056 22 11.8556C22 12.1203 21.9043 12.324 21.7265 12.5039C21.3266 12.9045 20.8344 13.1658 20.3182 13.3831C19.2142 13.8515 18.052 14.1231 16.8727 14.3301C15.355 14.5949 13.8236 14.7103 12.2854 14.7171C9.9542 14.7307 7.6469 14.5406 5.38404 13.9534C4.54999 13.7361 3.73646 13.4646 2.99128 13.0267C2.72124 12.8671 2.47513 12.6567 2.23928 12.4496C2.07178 12.307 2.00342 12.1068 2.00342 11.8759C2.01025 10.0158 2.00684 8.15222 2.00684 6.29206C2.00684 6.23096 2.00684 6.17325 2.00684 6.08839ZM2.00684 14.5847C2.00684 16.4347 2.01025 18.2847 2.00342 20.1347C2.00342 20.3859 2.0752 20.6031 2.25978 20.7525C2.55375 20.9901 2.85455 21.2311 3.1827 21.4144C3.91762 21.8183 4.71407 22.0729 5.5276 22.2766C7.74261 22.8299 9.99863 23.0098 12.2752 22.9996C13.8715 22.9894 15.4575 22.8672 17.0299 22.5855C18.1784 22.3784 19.3099 22.1035 20.3866 21.635C20.8857 21.4178 21.3574 21.1598 21.7402 20.766C21.9077 20.5929 21.9966 20.396 21.9966 20.1449C21.9897 18.2881 21.9932 16.4347 21.9932 14.5779C21.9932 14.5202 21.9932 14.4591 21.9932 14.3845C21.9487 14.4048 21.9282 14.4082 21.9077 14.4218C20.9609 14.9853 19.9251 15.3281 18.8655 15.5963C16.7086 16.1462 14.5073 16.3498 12.2854 16.3668C10.5421 16.3804 8.80226 16.2718 7.07947 15.9968C5.85917 15.8033 4.65254 15.5386 3.5006 15.0803C2.9947 14.88 2.50931 14.6322 2 14.4014C2.00684 14.4625 2.00684 14.5236 2.00684 14.5847ZM7.66741 1.30559C6.47445 1.48889 5.29516 1.73669 4.16031 2.15421C3.5006 2.39521 2.86139 2.68035 2.3384 3.16236C1.91113 3.55612 1.90771 3.86162 2.32473 4.26556C2.6939 4.62198 3.13827 4.85959 3.60314 5.06326C4.69356 5.54188 5.83866 5.82023 7.00427 6.03068C8.68946 6.33618 10.3917 6.4516 12.1008 6.4516C13.7074 6.4516 15.3071 6.33618 16.8932 6.05105C18.0588 5.84399 19.2073 5.57243 20.3046 5.10739C20.8481 4.87996 21.3642 4.6084 21.771 4.17052C22.0684 3.85144 22.0752 3.5697 21.7607 3.26759C21.5385 3.05374 21.289 2.85686 21.019 2.70072C20.1268 2.18136 19.1424 1.88265 18.1374 1.64504C16.1104 1.17321 14.0492 1.00009 11.6633 1.00009C10.5285 0.996696 9.0928 1.08835 7.66741 1.30559Z" fill="#1A1A1A"/>
</svg>
