<svg width="20" height="20" viewBox="0 0 20 20" fill="none" xmlns="http://www.w3.org/2000/svg">
<path d="M1.90398 5.16323C1.99534 5.21322 2.06456 5.25488 2.13655 5.29376C3.0364 5.79089 4.00823 6.09084 5.00775 6.30469C6.95696 6.72128 8.93108 6.84904 10.9218 6.78516C12.4889 6.73517 14.0394 6.55742 15.5595 6.1686C16.4233 5.94642 17.265 5.66314 18.0348 5.19933C18.0458 5.19378 18.0597 5.191 18.0957 5.17711C18.0957 5.23821 18.0957 5.29098 18.0957 5.34097C18.0957 6.85459 18.0929 8.36822 18.0984 9.88184C18.0984 10.0985 18.0209 10.2651 17.8769 10.4123C17.553 10.74 17.1543 10.9539 16.7362 11.1316C15.8419 11.5149 14.9005 11.7371 13.9453 11.9065C12.716 12.1231 11.4756 12.2175 10.2296 12.2231C8.34134 12.2342 6.47242 12.0787 4.63951 11.5982C3.96393 11.4205 3.30497 11.1983 2.70138 10.84C2.48265 10.7095 2.28329 10.5373 2.09225 10.3679C1.95658 10.2512 1.90121 10.0874 1.90121 9.8985C1.90674 8.37655 1.90398 6.85182 1.90398 5.32986C1.90398 5.27987 1.90398 5.23266 1.90398 5.16323ZM1.90398 12.1148C1.90398 13.6284 1.90674 15.142 1.90121 16.6556C1.90121 16.8612 1.95935 17.0389 2.10886 17.1611C2.34698 17.3555 2.59063 17.5527 2.85643 17.7027C3.45171 18.0332 4.09683 18.2415 4.7558 18.4081C6.54995 18.8608 8.37733 19.008 10.2213 18.9997C11.5143 18.9913 12.799 18.8914 14.0727 18.6608C15.003 18.4914 15.9194 18.2665 16.7916 17.8832C17.1958 17.7055 17.5779 17.4944 17.888 17.1722C18.0237 17.0306 18.0957 16.8695 18.0957 16.664C18.0901 15.1448 18.0929 13.6284 18.0929 12.1092C18.0929 12.062 18.0929 12.012 18.0929 11.9509C18.0569 11.9676 18.0403 11.9704 18.0237 11.9815C17.2567 12.4425 16.4178 12.723 15.5595 12.9424C13.8124 13.3923 12.0293 13.559 10.2296 13.5729C8.81756 13.584 7.40827 13.4951 6.01281 13.2701C5.02436 13.1118 4.04699 12.8952 3.11392 12.5203C2.70415 12.3564 2.31098 12.1537 1.89844 11.9648C1.90398 12.0148 1.90398 12.0648 1.90398 12.1148ZM6.48904 1.25003C5.52274 1.4 4.56752 1.60275 3.64829 1.94435C3.11392 2.14154 2.59616 2.37483 2.17254 2.76921C1.82645 3.09137 1.82368 3.34133 2.16147 3.67182C2.4605 3.96344 2.82043 4.15785 3.19698 4.32449C4.08022 4.71608 5.00775 4.94382 5.9519 5.11601C7.3169 5.36597 8.69574 5.4604 10.0801 5.4604C11.3814 5.4604 12.6772 5.36597 13.9619 5.13268C14.9061 4.96326 15.8364 4.74108 16.7251 4.36059C17.1654 4.17451 17.5834 3.95233 17.9129 3.59406C18.1538 3.33299 18.1593 3.10248 17.9046 2.8553C17.7247 2.68033 17.5225 2.51925 17.3038 2.39149C16.5812 1.96657 15.7838 1.72217 14.9697 1.52776C13.3279 1.14172 11.6583 1.00007 9.72572 1.00007C8.80649 0.997297 7.64361 1.07228 6.48904 1.25003Z" fill="#424242"/>
</svg>
