<svg xmlns="http://www.w3.org/2000/svg" width="54" height="56" fill="currentColor" viewBox="0 0 54 56">
  <path d="M43.236 22.459c-1.158.65-2.052 1.24-3.027 1.687-3.21 1.524-6.623 2.235-10.118 2.682-6.46.813-12.9.61-19.26-.752-3.128-.67-6.135-1.646-8.857-3.678-.04.366-.102.59-.122.833 0 2.134 0 4.268-.02 6.402a2.45 2.45 0 0 0 1.015 2.032c.996.711 2.052 1.443 3.17 1.93 3.86 1.687 7.943 2.398 12.128 2.724 1.443.122 2.885.122 4.328.183.731.02 1.076.304 1.076.853 0 .59-.365.955-1.137.915-2.418-.122-4.856-.143-7.253-.488-2.418-.346-4.815-.955-7.192-1.524-1.99-.488-3.82-1.382-5.506-2.56-.142-.102-.325-.184-.63-.387v2.195c0 1.605.062 3.21-.02 4.816-.06 1.2.386 2.114 1.32 2.683 1.321.833 2.703 1.666 4.166 2.174 5.384 1.89 10.99 2.398 16.659 2.317.366 0 .731-.02 1.077 0 .467.04.812.305.833.813.02.528-.305.833-.813.935-.122.02-.264.02-.386.02-5.526.122-11.011-.244-16.354-1.809-2.012-.59-4.003-1.32-5.71-2.56-.71-.508-1.38-1.138-1.848-1.87-.406-.65-.711-1.524-.711-2.296-.061-10.771-.04-21.562-.04-32.353 0-1.626.873-2.805 2.071-3.74 1.687-1.28 3.617-2.113 5.648-2.723C12.315.552 17.008.063 21.782.003c4.998-.04 9.955.345 14.79 1.707 2.275.63 4.47 1.504 6.4 2.926 1.381 1.037 2.092 2.358 2.092 4.105-.02 4.898-.02 9.775-.02 14.673 0 .305 0 .59-.02.894-.061.732-.366 1.077-.915 1.077-.528 0-.873-.386-.894-1.077 0-.569.02-1.117.02-1.85Zm-20.58-7.845c4.57-.02 9.101-.487 13.51-1.727 2.174-.61 4.327-1.341 6.074-2.906 1.26-1.118 1.32-2.48.02-3.516a14.626 14.626 0 0 0-2.986-1.849c-3.494-1.565-7.212-2.215-10.97-2.58a62.312 62.312 0 0 0-11.682 0c-3.312.304-6.583.853-9.67 2.092-1.423.57-2.804 1.3-4.023 2.215-1.483 1.118-1.382 2.5.02 3.72.203.162.406.324.63.467 1.585 1.097 3.352 1.788 5.18 2.296 4.551 1.28 9.204 1.768 13.897 1.788Zm20.478-2.865c-.284.142-.467.264-.65.346-1.361.65-2.661 1.442-4.063 1.93-3.8 1.341-7.74 1.971-11.743 2.215-4.733.285-9.447.163-14.1-.711-3.636-.63-7.211-1.483-10.32-3.638-.08-.06-.223-.04-.406-.08 0 2.113.081 4.145-.02 6.177-.082 1.463.487 2.48 1.625 3.231.67.447 1.361.955 2.113 1.24 1.828.69 3.677 1.402 5.587 1.829 5.505 1.24 11.092 1.504 16.7.975 3.23-.305 6.44-.833 9.507-1.93 1.666-.61 3.312-1.26 4.673-2.439.65-.569 1.178-1.24 1.178-2.174v-6.097c0-.264-.04-.508-.08-.874Zm-8.289 19.875c.59-.244 1.118-.467 1.727-.731.142-.732.325-1.464.467-2.216.122-.69.529-1.036 1.199-1.036 1.178-.02 2.357-.04 3.515 0 .873.04 1.097.285 1.28 1.179l.426 2.073c.57.244 1.118.487 1.747.752a50.882 50.882 0 0 1 1.544-1.057c.955-.63 1.321-.63 2.134.122a23.014 23.014 0 0 1 2.173 2.276c.712.833.67.996.02 1.95-.345.509-.67 1.037-1.035 1.586.203.528.406 1.036.63 1.626.69.142 1.422.264 2.133.406.833.163 1.097.386 1.137 1.22.061 1.24.02 2.458 0 3.698-.02.63-.325 1.016-.995 1.138-.732.122-1.443.285-2.235.447-.203.529-.427 1.057-.65 1.687.386.59.772 1.22 1.199 1.829.365.528.406 1.057-.041 1.524-.853.894-1.707 1.768-2.6 2.642-.488.467-1.016.467-1.585.061s-1.178-.793-1.829-1.22c-.568.245-1.158.488-1.767.753-.142.752-.305 1.463-.427 2.194-.122.63-.447 1.017-1.117 1.017-1.24.02-2.458.02-3.698 0-.63 0-1.036-.305-1.137-.976-.122-.732-.305-1.443-.468-2.235-.528-.244-1.097-.488-1.706-.773-.63.427-1.28.834-1.89 1.28-.528.387-1.036.387-1.503-.06-.914-.915-1.828-1.83-2.702-2.785-.386-.406-.366-.894-.04-1.361.426-.63.853-1.28 1.259-1.89-.224-.61-.427-1.118-.63-1.687-.792-.162-1.564-.325-2.356-.467-.529-.102-.874-.386-.874-.915-.02-1.361-.04-2.703 0-4.064.02-.67.488-.955 1.097-1.037.69-.101 1.381-.243 2.093-.345.243-.59.467-1.138.69-1.707-.426-.65-.833-1.3-1.28-1.93-.345-.468-.345-.935.041-1.342a86.753 86.753 0 0 1 2.702-2.784c.467-.447.996-.407 1.524-.04a45.26 45.26 0 0 1 1.828 1.198Zm-2.64 19.631c.73-.508 1.32-.894 1.889-1.3.447-.325.873-.366 1.381-.102.65.325 1.34.61 2.032.874.426.163.65.407.731.854.122.731.284 1.442.427 2.235h2.783c.122-.732.264-1.402.366-2.073.08-.528.325-.874.873-1.056a10.3 10.3 0 0 0 1.87-.813c.568-.305 1.035-.265 1.523.121.528.407 1.117.773 1.767 1.22.63-.65 1.24-1.28 1.87-1.91-.407-.63-.691-1.18-1.077-1.667-.447-.549-.508-1.077-.163-1.707a10.34 10.34 0 0 0 .711-1.707c.163-.549.468-.833 1.036-.894.691-.081 1.382-.244 2.113-.386V40.18c-.71-.122-1.34-.264-1.97-.346-.65-.08-1.057-.345-1.22-1.036-.142-.569-.406-1.097-.67-1.605-.304-.55-.304-1.037.082-1.545.406-.528.772-1.118 1.239-1.788-.67-.63-1.32-1.22-2.032-1.89-.589.406-1.178.792-1.747 1.219-.447.325-.873.366-1.381.102-.57-.305-1.158-.61-1.788-.773-.67-.182-.955-.569-1.057-1.219-.101-.67-.264-1.32-.386-1.971h-2.742c-.143.772-.325 1.463-.407 2.174-.08.59-.386.834-.914.996a10.43 10.43 0 0 0-1.706.711c-.63.346-1.158.305-1.707-.142-.508-.406-1.056-.731-1.625-1.138-.691.67-1.341 1.28-1.97 1.87.507.752.893 1.361 1.32 1.971.284.406.304.772.06 1.199a9.241 9.241 0 0 0-.751 1.788c-.183.671-.549.976-1.22 1.057-.67.081-1.32.224-1.99.325v2.805c.772.142 1.463.284 2.153.386.57.081.854.386 1.037.914.203.59.406 1.179.69 1.707.325.61.264 1.098-.122 1.626-.406.529-.751 1.118-1.097 1.626.63.732 1.199 1.382 1.788 2.052Zm7.861-16.095c3.15-.142 6.44 2.52 6.42 6.503-.02 3.638-2.925 6.382-6.582 6.32-3.535-.04-6.339-2.966-6.278-6.543.04-3.516 2.926-6.32 6.44-6.28Zm4.694 6.422c0-2.682-2.093-4.755-4.775-4.715-2.54.02-4.672 2.155-4.672 4.675 0 2.641 2.133 4.795 4.774 4.775 2.6-.02 4.672-2.093 4.672-4.735Z"/>
</svg>
