<svg width="24" height="24" viewBox="0 0 24 24" fill="none" xmlns="http://www.w3.org/2000/svg">
<path d="M13.6507 1.00549V8.95745C13.6507 9.21596 13.8566 9.42553 14.1106 9.42553H21.9294V20.1302C21.9293 20.897 21.6221 21.6286 21.0814 22.1653C20.5411 22.7015 19.8117 23 19.0548 23H5.94683C5.18999 23 4.46061 22.7015 3.92026 22.1653C3.37953 21.6286 3.07236 20.897 3.07227 20.1302V3.86976C3.07236 3.10299 3.37954 2.3714 3.92026 1.83469C4.46061 1.29847 5.18999 1 5.94683 1H13.5932C13.6125 1 13.6315 1.00385 13.6507 1.00549Z" fill="#1A1A1A"/>
<path d="M21.421 8.48936H14.5705V1.69116L21.421 8.48936Z" fill="#1A1A1A"/>
</svg>
