<svg width="20" height="20" viewBox="0 0 20 20" fill="none" xmlns="http://www.w3.org/2000/svg">
<path d="M11.4402 1.00449V7.51064C11.4402 7.72215 11.6087 7.89362 11.8165 7.89362H18.2137V16.652C18.2137 17.2794 17.9623 17.8779 17.5199 18.3171C17.0778 18.7558 16.481 19 15.8618 19H5.13707C4.51784 19 3.92107 18.7558 3.47897 18.3171C3.03656 17.8779 2.78523 17.2794 2.78516 16.652V3.34799C2.78523 2.72063 3.03656 2.12205 3.47897 1.68293C3.92107 1.24421 4.51784 1 5.13707 1H11.3932C11.409 1 11.4246 1.00315 11.4402 1.00449Z" fill="#424242"/>
<path d="M17.7977 7.12766H12.1928V1.56549L17.7977 7.12766Z" fill="#424242"/>
</svg>
