<svg xmlns="http://www.w3.org/2000/svg" width="20" height="20" fill="none" viewBox="0 0 20 20">
  <path stroke="currentColor" stroke-linecap="round" stroke-linejoin="round" d="M6.731 14.669 10.002 18m0 0 3.27-3.331M10.003 18v-7.495m7.261 5.072a4.159 4.159 0 0 0 1.522-2.075 4.238 4.238 0 0 0 .024-2.59 4.162 4.162 0 0 0-1.483-2.102 4.039 4.039 0 0 0-2.418-.804h-1.03a6.707 6.707 0 0 0-1.346-2.651 6.553 6.553 0 0 0-2.347-1.787 6.439 6.439 0 0 0-5.71.21A6.578 6.578 0 0 0 2.26 5.73a6.726 6.726 0 0 0-1.155 2.743 6.781 6.781 0 0 0 .137 2.982 6.7 6.7 0 0 0 1.4 2.622"/>
</svg>
