<svg xmlns="http://www.w3.org/2000/svg" width="24" height="21" fill="none" viewBox="0 0 24 21">
  <path stroke="currentColor" stroke-linecap="round" stroke-linejoin="round" stroke-width="2" d="m16.016 14.69-4.026-4.174m0 0L7.965 14.69m4.025-4.173V20m8.906-3.161c.854-.632 1.463-1.518 1.83-2.656.366-1.011.366-2.15 0-3.287-.366-1.012-.976-2.023-1.83-2.656-.854-.632-1.83-1.011-2.928-1.011h-1.22c-.244-1.265-.854-2.403-1.586-3.414a7.096 7.096 0 0 0-2.806-2.276c-1.22-.38-2.44-.633-3.66-.506-1.22 0-2.44.38-3.415 1.011a6.29 6.29 0 0 0-2.684 2.403c-.732 1.012-1.22 2.276-1.464 3.414-.244 1.265-.122 2.529.122 3.794.366 1.264.854 2.402 1.708 3.287"/>
</svg>
