<svg xmlns="http://www.w3.org/2000/svg" width="57" height="53" fill="currentColor" viewBox="0 0 57 53">
  <path d="M13.695 19.913a3.232 3.232 0 0 1-1.058 1.404c-.51.401-.985.675-1.422.82v1.533a5.66 5.66 0 0 0 2.17-1.277v6.346h1.678v-8.826h-1.368Zm8.498 5.58c-.146.639-.402 1.113-.73 1.423a1.842 1.842 0 0 1-1.222.456c-.638 0-1.148-.238-1.55-.712-.4-.474-.601-1.258-.601-2.37 0-1.04.2-1.806.601-2.28.402-.474.93-.693 1.587-.693.474 0 .875.128 1.203.401.329.256.547.62.657 1.076l1.75-.419c-.2-.711-.492-1.24-.893-1.623-.675-.638-1.55-.948-2.608-.948-1.221 0-2.224.4-2.972 1.222-.748.802-1.13 1.95-1.13 3.41 0 1.386.382 2.461 1.13 3.264.748.802 1.13 1.203 2.881 1.203.948 0 1.714-.237 2.334-.693.62-.456 1.058-1.185 1.313-2.133l-1.75-.584Zm4.996-5.726v1.824h15.883v-1.824H27.19Zm0 7.294v1.824h15.883v-1.824H27.19ZM11.634 34.32v1.824h31.438V34.32H11.634Zm0 7.294v1.824h31.438v-1.824H11.634Zm43.784 9.063H49.71V15.391h-1.824v35.285H7.276V12h10.54V1.824h4.978V0h-6.273L5.452 11.069v39.607H.912a.903.903 0 0 0-.912.912c0 .51.401.912.912.912h54.506c.51 0 .911-.401.911-.912a.915.915 0 0 0-.911-.912ZM15.993 3.118v7.076H8.916l7.075-7.076Zm15.682-2.042C30.964.383 30.107.055 29.085.055h-2.753c-.31 0-.529.09-.693.291-.146.183-.237.383-.237.584 0 .237.073.456.237.638.183.164.401.237.675.237h2.753c.53 0 .967.164 1.313.51.347.347.51.749.51 1.24v.785h-2.734c-.292 0-.511.091-.675.274a.87.87 0 0 0-.237.601c0 .237.073.456.237.62a.968.968 0 0 0 .675.256h2.735v.693c0 .51-.182.93-.529 1.258a1.85 1.85 0 0 1-1.295.492h-2.753c-.292 0-.51.091-.675.274a.87.87 0 0 0-.237.602c0 .237.073.455.237.62a.968.968 0 0 0 .675.255h2.753c1.003 0 1.879-.347 2.59-1.04.711-.693 1.076-1.513 1.076-2.48v-3.21c0-.966-.347-1.804-1.058-2.48Zm8.936 7.44h-2.572c-.219 0-.456-.036-.71-.128a2.3 2.3 0 0 1-.584-.383 1.722 1.722 0 0 1-.53-1.258V3.556c0-.237.037-.474.128-.675.091-.219.22-.401.383-.565a1.895 1.895 0 0 1 1.313-.492h2.572c.31 0 .528-.092.692-.292.146-.2.238-.383.238-.584 0-.219-.092-.42-.274-.602a.895.895 0 0 0-.657-.273h-2.57c-1.022 0-1.879.346-2.59 1.021-.711.675-1.058 1.514-1.058 2.48v3.228c0 .985.365 1.805 1.076 2.48.73.675 1.586 1.021 2.571 1.021h2.572c.31 0 .528-.091.692-.292.146-.2.238-.383.238-.583 0-.22-.092-.42-.274-.602a.81.81 0 0 0-.657-.31Zm14.26-5.343c-.292-.62-.493-1.003-1.003-1.495C52.792.638 51.315.31 49.8.31h-2.188c-1.514 0-2.99.346-4.067 1.386-1.075 1.04-1.422 2.17-1.422 3.592 0 1.477.346 2.608 1.422 3.63 1.076 1.02 1.988 1.349 3.52 1.349h.73v1.349c0 .292.09.51.273.657.182.145.401.218.638.218.273 0 .492-.073.657-.218.182-.165.255-.383.255-.657v-1.35h.182c1.514 0 3.009-.346 4.067-1.385 1.057-1.04 1.422-2.17 1.422-3.593 0-.747-.146-1.495-.42-2.115Zm-7.076 5.325h-.182c-1.003 0-2.06-.164-2.772-.857-.711-.693-.894-1.404-.894-2.37 0-.986.183-1.697.894-2.39.73-.674 1.769-.839 2.754-.839h.182v6.456h.018Zm5.672-3.228c0 .967-.183 1.696-.894 2.37-.711.694-1.75.84-2.772.84h-.182V2.06h.182c1.021 0 2.079.165 2.79.876.711.693.876 1.404.876 2.334Z"/>
</svg>
