<svg width="37" height="36" viewBox="0 0 37 36" fill="none" xmlns="http://www.w3.org/2000/svg">
<mask id="path-1-inside-1_4601_1200" fill="white">
<path d="M33.3389 0C34.8081 0 36 1.15525 36 2.5791V33.4209C36 34.8452 34.8081 36 33.3389 36H2.66016C1.19086 36 0 34.8452 0 33.4209V2.5791C0 1.15525 1.19086 0 2.66016 0H33.3389ZM6.41504 30H11.8809V13.8066H6.41504V30ZM25.2979 13.4268C22.3964 13.4269 21.0982 14.999 20.3721 16.1025V13.8066H14.9053C14.977 15.3273 14.9053 30 14.9053 30H20.3721V20.957C20.3721 20.4731 20.4075 19.9895 20.5518 19.6436C20.9469 18.6766 21.8464 17.6748 23.3564 17.6748C25.3344 17.6748 26.126 19.16 26.126 21.3369V30H31.5918V20.7148C31.5918 15.7409 28.8943 13.4268 25.2979 13.4268ZM20.3721 16.1553H20.3359C20.3474 16.1376 20.3603 16.1205 20.3721 16.1025V16.1553ZM9.18359 6C7.314 6.00018 6.09185 7.20904 6.0918 8.79785C6.0918 10.3518 7.27786 11.5957 9.1123 11.5957H9.14746C11.0537 11.5957 12.2402 10.3518 12.2402 8.79785C12.2047 7.20893 11.0536 6 9.18359 6Z"/>
</mask>
<path d="M33.3389 0C34.8081 0 36 1.15525 36 2.5791V33.4209C36 34.8452 34.8081 36 33.3389 36H2.66016C1.19086 36 0 34.8452 0 33.4209V2.5791C0 1.15525 1.19086 0 2.66016 0H33.3389ZM6.41504 30H11.8809V13.8066H6.41504V30ZM25.2979 13.4268C22.3964 13.4269 21.0982 14.999 20.3721 16.1025V13.8066H14.9053C14.977 15.3273 14.9053 30 14.9053 30H20.3721V20.957C20.3721 20.4731 20.4075 19.9895 20.5518 19.6436C20.9469 18.6766 21.8464 17.6748 23.3564 17.6748C25.3344 17.6748 26.126 19.16 26.126 21.3369V30H31.5918V20.7148C31.5918 15.7409 28.8943 13.4268 25.2979 13.4268ZM20.3721 16.1553H20.3359C20.3474 16.1376 20.3603 16.1205 20.3721 16.1025V16.1553ZM9.18359 6C7.314 6.00018 6.09185 7.20904 6.0918 8.79785C6.0918 10.3518 7.27786 11.5957 9.1123 11.5957H9.14746C11.0537 11.5957 12.2402 10.3518 12.2402 8.79785C12.2047 7.20893 11.0536 6 9.18359 6Z" fill="#F26135"/>
<path d="M6.41504 30H5.41504V31H6.41504V30ZM11.8809 30V31H12.8809V30H11.8809ZM11.8809 13.8066H12.8809V12.8066H11.8809V13.8066ZM6.41504 13.8066V12.8066H5.41504V13.8066H6.41504ZM25.2979 13.4268V12.4268H25.2978L25.2979 13.4268ZM20.3721 13.8066H21.3721V12.8066H20.3721V13.8066ZM14.9053 13.8066V12.8066H13.857L13.9064 13.8538L14.9053 13.8066ZM14.9053 30L13.9053 29.9951L13.9004 31H14.9053V30ZM20.3721 30V31H21.3721V30H20.3721ZM20.5518 19.6436L21.4747 20.0285L21.4774 20.0218L20.5518 19.6436ZM23.3564 17.6748L23.3565 16.6748H23.3564V17.6748ZM26.126 30H25.126V31H26.126V30ZM31.5918 30V31H32.5918V30H31.5918ZM20.3721 16.1553V17.1553H21.3721V16.1553H20.3721ZM20.3359 16.1553L19.4977 15.6099L18.4923 17.1553H20.3359V16.1553ZM9.18359 6V5H9.1835L9.18359 6ZM6.0918 8.79785L5.0918 8.79782V8.79785H6.0918ZM12.2402 8.79785H13.2402V8.78666L13.24 8.77547L12.2402 8.79785ZM33.3389 0V1C34.2855 1 35 1.73679 35 2.5791H36H37C37 0.573702 35.3307 -1 33.3389 -1V0ZM36 2.5791H35V33.4209H36H37V2.5791H36ZM36 33.4209H35C35 34.2636 34.2857 35 33.3389 35V36V37C35.3306 37 37 35.4269 37 33.4209H36ZM33.3389 36V35H2.66016V36V37H33.3389V36ZM2.66016 36V35C1.7138 35 1 34.2641 1 33.4209H0H-1C-1 35.4264 0.667924 37 2.66016 37V36ZM0 33.4209H1V2.5791H0H-1V33.4209H0ZM0 2.5791H1C1 1.73631 1.71393 1 2.66016 1V0V-1C0.667801 -1 -1 0.574184 -1 2.5791H0ZM2.66016 0V1H33.3389V0V-1H2.66016V0ZM6.41504 30V31H11.8809V30V29H6.41504V30ZM11.8809 30H12.8809V13.8066H11.8809H10.8809V30H11.8809ZM11.8809 13.8066V12.8066H6.41504V13.8066V14.8066H11.8809V13.8066ZM6.41504 13.8066H5.41504V30H6.41504H7.41504V13.8066H6.41504ZM25.2979 13.4268L25.2978 12.4268C23.6517 12.4268 22.4043 12.8774 21.4555 13.5249C20.5208 14.1628 19.9294 14.956 19.5367 15.5529L20.3721 16.1025L21.2074 16.6522C21.5408 16.1456 21.9616 15.6009 22.5829 15.1769C23.1902 14.7624 24.0426 14.4268 25.2979 14.4268L25.2979 13.4268ZM20.3721 16.1025H21.3721V13.8066H20.3721H19.3721V16.1025H20.3721ZM20.3721 13.8066V12.8066H14.9053V13.8066V14.8066H20.3721V13.8066ZM14.9053 13.8066L13.9064 13.8538C13.9407 14.5817 13.9412 18.5913 13.9322 22.4712C13.9277 24.3996 13.921 26.2806 13.9154 27.6796C13.9126 28.3791 13.91 28.958 13.9082 29.3621C13.9073 29.5641 13.9066 29.7224 13.9061 29.8301C13.9058 29.884 13.9056 29.9253 13.9055 29.9531C13.9054 29.967 13.9054 29.9775 13.9053 29.9845C13.9053 29.988 13.9053 29.9907 13.9053 29.9925C13.9053 29.9933 13.9053 29.994 13.9053 29.9945C13.9053 29.9947 13.9053 29.9948 13.9053 29.9949C13.9053 29.9951 13.9053 29.9951 14.9053 30C15.9053 30.0049 15.9053 30.0048 15.9053 30.0047C15.9053 30.0046 15.9053 30.0044 15.9053 30.0042C15.9053 30.0038 15.9053 30.0031 15.9053 30.0022C15.9053 30.0004 15.9053 29.9977 15.9053 29.9942C15.9053 29.9871 15.9054 29.9766 15.9055 29.9627C15.9056 29.9348 15.9058 29.8935 15.9061 29.8396C15.9066 29.7317 15.9073 29.5732 15.9082 29.3711C15.91 28.9667 15.9125 28.3875 15.9154 27.6876C15.921 26.288 15.9277 24.4058 15.9322 22.4759C15.9411 18.6393 15.9415 14.5523 15.9042 13.7595L14.9053 13.8066ZM14.9053 30V31H20.3721V30V29H14.9053V30ZM20.3721 30H21.3721V20.957H20.3721H19.3721V30H20.3721ZM20.3721 20.957H21.3721C21.3721 20.4778 21.4143 20.1734 21.4747 20.0285L20.5518 19.6436L19.6288 19.2586C19.4007 19.8056 19.3721 20.4684 19.3721 20.957H20.3721ZM20.5518 19.6436L21.4774 20.0218C21.7735 19.2975 22.3796 18.6748 23.3564 18.6748V17.6748V16.6748C21.3131 16.6748 20.1204 18.0556 19.6261 19.2653L20.5518 19.6436ZM23.3564 17.6748L23.3564 18.6748C24.057 18.6748 24.4238 18.9162 24.6606 19.2585C24.9402 19.6626 25.126 20.3417 25.126 21.3369H26.126H27.126C27.126 20.1552 26.916 19.0032 26.3053 18.1206C25.6519 17.1761 24.6339 16.6748 23.3565 16.6748L23.3564 17.6748ZM26.126 21.3369H25.126V30H26.126H27.126V21.3369H26.126ZM26.126 30V31H31.5918V30V29H26.126V30ZM31.5918 30H32.5918V20.7148H31.5918H30.5918V30H31.5918ZM31.5918 20.7148H32.5918C32.5918 18.0518 31.8676 15.9575 30.5234 14.5221C29.1738 13.0807 27.314 12.4268 25.2979 12.4268V13.4268V14.4268C26.8781 14.4268 28.1653 14.9299 29.0635 15.8891C29.9672 16.8542 30.5918 18.404 30.5918 20.7148H31.5918ZM20.3721 16.1553V15.1553H20.3359V16.1553V17.1553H20.3721V16.1553ZM20.3359 16.1553L21.1741 16.7006C21.171 16.7054 21.169 16.7084 21.1689 16.7085C21.1688 16.7087 21.169 16.7084 21.1697 16.7074C21.1704 16.7064 21.1713 16.7051 21.1728 16.703C21.1752 16.6995 21.1804 16.6921 21.1858 16.6842C21.1915 16.676 21.199 16.665 21.2074 16.6522L20.3721 16.1025L19.5367 15.5529C19.5392 15.5491 19.5407 15.5469 19.5403 15.5475C19.5396 15.5485 19.5387 15.5497 19.535 15.555C19.5299 15.5623 19.5143 15.5845 19.4977 15.6099L20.3359 16.1553ZM20.3721 16.1025H19.3721V16.1553H20.3721H21.3721V16.1025H20.3721ZM9.18359 6L9.1835 5C8.03078 5.00011 7.00409 5.37573 6.25608 6.07047C5.5051 6.76798 5.09183 7.73656 5.0918 8.79782L6.0918 8.79785L7.0918 8.79789C7.09182 8.27034 7.28965 7.84008 7.61715 7.5359C7.94763 7.22896 8.46681 7.00007 9.18369 7L9.18359 6ZM6.0918 8.79785H5.0918C5.0918 10.9414 6.76363 12.5957 9.1123 12.5957V11.5957V10.5957C7.79209 10.5957 7.0918 9.76226 7.0918 8.79785H6.0918ZM9.1123 11.5957V12.5957H9.14746V11.5957V10.5957H9.1123V11.5957ZM9.14746 11.5957V12.5957C10.3223 12.5957 11.3517 12.2089 12.0953 11.5065C12.8393 10.8038 13.2402 9.83725 13.2402 8.79785H12.2402H11.2402C11.2402 9.31245 11.0479 9.74478 10.722 10.0525C10.3958 10.3606 9.87884 10.5957 9.14746 10.5957V11.5957ZM12.2402 8.79785L13.24 8.77547C13.2168 7.73982 12.8252 6.77949 12.0894 6.0789C11.353 5.3776 10.3393 5 9.18359 5V6V7C9.8979 7 10.3948 7.22686 10.7102 7.52726C11.0264 7.82837 11.2281 8.26696 11.2405 8.82024L12.2402 8.79785Z" fill="#F26135" mask="url(#path-1-inside-1_4601_1200)"/>
</svg>
