<svg xmlns="http://www.w3.org/2000/svg" width="122" height="26" fill="currentColor" viewBox="0 0 122 26">
  <path d="M23.67 0c5.568 0 10.163 4.19 10.84 9.606a8.38 8.38 0 0 1 5.256 7.789c0 4.627-3.73 8.378-8.33 8.378H27.46V14.598h3.85a.5.5 0 0 0 .365-.155.502.502 0 0 0 .154-.367v-3.94a.504.504 0 0 0-.154-.367.498.498 0 0 0-.364-.154h-13.54a.499.499 0 0 0-.365.154.51.51 0 0 0-.153.367v3.94c0 .14.051.264.153.367a.5.5 0 0 0 .365.155h3.764v11.175h-6.053V10.23a.6.6 0 0 0-.184-.44.594.594 0 0 0-.437-.184h-4.685a.595.595 0 0 0-.436.185.6.6 0 0 0-.184.439v15.544h-2.01C3.38 25.773 0 22.375 0 18.183a7.59 7.59 0 0 1 4.97-7.134 6.798 6.798 0 0 1-.01-.378C4.96 6.986 7.93 4 11.595 4c1.11 0 2.155.274 3.075.758C16.64 1.884 19.936 0 23.67 0Z" clip-rule="evenodd"/>
  <path d="M53.665 26c-1.604 0-2.937-.227-3.998-.68-1.062-.453-1.857-1.044-2.384-1.774-.527-.73-.805-1.502-.836-2.316a.47.47 0 0 1 .481-.484h3.644c.214 0 .382.034.504.103.122.07.252.165.39.288.137.17.297.327.48.473.184.146.421.26.711.346.29.084.627.126 1.008.126.703 0 1.245-.096 1.627-.288.382-.192.573-.457.573-.795a.799.799 0 0 0-.31-.645c-.205-.17-.553-.323-1.042-.461a22.618 22.618 0 0 0-1.993-.438c-1.177-.2-2.193-.496-3.048-.887-.856-.392-1.509-.922-1.96-1.59-.45-.669-.675-1.495-.675-2.478 0-.999.278-1.882.836-2.65.558-.768 1.337-1.368 2.337-1.798 1.001-.43 2.166-.645 3.495-.645 1.1 0 2.074.146 2.922.438.848.291 1.562.672 2.142 1.14.58.47 1.024.972 1.33 1.51.305.538.465 1.052.48 1.544a.49.49 0 0 1-.148.357c-.1.1-.21.15-.333.15h-3.827a1.01 1.01 0 0 1-.458-.092 1.263 1.263 0 0 1-.366-.3c-.077-.215-.268-.407-.573-.576-.306-.169-.695-.253-1.169-.253-.52 0-.916.088-1.192.265a.861.861 0 0 0-.412.772c0 .23.084.43.252.599.168.169.466.319.894.45.428.13 1.023.272 1.787.426 1.451.215 2.624.522 3.518.922.894.399 1.547.921 1.959 1.567.413.645.619 1.452.619 2.42 0 1.09-.313 2.027-.94 2.811-.626.784-1.486 1.387-2.578 1.81-1.092.422-2.341.633-3.747.633Zm9.831-.23a.609.609 0 0 1-.412-.162.554.554 0 0 1-.184-.438V10.236c0-.169.062-.31.184-.426a.587.587 0 0 1 .412-.173h3.735c.169 0 .31.058.425.173a.58.58 0 0 1 .171.426v5.209h4.675v-5.209c0-.169.061-.31.183-.426a.586.586 0 0 1 .413-.173h3.735c.168 0 .31.058.424.173a.58.58 0 0 1 .172.426V25.17a.581.581 0 0 1-.172.427.575.575 0 0 1-.424.173h-3.735a.587.587 0 0 1-.413-.173.563.563 0 0 1-.183-.427v-5.346h-4.675v5.346a.582.582 0 0 1-.171.427.575.575 0 0 1-.425.173h-3.735Zm17.393 0a.587.587 0 0 1-.412-.173.563.563 0 0 1-.184-.427V10.236c0-.169.062-.31.184-.426a.586.586 0 0 1 .412-.173h11.229c.168 0 .313.058.435.173a.562.562 0 0 1 .184.426v2.72a.575.575 0 0 1-.184.415.594.594 0 0 1-.435.184h-7.081v2.282h6.577c.168 0 .313.057.435.172a.563.563 0 0 1 .184.427v2.489a.563.563 0 0 1-.184.426.614.614 0 0 1-.435.173h-6.577v2.328h7.264c.168 0 .314.061.436.184a.6.6 0 0 1 .183.438v2.696a.563.563 0 0 1-.183.427.613.613 0 0 1-.436.173H80.89Zm14.964 0a.587.587 0 0 1-.412-.173.563.563 0 0 1-.184-.427V10.236c0-.169.061-.31.184-.426a.586.586 0 0 1 .412-.173h11.045c.168 0 .314.058.436.173a.563.563 0 0 1 .183.426v2.927a.575.575 0 0 1-.183.415.594.594 0 0 1-.436.184h-6.805v2.536h6.347c.168 0 .313.057.436.173a.563.563 0 0 1 .183.426V19.8a.563.563 0 0 1-.183.426.616.616 0 0 1-.436.173h-6.347v4.77a.583.583 0 0 1-.172.427.574.574 0 0 1-.424.173h-3.644Zm14.483 0a.589.589 0 0 1-.413-.173.563.563 0 0 1-.183-.427V10.236c0-.169.061-.31.183-.426a.588.588 0 0 1 .413-.173h11.045c.168 0 .313.058.436.173a.563.563 0 0 1 .183.426v2.927a.575.575 0 0 1-.183.415.596.596 0 0 1-.436.184h-6.806v2.536h6.348c.168 0 .313.057.435.173a.56.56 0 0 1 .184.426V19.8a.56.56 0 0 1-.184.426.612.612 0 0 1-.435.173h-6.348v4.77a.58.58 0 0 1-.172.427.571.571 0 0 1-.423.173h-3.644Z"/>
</svg>
