<svg width="20" height="20" viewBox="0 0 20 20" fill="none" xmlns="http://www.w3.org/2000/svg">
<path d="M2.00022 2H18.0002C18.236 2 18.4621 2.09365 18.6288 2.26035C18.7955 2.42705 18.8891 2.65314 18.8891 2.88889V17.1111C18.8891 17.3469 18.7955 17.573 18.6288 17.7397C18.4621 17.9064 18.236 18 18.0002 18H2.00022C1.76447 18 1.53838 17.9064 1.37168 17.7397C1.20498 17.573 1.11133 17.3469 1.11133 17.1111V2.88889C1.11133 2.65314 1.20498 2.42705 1.37168 2.26035C1.53838 2.09365 1.76447 2 2.00022 2ZM10.0536 9.71822L4.35399 4.87822L3.20288 6.23289L10.0651 12.0596L16.8038 6.22844L15.6411 4.88356L10.0536 9.71822Z" fill="#F26135"/>
</svg>
