<svg width="20" height="20" viewBox="0 0 20 20" fill="none" xmlns="http://www.w3.org/2000/svg">
<path d="M11 9.77149C11 9.2192 10.5523 8.77149 10 8.77149C9.44772 8.77149 9 9.2192 9 9.77149C9 10.3238 9.44772 10.7715 10 10.7715C10.5523 10.7715 11 10.3238 11 9.77149Z" stroke="#8C8C8C" stroke-width="2" stroke-linecap="round" stroke-linejoin="round"/>
<path d="M11 2.77149C11 2.2192 10.5523 1.77149 10 1.77149C9.44772 1.77149 9 2.2192 9 2.77149C9 3.32377 9.44772 3.77149 10 3.77149C10.5523 3.77149 11 3.32377 11 2.77149Z" stroke="#8C8C8C" stroke-width="2" stroke-linecap="round" stroke-linejoin="round"/>
<path d="M11 16.7715C11 16.2192 10.5523 15.7715 10 15.7715C9.44772 15.7715 9 16.2192 9 16.7715C9 17.3238 9.44772 17.7715 10 17.7715C10.5523 17.7715 11 17.3238 11 16.7715Z" stroke="#8C8C8C" stroke-width="2" stroke-linecap="round" stroke-linejoin="round"/>
</svg>
