<svg width="24" height="24" viewBox="0 0 24 24" fill="none" xmlns="http://www.w3.org/2000/svg">
<path d="M13.73 21.0034C13.5542 21.3065 13.3019 21.5581 12.9982 21.733C12.6946 21.9079 12.3504 22 12 22C11.6496 22 11.3054 21.9079 11.0018 21.733C10.6982 21.5581 10.4458 21.3065 10.27 21.0034M18 8.00106C18 6.40948 17.3679 4.88309 16.2426 3.75767C15.1174 2.63225 13.5913 2 12 2C10.4087 2 8.88258 2.63225 7.75736 3.75767C6.63214 4.88309 6 6.40948 6 8.00106C6 15.0023 3 17.0027 3 17.0027H21C21 17.0027 18 15.0023 18 8.00106Z" stroke="#424242" stroke-width="2" stroke-linecap="round" stroke-linejoin="round"/>
</svg>
