<svg width="20" height="20" viewBox="0 0 20 20" fill="none" xmlns="http://www.w3.org/2000/svg">
<path d="M13.5568 12.5476L13.1018 13.0273C13.1018 13.0273 12.0188 14.1666 9.0638 11.0557C6.10882 7.94486 7.19181 6.80555 7.19181 6.80555L7.47781 6.50273C8.18481 5.75943 8.25181 4.56507 7.63481 3.69259L6.37482 1.91057C5.61082 0.830565 4.13584 0.687623 3.26084 1.60881L1.69085 3.26059C1.25785 3.718 0.967856 4.30883 1.00286 4.9653C1.09286 6.64567 1.81085 10.2595 5.81482 14.4757C10.0618 18.9461 14.0468 19.124 15.6758 18.9631C16.1918 18.9122 16.6398 18.6348 17.0007 18.2536L18.4207 16.7586C19.3807 15.7495 19.1107 14.0183 17.8827 13.3121L15.9728 12.212C15.1668 11.7492 14.1868 11.8848 13.5568 12.5476Z" fill="#F26135"/>
</svg>
