<svg xmlns="http://www.w3.org/2000/svg" width="28" height="28" fill="currentColor" viewBox="0 0 28 28">
  <path d="m14.433 7.404.354-.354a.5.5 0 0 0-.707 0l.353.354Zm0 13-.353.354a.5.5 0 0 0 .707 0l-.354-.354Zm-3.9-9.1.354.354 3.9-3.9-.354-.354-.353-.354-3.9 3.9.353.354Zm3.9-3.9-.353.353 3.9 3.9.353-.353.354-.354-3.9-3.9-.354.354Zm3.9 9.1-.353-.354-3.9 3.9.353.354.354.354 3.9-3.9-.354-.354Zm-3.9 3.9.354-.354-3.9-3.9-.354.354-.353.354 3.9 3.9.353-.354ZM3.6 1v.5h20.8v-1H3.6V1ZM27 3.6h-.5v20.8h1V3.6H27ZM24.4 27v-.5H3.6v1h20.8V27ZM1 24.4h.5V3.6h-1v20.8H1ZM3.6 27v-.5a2.1 2.1 0 0 1-2.1-2.1h-1a3.1 3.1 0 0 0 3.1 3.1V27ZM27 24.4h-.5a2.1 2.1 0 0 1-2.1 2.1v1a3.1 3.1 0 0 0 3.1-3.1H27ZM24.4 1v.5c1.16 0 2.1.94 2.1 2.1h1A3.1 3.1 0 0 0 24.4.5V1ZM3.6 1V.5A3.1 3.1 0 0 0 .5 3.6h1c0-1.16.94-2.1 2.1-2.1V1Z"/>
</svg>
