<svg width="24" height="24" viewBox="0 0 24 24" fill="none" xmlns="http://www.w3.org/2000/svg">
<path d="M2.09961 5.4L5.39961 1H18.5996L21.8996 5.4M2.09961 5.4V20.8C2.09961 21.3835 2.33139 21.9431 2.74397 22.3556C3.15655 22.7682 3.71613 23 4.29961 23H19.6996C20.2831 23 20.8427 22.7682 21.2552 22.3556C21.6678 21.9431 21.8996 21.3835 21.8996 20.8V5.4M2.09961 5.4H21.8996M16.3996 9.8C16.3996 10.967 15.936 12.0861 15.1109 12.9113C14.2857 13.7364 13.1666 14.2 11.9996 14.2C10.8327 14.2 9.7135 13.7364 8.88834 12.9113C8.06318 12.0861 7.59961 10.967 7.59961 9.8" stroke="#424242" stroke-linecap="round" stroke-linejoin="round"/>
</svg>
