<svg width="24" height="24" viewBox="0 0 24 24" fill="none" xmlns="http://www.w3.org/2000/svg">
<path fill-rule="evenodd" clip-rule="evenodd" d="M22.0779 6.52377V20.2381C22.0656 20.9748 21.7639 21.677 21.2386 22.1937C20.7133 22.7102 20.0061 23 19.2694 23H4.70205C3.96668 22.9993 3.26102 22.7099 2.73645 22.1946C2.47818 21.9385 2.27284 21.6335 2.13306 21.2977C1.99338 20.962 1.9216 20.6017 1.92188 20.2381V6.52377H22.0779ZM16.5468 9.74368C16.1592 9.74263 15.8441 10.0563 15.8428 10.444C15.8413 10.8933 15.7503 11.3382 15.5759 11.7522C15.4014 12.1662 15.1466 12.5417 14.8262 12.8566L14.8253 12.8575C14.1736 13.5008 13.2946 13.8614 12.3788 13.8614C11.4631 13.8613 10.5841 13.5008 9.93235 12.8575C9.61739 12.5417 9.36799 12.1666 9.19822 11.7541C9.02788 11.3401 8.94112 10.8962 8.94315 10.4486C8.94467 10.0611 8.63211 9.74567 8.24468 9.74368C7.85691 9.74192 7.54066 10.0553 7.5389 10.4431C7.53608 11.0761 7.6591 11.7035 7.90002 12.2889C8.14099 12.8743 8.49552 13.4065 8.94315 13.8541L8.94589 13.8568C9.86041 14.7594 11.0939 15.2656 12.3788 15.2656C13.6638 15.2656 14.8972 14.7594 15.8118 13.8568L15.8108 13.8559C16.2633 13.411 16.6241 12.8819 16.8704 12.2971C17.117 11.7118 17.2451 11.0828 17.2471 10.4476C17.2481 10.0601 16.9344 9.74493 16.5468 9.74368Z" fill="#1A1A1A"/>
<path d="M18.2207 1C18.3284 1.00001 18.4347 1.02527 18.5307 1.07405C18.6266 1.12283 18.7095 1.19374 18.7729 1.28067L21.6939 5.11951H2.27751L5.18933 1.28067C5.25274 1.19375 5.3357 1.12282 5.4316 1.07405C5.52757 1.02526 5.63386 0.999988 5.74152 1H18.2207Z" fill="#1A1A1A"/>
</svg>
