<svg width="20" height="20" viewBox="0 0 20 20" fill="none" xmlns="http://www.w3.org/2000/svg">
<path d="M2 4.55556L4.66667 1H15.3333L18 4.55556M2 4.55556V17C2 17.4715 2.1873 17.9237 2.5207 18.2571C2.8541 18.5905 3.30628 18.7778 3.77778 18.7778H16.2222C16.6937 18.7778 17.1459 18.5905 17.4793 18.2571C17.8127 17.9237 18 17.4715 18 17V4.55556M2 4.55556H18M13.5556 8.11111C13.5556 9.0541 13.181 9.95847 12.5142 10.6253C11.8474 11.2921 10.943 11.6667 10 11.6667C9.05701 11.6667 8.15264 11.2921 7.48584 10.6253C6.81905 9.95847 6.44444 9.0541 6.44444 8.11111" stroke="#424242" stroke-linecap="round" stroke-linejoin="round"/>
</svg>
