<svg xmlns="http://www.w3.org/2000/svg" width="60" height="60" fill="none" viewBox="0 0 60 60">
  <path fill="#73BC38" d="M25.208 41.766 13.636 30.19l3.857-3.857 7.715 7.713L40.634 18.62l3.859 3.86-19.285 19.287Z"/>
  <path fill="#73BC38" fill-rule="evenodd" d="M0 30C0 13.432 13.432 0 30 0c16.568 0 30 13.432 30 30 0 16.568-13.432 30-30 30C13.432 60 0 46.568 0 30Zm30 24.545A24.544 24.544 0 0 1 7.323 20.607a24.547 24.547 0 0 1 40.033-7.963A24.546 24.546 0 0 1 30 54.545Z" clip-rule="evenodd"/>
</svg>
