<svg width="24" height="24" viewBox="0 0 24 24" fill="none" xmlns="http://www.w3.org/2000/svg">
<path fill-rule="evenodd" clip-rule="evenodd" d="M12 1C18.1 1 23 5.9 23 12C23 18.1 18.1 23 12 23C10 23 8.1 22.5 6.5 21.5L1 23L2.7002 17.9004C1.6002 16.2004 1 14.2 1 12C1 5.9 5.9 1 12 1ZM11.7188 15.5625C11.3047 15.5627 10.9688 15.8984 10.9688 16.3125V16.5C10.9689 16.914 11.3048 17.2498 11.7188 17.25C12.1329 17.25 12.4686 16.9141 12.4688 16.5V16.3125C12.4687 15.8983 12.1329 15.5625 11.7188 15.5625ZM12.5244 5.8418C11.8904 5.70569 10.9085 5.85172 10.084 6.34082C9.19946 6.86562 8.44149 7.81954 8.44141 9.29102C8.44141 9.70523 8.77719 10.041 9.19141 10.041C9.60562 10.041 9.94141 9.70523 9.94141 9.29102C9.94149 8.42249 10.3535 7.92518 10.8496 7.63086C11.4004 7.30414 12.0029 7.26217 12.2119 7.30859L12.2432 7.31543L12.2754 7.31934C12.856 7.39676 13.2552 7.59789 13.5127 7.88477C13.7675 8.16865 13.9648 8.62748 13.9648 9.38477C13.9648 9.80521 13.8429 10.0054 13.6992 10.1514C13.5066 10.347 13.2465 10.4807 12.8184 10.7178C12.4353 10.9299 11.9311 11.2217 11.5508 11.7207C11.151 12.2452 10.942 12.9214 10.9697 13.8086C10.9829 14.2223 11.3284 14.5469 11.7422 14.5342C12.1561 14.5212 12.4815 14.1756 12.4688 13.7617C12.4497 13.1511 12.591 12.8308 12.7441 12.6299C12.9167 12.4037 13.1677 12.2392 13.5449 12.0303C13.8774 11.8461 14.3839 11.5935 14.7676 11.2041C15.2001 10.7649 15.4648 10.1812 15.4648 9.38477C15.4648 8.36345 15.1932 7.51165 14.6289 6.88281C14.079 6.27017 13.3285 5.95766 12.5244 5.8418Z" fill="#1A1A1A"/>
</svg>
