<svg width="20" height="20" viewBox="0 0 20 20" fill="none" xmlns="http://www.w3.org/2000/svg">
<path fill-rule="evenodd" clip-rule="evenodd" d="M10 1C14.9909 1 19 5.00909 19 10C19 14.9909 14.9909 19 10 19C8.36364 19 6.80909 18.5909 5.5 17.7727L1 19L2.39107 14.8276C1.49107 13.4367 1 11.8 1 10C1 5.00909 5.00909 1 10 1ZM9.76989 12.9148C9.43113 12.9149 9.15629 13.1896 9.15625 13.5284V13.6818C9.15639 14.0205 9.43119 14.2953 9.76989 14.2955C10.1087 14.2955 10.3834 14.0206 10.3835 13.6818V13.5284C10.3835 13.1895 10.1088 12.9148 9.76989 12.9148ZM10.4291 4.96147C9.91031 4.85011 9.10695 4.96959 8.43235 5.36976C7.70865 5.79915 7.08849 6.57962 7.08842 7.78356C7.08842 8.12246 7.36316 8.39719 7.70206 8.39719C8.04096 8.39719 8.3157 8.12246 8.3157 7.78356C8.31576 7.07295 8.65284 6.66605 9.05877 6.42525C9.50943 6.15793 10.0024 6.12359 10.1734 6.16158L10.199 6.16717L10.2253 6.17037C10.7003 6.23371 11.027 6.39828 11.2377 6.63299C11.4461 6.86526 11.6076 7.24067 11.6076 7.86026C11.6076 8.20427 11.5078 8.36809 11.3903 8.48748C11.2326 8.64751 11.0198 8.75692 10.6696 8.95091C10.3562 9.12449 9.94365 9.36321 9.63246 9.77148C9.30539 10.2007 9.13438 10.7539 9.15705 11.4798C9.1678 11.8183 9.45054 12.0839 9.78906 12.0734C10.1277 12.0628 10.3939 11.78 10.3835 11.4414C10.3679 10.9418 10.4835 10.6798 10.6088 10.5154C10.75 10.3303 10.9554 10.1957 11.264 10.0248C11.536 9.87412 11.9505 9.66743 12.2644 9.34881C12.6183 8.9895 12.8349 8.51187 12.8349 7.86026C12.8349 7.02464 12.6127 6.32771 12.1509 5.81321C11.701 5.31196 11.087 5.05627 10.4291 4.96147Z" fill="#424242"/>
</svg>
