<svg xmlns="http://www.w3.org/2000/svg" width="51" height="54" fill="currentColor" viewBox="0 0 51 54">
  <path d="M1.939 46.58H4.05c8.81 0 6.22.02 15.03-.039 1.19 0 2.38-.352 3.934-.606.058.235.384.9.23 1.369-.153.469-.786.86-1.285 1.055-.48.196-1.075.098-1.632.098H3.455c-.48 0-.979.02-1.459-.039C.73 48.262.192 47.714.038 46.404 0 46.033 0 45.661 0 45.29 0 30.744.02 19.893.02 5.347v-.371C.095 1.984 1.861.049 4.78.029A5182.98 5182.98 0 0 1 39.828.03c2.61 0 4.395 1.428 4.837 3.891.46 2.62.269 5.279-.058 8.211h-7.466v4.321c0 2.112.019 2.249.019 4.36 0 .665-.116 1.33-.902 1.369-.807.039-.941-.626-.941-1.29.02-6.14.02-10.304.096-16.443 0-.763.403-1.506.672-2.464-.672-.039-1.305-.097-1.939-.097-8.637-.04-19.482-.059-28.12-.079-.365 0-.73 0-1.094.02-2.111.176-3.052 1.173-3.052 3.363-.02 4.34 0 8.66 0 13.001 0 10.147-.02 16.6-.02 26.746 0 .45.04.86.078 1.642Zm41.076-36.208c0-1.994.077-3.793-.02-5.572-.095-1.662-1.15-2.718-2.61-2.835-1.535-.117-2.936.743-3.07 2.248-.173 1.994-.04 4.028-.04 6.159h5.74ZM22.44 6.814c-3.321 4.34-6.623 8.68-9.905 13.06-.441.586-1.305 1.349-.384 2.053.998.762 1.497-.313 1.977-.959 2.726-3.558 5.432-7.136 8.139-10.694.672-.88 1.343-1.74 1.996-2.659.557-.782.346-1.388-.749-1.838-.384.372-.787.665-1.075 1.037ZM9.5 9.609c-.038-2.15 1.651-3.87 3.782-3.87 2.073 0 3.666 1.622 3.704 3.733.039 2.132-1.65 3.97-3.685 4.008-2.112.02-3.781-1.661-3.8-3.87Zm5.528-.078c0-.9-.844-1.838-1.689-1.877-.94-.058-1.862.84-1.9 1.858-.02.997.825 1.935 1.785 1.974.883.04 1.804-.938 1.804-1.955Zm8.081 12.982c-2.226-.04-3.762-1.662-3.704-3.89.057-2.17 1.631-3.754 3.704-3.696 2.227.04 3.782 1.682 3.724 3.89-.058 2.132-1.65 3.735-3.724 3.696Zm1.805-3.676c.038-1.075-.691-1.955-1.709-2.013-1.075-.059-1.862.703-1.862 1.798 0 .997.864 1.936 1.805 1.956.921.039 1.727-.763 1.766-1.74Zm-8.427 16.795h-6.43c-.633 0-1.324-.078-1.344-.9-.019-.801.615-.997 1.267-.997 2.803 0 4.338-.039 7.14.04.404.019 1.095.527 1.133.86.096.743-.537.977-1.228.977-1.46 0 .92 0-.538.02Zm-9.079-.939a.951.951 0 0 0-.94-.958.95.95 0 0 0-.941.958.95.95 0 0 0 .94.958.977.977 0 0 0 .941-.958Zm9.08 6.12h-6.431c-.633 0-1.324-.078-1.344-.9-.019-.801.615-.997 1.267-.997 2.803 0 4.338-.039 7.14.04.404.019 1.095.527 1.133.86.096.743-.537.977-1.228.977-1.46 0 .92.02-.538.02Zm-9.08-.939a.95.95 0 0 0-.94-.958.95.95 0 0 0-.941.958.95.95 0 0 0 .94.958.964.964 0 0 0 .941-.958Zm9.06-9.814h-6.43c-.634 0-1.325-.078-1.344-.9-.02-.801.614-.997 1.267-.997 2.802 0 8.177-.039 10.98.04.402.019 1.093.527 1.132.86.096.743-.538.977-1.229.977-1.458 0-2.917 0-4.376.02 0-.02 0-.02 0 0Zm-9.08-.958a.951.951 0 0 0-.94-.958.95.95 0 0 0-.94.958.95.95 0 0 0 .94.958.95.95 0 0 0 .94-.958Zm23.783-.294c.614-.254 1.17-.488 1.785-.762.154-.762.346-1.545.48-2.346.115-.723.537-1.095 1.248-1.095 1.209-.02 2.437-.059 3.647 0 .902.04 1.132.293 1.324 1.232.154.723.288 1.466.441 2.19.596.254 1.152.508 1.824.801.499-.352 1.056-.743 1.593-1.114.979-.665 1.363-.665 2.207.117a26.178 26.178 0 0 1 2.246 2.385c.73.88.691 1.056.02 2.053-.365.547-.692 1.095-1.056 1.681.21.548.422 1.095.652 1.72.73.138 1.46.275 2.208.431.844.176 1.132.41 1.17 1.27.058 1.291.039 2.601 0 3.892-.019.664-.345 1.075-1.036 1.192-.748.117-1.497.313-2.303.47-.211.547-.442 1.133-.672 1.779.403.625.806 1.29 1.248 1.935.364.547.422 1.114-.039 1.603a91.456 91.456 0 0 1-2.687 2.777c-.5.508-1.056.508-1.65.058a47.78 47.78 0 0 0-1.901-1.29c-.576.254-1.19.508-1.843.782-.153.782-.307 1.544-.441 2.326-.115.665-.48 1.056-1.152 1.076-1.286.02-2.553.02-3.839 0-.652 0-1.075-.313-1.19-1.017-.134-.763-.307-1.525-.48-2.346-.556-.254-1.132-.528-1.766-.821-.652.45-1.324.88-1.957 1.349-.557.41-1.075.41-1.555-.059-.96-.958-1.881-1.935-2.803-2.932-.403-.43-.364-.939-.038-1.428.442-.664.883-1.349 1.305-1.994-.23-.626-.441-1.173-.652-1.76-.826-.175-1.632-.352-2.438-.508-.538-.098-.902-.41-.902-.977a79.792 79.792 0 0 1 0-4.282c.019-.704.499-.997 1.132-1.095.73-.117 1.44-.254 2.17-.371.249-.626.48-1.193.729-1.8-.442-.683-.864-1.368-1.325-2.032-.345-.509-.364-.978.039-1.428a98.154 98.154 0 0 1 2.802-2.932c.48-.47 1.037-.43 1.574-.04.576.45 1.19.841 1.881 1.31Zm-2.745 20.725c.749-.528 1.363-.939 1.958-1.389.46-.352.902-.371 1.42-.117a22.31 22.31 0 0 0 2.112.92c.441.175.672.43.748.898.116.763.288 1.525.442 2.366h2.88c.133-.782.268-1.486.383-2.19.096-.567.346-.919.921-1.114a9.47 9.47 0 0 0 1.92-.86c.595-.333 1.075-.274 1.593.117.557.43 1.152.821 1.823 1.29.653-.684 1.286-1.349 1.94-2.013-.423-.665-.73-1.252-1.114-1.76-.46-.587-.519-1.134-.173-1.799a9.773 9.773 0 0 0 .73-1.798c.172-.587.48-.86 1.055-.939.73-.098 1.44-.254 2.188-.39V37.82c-.73-.136-1.382-.273-2.034-.371-.672-.078-1.094-.371-1.267-1.095-.134-.586-.422-1.173-.71-1.7-.307-.587-.307-1.096.096-1.623.422-.567.806-1.174 1.286-1.897-.691-.665-1.363-1.29-2.093-1.994-.614.43-1.209.84-1.804 1.27-.46.353-.902.392-1.42.118-.595-.313-1.21-.645-1.843-.802-.71-.195-.998-.606-1.094-1.29-.096-.704-.269-1.388-.403-2.072h-2.86c-.154.82-.326 1.544-.422 2.287-.077.626-.404.88-.96 1.056a9.47 9.47 0 0 0-1.766.762c-.653.352-1.19.333-1.766-.136-.518-.411-1.094-.783-1.67-1.193-.73.704-1.382 1.349-2.035 1.975.519.782.941 1.446 1.383 2.072.287.41.307.801.076 1.27-.307.607-.595 1.232-.767 1.878-.192.703-.576 1.036-1.267 1.114-.691.078-1.363.235-2.073.352v2.952c.787.157 1.516.313 2.226.41.595.079.883.411 1.075.959.192.606.403 1.232.71 1.798.346.646.27 1.154-.134 1.72-.422.568-.768 1.174-1.133 1.721.634.763 1.229 1.447 1.843 2.17Zm8.139-16.99c3.263-.137 6.68 2.659 6.66 6.862-.019 3.832-3.032 6.726-6.833 6.687-3.666-.06-6.565-3.129-6.507-6.902.058-3.734 3.033-6.686 6.68-6.647Zm4.856 6.764c0-2.835-2.17-5.005-4.952-4.985-2.63.02-4.837 2.268-4.837 4.927 0 2.795 2.207 5.044 4.933 5.044 2.725 0 4.856-2.19 4.856-4.986Z"/>
</svg>
