<svg width="20" height="20" viewBox="0 0 20 20" fill="none" xmlns="http://www.w3.org/2000/svg">
<path d="M9.9914 18.9913C7.68181 18.9913 5.37222 18.9913 3.06686 18.9913C2.87616 18.9913 2.68122 19 2.499 18.9606C2.24473 18.9038 2.04556 18.7158 2.04132 18.4535C2.02861 17.3954 1.90147 16.333 2.16845 15.2968C2.61766 13.5655 4.15597 12.2538 5.88499 12.1052C6.15197 12.0833 6.41895 12.0702 6.69017 12.0702C8.96162 12.0658 11.2373 12.0702 13.5088 12.0658C14.6869 12.0658 15.7336 12.42 16.6066 13.2463C17.488 14.077 17.95 15.1219 17.9881 16.3505C18.0093 16.9845 17.9966 17.6184 17.9923 18.2524C17.9881 18.7114 17.6957 19 17.255 19C14.8352 19 11.5 19 11.5 19L9.9914 18.9913ZM10.0592 1.00001C7.61824 0.995635 5.67734 2.93248 5.67734 5.37649C5.67734 7.80302 7.61824 9.77484 10.0084 9.77047C12.3942 9.7661 14.3224 7.80739 14.3267 5.38961C14.3309 2.98495 12.4027 1.00438 10.0592 1.00001Z" fill="#424242"/>
</svg>
