<svg width="24" height="24" viewBox="0 0 24 24" fill="none" xmlns="http://www.w3.org/2000/svg">
<path d="M10 23C7.11301 23 6.21527 22.9893 3.33358 22.9893C3.0952 22.9893 2.85153 23 2.62375 22.9519C2.30592 22.8824 2.05695 22.6527 2.05165 22.332C2.03576 21.0389 1.87684 19.7403 2.21056 18.4739C2.77207 16.3578 4.69497 14.7547 6.85624 14.573C7.18996 14.5463 7.52369 14.5302 7.86271 14.5302C10.702 14.5249 13.5466 14.5302 16.386 14.5249C17.8586 14.5249 19.167 14.9577 20.2582 15.9677C21.3601 16.983 21.9375 18.2601 21.9851 19.7617C22.0116 20.5366 21.9957 21.3114 21.9904 22.0862C21.9851 22.6473 21.6196 23 21.0687 23C18.044 23 16.0247 22.9893 13 22.9893C14.2351 22.9893 10 23 10 23ZM12.074 1.00001C9.0228 0.994665 6.59667 3.36192 6.59667 6.34905C6.59667 9.3148 9.0228 11.7248 12.0104 11.7195C14.9928 11.7141 17.403 9.32014 17.4083 6.36508C17.4136 3.42605 15.0034 1.00535 12.074 1.00001Z" fill="#1A1A1A"/>
</svg>
