<svg width="36" height="36" viewBox="0 0 36 36" fill="none" xmlns="http://www.w3.org/2000/svg">
<mask id="path-1-inside-1_4601_1206" fill="white">
<path d="M18 4.5C18 4.5 29.2498 4.50004 32.0645 5.30566C32.829 5.52753 33.5254 5.95925 34.084 6.55762C34.6425 7.15603 35.0435 7.90053 35.2471 8.71582C35.9997 11.7251 36 18 36 18C36 18.002 35.9996 24.2754 35.2471 27.2842C35.0435 28.0995 34.6425 28.844 34.084 29.4424C33.5254 30.0408 32.829 30.4725 32.0645 30.6943C29.2498 31.5 18 31.5 18 31.5C18 31.5 6.75023 31.5 3.93555 30.6943C3.17102 30.4725 2.47456 30.0408 1.91602 29.4424C1.35746 28.844 0.956461 28.0995 0.75293 27.2842C0.000387586 24.2754 1.86025e-08 18.002 0 18C0 18 0.000269737 11.7251 0.75293 8.71582C0.956461 7.90053 1.35746 7.15603 1.91602 6.55762C2.47456 5.95925 3.17102 5.52753 3.93555 5.30566C6.75023 4.50004 18 4.5 18 4.5ZM13.5 24L25.5 18L13.5 12V24Z"/>
</mask>
<path d="M18 4.5C18 4.5 29.2498 4.50004 32.0645 5.30566C32.829 5.52753 33.5254 5.95925 34.084 6.55762C34.6425 7.15603 35.0435 7.90053 35.2471 8.71582C35.9997 11.7251 36 18 36 18C36 18.002 35.9996 24.2754 35.2471 27.2842C35.0435 28.0995 34.6425 28.844 34.084 29.4424C33.5254 30.0408 32.829 30.4725 32.0645 30.6943C29.2498 31.5 18 31.5 18 31.5C18 31.5 6.75023 31.5 3.93555 30.6943C3.17102 30.4725 2.47456 30.0408 1.91602 29.4424C1.35746 28.844 0.956461 28.0995 0.75293 27.2842C0.000387586 24.2754 1.86025e-08 18.002 0 18C0 18 0.000269737 11.7251 0.75293 8.71582C0.956461 7.90053 1.35746 7.15603 1.91602 6.55762C2.47456 5.95925 3.17102 5.52753 3.93555 5.30566C6.75023 4.50004 18 4.5 18 4.5ZM13.5 24L25.5 18L13.5 12V24Z" fill="#F26135"/>
<path d="M18 4.5L18 4.00099H18L18 4.5ZM32.0645 5.30566L32.2035 4.82643L32.2018 4.82592L32.0645 5.30566ZM34.084 6.55762L34.4488 6.21712L34.4488 6.21711L34.084 6.55762ZM35.2471 8.71582L34.7629 8.83668L34.763 8.8369L35.2471 8.71582ZM36 18L36.499 18V18L36 18ZM35.2471 27.2842L34.763 27.1631L34.7629 27.1633L35.2471 27.2842ZM34.084 29.4424L34.4488 29.7829L34.4488 29.7829L34.084 29.4424ZM32.0645 30.6943L32.2018 31.1741L32.2035 31.1736L32.0645 30.6943ZM18 31.5L18 31.999H18L18 31.5ZM3.93555 30.6943L3.79647 31.1736L3.79823 31.1741L3.93555 30.6943ZM1.91602 29.4424L1.55122 29.7829L1.55123 29.7829L1.91602 29.4424ZM0.75293 27.2842L1.23708 27.1633L1.23703 27.1631L0.75293 27.2842ZM0 18L-0.499008 18V18L0 18ZM0.75293 8.71582L1.23703 8.8369L1.23708 8.83668L0.75293 8.71582ZM1.91602 6.55762L1.55123 6.21711L1.55122 6.21712L1.91602 6.55762ZM3.93555 5.30566L3.79823 4.82592L3.79647 4.82643L3.93555 5.30566ZM13.5 24H13.001V24.8074L13.7232 24.4463L13.5 24ZM25.5 18L25.7232 18.4463L26.6158 18L25.7232 17.5537L25.5 18ZM13.5 12L13.7232 11.5537L13.001 11.1926V12H13.5ZM18 4.5C18 4.99901 18 4.99901 18.0001 4.99901C18.0002 4.99901 18.0003 4.99901 18.0004 4.99901C18.0008 4.99901 18.0012 4.99901 18.0019 4.99901C18.0032 4.99901 18.0052 4.99901 18.0079 4.99901C18.0132 4.99901 18.0212 4.99902 18.0318 4.99903C18.053 4.99906 18.0845 4.99911 18.1258 4.9992C18.2085 4.9994 18.3303 4.99979 18.4864 5.00058C18.7986 5.00215 19.2479 5.00529 19.796 5.01157C20.8925 5.02414 22.3831 5.04926 23.9608 5.09948C25.5394 5.14972 27.201 5.22496 28.6406 5.3374C30.0949 5.451 31.2783 5.59968 31.9271 5.78541L32.0645 5.30566L32.2018 4.82592C31.4433 4.60883 30.1649 4.45541 28.7183 4.34241C27.2569 4.22827 25.5783 4.15244 23.9926 4.10197C22.4061 4.05147 20.9083 4.02624 19.8075 4.01362C19.2569 4.00731 18.8054 4.00415 18.4914 4.00257C18.3344 4.00178 18.2117 4.00139 18.1282 4.00119C18.0865 4.00109 18.0545 4.00104 18.0329 4.00102C18.0222 4.001 18.014 4.001 18.0084 4.001C18.0057 4.00099 18.0036 4.00099 18.0022 4.00099C18.0015 4.00099 18.001 4.00099 18.0006 4.00099C18.0004 4.00099 18.0003 4.00099 18.0002 4.00099C18.0001 4.00099 18 4.00099 18 4.5ZM32.0645 5.30566L31.9254 5.7849C32.601 5.98098 33.2202 6.36355 33.7192 6.89812L34.084 6.55762L34.4488 6.21711C33.8307 5.55494 33.0569 5.07409 32.2035 4.82643L32.0645 5.30566ZM34.084 6.55762L33.7192 6.89811C34.2183 7.43285 34.5793 8.10115 34.7629 8.83668L35.2471 8.71582L35.7312 8.59496C35.5078 7.69991 35.0668 6.87922 34.4488 6.21712L34.084 6.55762ZM35.2471 8.71582L34.763 8.8369C35.126 10.2882 35.3131 12.5639 35.4074 14.5105C35.4541 15.4768 35.4776 16.3501 35.4893 16.9818C35.4951 17.2975 35.4981 17.5527 35.4995 17.7287C35.5003 17.8166 35.5006 17.8848 35.5008 17.9308C35.5009 17.9538 35.5009 17.9712 35.501 17.9829C35.501 17.9887 35.501 17.9931 35.501 17.9959C35.501 17.9974 35.501 17.9984 35.501 17.9991C35.501 17.9995 35.501 17.9997 35.501 17.9999C35.501 17.9999 35.501 18 35.501 18C35.501 18 35.501 18 36 18C36.499 18 36.499 17.9999 36.499 17.9998C36.499 17.9998 36.499 17.9997 36.499 17.9996C36.499 17.9993 36.499 17.999 36.499 17.9986C36.499 17.9978 36.499 17.9965 36.499 17.9949C36.499 17.9918 36.499 17.9871 36.499 17.9809C36.499 17.9686 36.4989 17.9505 36.4988 17.9268C36.4986 17.8794 36.4983 17.8098 36.4975 17.7203C36.496 17.5414 36.493 17.2828 36.4871 16.9633C36.4753 16.3244 36.4516 15.4409 36.4042 14.4623C36.3101 12.5191 36.1208 10.1528 35.7312 8.59474L35.2471 8.71582ZM36 18L35.501 18C35.501 17.9971 35.5009 19.557 35.4073 21.4904C35.3131 23.4368 35.1259 25.7121 34.763 27.1631L35.2471 27.2842L35.7312 27.4053C36.1208 25.8475 36.3101 23.4816 36.4042 21.5387C36.4989 19.5826 36.499 18.0048 36.499 18L36 18ZM35.2471 27.2842L34.7629 27.1633C34.5793 27.8989 34.2183 28.5672 33.7192 29.1019L34.084 29.4424L34.4488 29.7829C35.0668 29.1208 35.5078 28.3001 35.7312 27.405L35.2471 27.2842ZM34.084 29.4424L33.7192 29.1019C33.2202 29.6364 32.601 30.019 31.9254 30.2151L32.0645 30.6943L32.2035 31.1736C33.0569 30.9259 33.8307 30.4451 34.4488 29.7829L34.084 29.4424ZM32.0645 30.6943L31.9271 30.2146C31.2783 30.4003 30.0949 30.549 28.6406 30.6626C27.201 30.775 25.5394 30.8503 23.9608 30.9005C22.3831 30.9507 20.8925 30.9759 19.796 30.9884C19.2479 30.9947 18.7986 30.9979 18.4864 30.9994C18.3303 31.0002 18.2085 31.0006 18.1258 31.0008C18.0845 31.0009 18.053 31.0009 18.0318 31.001C18.0212 31.001 18.0132 31.001 18.0079 31.001C18.0052 31.001 18.0032 31.001 18.0019 31.001C18.0012 31.001 18.0008 31.001 18.0004 31.001C18.0003 31.001 18.0002 31.001 18.0001 31.001C18 31.001 18 31.001 18 31.5C18 31.999 18.0001 31.999 18.0002 31.999C18.0003 31.999 18.0004 31.999 18.0006 31.999C18.001 31.999 18.0015 31.999 18.0022 31.999C18.0036 31.999 18.0057 31.999 18.0084 31.999C18.014 31.999 18.0222 31.999 18.0329 31.999C18.0545 31.999 18.0865 31.9989 18.1282 31.9988C18.2117 31.9986 18.3344 31.9982 18.4914 31.9974C18.8054 31.9958 19.2569 31.9927 19.8075 31.9864C20.9083 31.9738 22.4061 31.9485 23.9926 31.898C25.5783 31.8476 27.2569 31.7717 28.7183 31.6576C30.1649 31.5446 31.4433 31.3912 32.2018 31.1741L32.0645 30.6943ZM18 31.5C18 31.001 18 31.001 17.9999 31.001C17.9998 31.001 17.9997 31.001 17.9996 31.001C17.9992 31.001 17.9988 31.001 17.9981 31.001C17.9968 31.001 17.9948 31.001 17.9921 31.001C17.9868 31.001 17.9788 31.001 17.9682 31.001C17.947 31.0009 17.9155 31.0009 17.8742 31.0008C17.7915 31.0006 17.6697 31.0002 17.5136 30.9994C17.2014 30.9979 16.7521 30.9947 16.204 30.9884C15.1075 30.9759 13.6169 30.9507 12.0392 30.9005C10.4606 30.8503 8.79902 30.775 7.35942 30.6626C5.90508 30.549 4.72175 30.4003 4.07286 30.2146L3.93555 30.6943L3.79823 31.1741C4.55669 31.3912 5.83508 31.5446 7.2817 31.6576C8.74307 31.7717 10.4217 31.8476 12.0074 31.898C13.5939 31.9485 15.0917 31.9738 16.1925 31.9864C16.7431 31.9927 17.1946 31.9958 17.5086 31.9974C17.6656 31.9982 17.7883 31.9986 17.8718 31.9988C17.9135 31.9989 17.9455 31.999 17.9671 31.999C17.9778 31.999 17.986 31.999 17.9916 31.999C17.9943 31.999 17.9964 31.999 17.9978 31.999C17.9985 31.999 17.999 31.999 17.9994 31.999C17.9996 31.999 17.9997 31.999 17.9998 31.999C17.9999 31.999 18 31.999 18 31.5ZM3.93555 30.6943L4.07462 30.2151C3.39896 30.019 2.77978 29.6364 2.2808 29.1019L1.91602 29.4424L1.55123 29.7829C2.16934 30.4451 2.94308 30.9259 3.79647 31.1736L3.93555 30.6943ZM1.91602 29.4424L2.28081 29.1019C1.78169 28.5672 1.4207 27.8989 1.23708 27.1633L0.75293 27.2842L0.26878 27.405C0.492221 28.3001 0.933229 29.1208 1.55122 29.7829L1.91602 29.4424ZM0.75293 27.2842L1.23703 27.1631C0.874101 25.7121 0.686933 23.4368 0.592686 21.4904C0.499071 19.557 0.499008 17.9971 0.499008 18L0 18L-0.499008 18C-0.499008 18.0048 -0.498877 19.5826 -0.404163 21.5387C-0.310081 23.4816 -0.120784 25.8475 0.268833 27.4053L0.75293 27.2842ZM0 18C0.499008 18 0.499008 18 0.499008 18C0.499008 18 0.499008 17.9999 0.499008 17.9999C0.499008 17.9997 0.499008 17.9995 0.499009 17.9991C0.499009 17.9984 0.49901 17.9974 0.499011 17.9959C0.499014 17.9931 0.49902 17.9887 0.499031 17.9829C0.499054 17.9712 0.4991 17.9538 0.499191 17.9308C0.499374 17.8848 0.49974 17.8166 0.500472 17.7287C0.501937 17.5527 0.504867 17.2975 0.510725 16.9818C0.522444 16.3501 0.545866 15.4768 0.592642 14.5105C0.686875 12.5639 0.874044 10.2882 1.23703 8.8369L0.75293 8.71582L0.268833 8.59474C-0.120844 10.1528 -0.31014 12.5191 -0.404207 14.4623C-0.451581 15.4409 -0.475268 16.3244 -0.48712 16.9633C-0.493048 17.2828 -0.496019 17.5414 -0.497509 17.7203C-0.498254 17.8098 -0.498629 17.8794 -0.498817 17.9268C-0.498912 17.9505 -0.498959 17.9686 -0.498983 17.9809C-0.498996 17.9871 -0.499002 17.9918 -0.499005 17.9949C-0.499006 17.9965 -0.499007 17.9978 -0.499008 17.9986C-0.499008 17.999 -0.499008 17.9993 -0.499008 17.9996C-0.499008 17.9997 -0.499008 17.9998 -0.499008 17.9998C-0.499008 17.9999 -0.499008 18 0 18ZM0.75293 8.71582L1.23708 8.83668C1.4207 8.10115 1.78169 7.43285 2.28081 6.89811L1.91602 6.55762L1.55122 6.21712C0.933229 6.87922 0.492221 7.69991 0.26878 8.59496L0.75293 8.71582ZM1.91602 6.55762L2.2808 6.89812C2.77978 6.36355 3.39896 5.98098 4.07462 5.7849L3.93555 5.30566L3.79647 4.82643C2.94308 5.07409 2.16934 5.55494 1.55123 6.21711L1.91602 6.55762ZM3.93555 5.30566L4.07286 5.78541C4.72175 5.59968 5.90508 5.451 7.35942 5.3374C8.79901 5.22496 10.4606 5.14972 12.0392 5.09948C13.6169 5.04926 15.1075 5.02414 16.204 5.01157C16.7521 5.00529 17.2014 5.00215 17.5136 5.00058C17.6697 4.99979 17.7915 4.9994 17.8742 4.9992C17.9155 4.99911 17.947 4.99906 17.9682 4.99903C17.9788 4.99902 17.9868 4.99901 17.9921 4.99901C17.9948 4.99901 17.9968 4.99901 17.9981 4.99901C17.9988 4.99901 17.9992 4.99901 17.9996 4.99901C17.9997 4.99901 17.9998 4.99901 17.9999 4.99901C18 4.99901 18 4.99901 18 4.5C18 4.00099 17.9999 4.00099 17.9998 4.00099C17.9997 4.00099 17.9996 4.00099 17.9994 4.00099C17.999 4.00099 17.9985 4.00099 17.9978 4.00099C17.9964 4.00099 17.9943 4.00099 17.9916 4.001C17.986 4.001 17.9778 4.001 17.9671 4.00102C17.9455 4.00104 17.9135 4.00109 17.8718 4.00119C17.7883 4.00139 17.6656 4.00178 17.5086 4.00257C17.1946 4.00415 16.7431 4.00731 16.1925 4.01362C15.0917 4.02624 13.5939 4.05147 12.0074 4.10197C10.4217 4.15244 8.74307 4.22827 7.2817 4.34241C5.83508 4.45541 4.55669 4.60883 3.79823 4.82592L3.93555 5.30566ZM13.5 24L13.7232 24.4463L25.7232 18.4463L25.5 18L25.2768 17.5537L13.2768 23.5537L13.5 24ZM25.5 18L25.7232 17.5537L13.7232 11.5537L13.5 12L13.2768 12.4463L25.2768 18.4463L25.5 18ZM13.5 12H13.001V24H13.5H13.999V12H13.5Z" fill="#F26135" mask="url(#path-1-inside-1_4601_1206)"/>
</svg>
